<mxfile host="app.diagrams.net" agent="Mozilla/5.0 (Windows NT 10.0; Win64; x64; rv:139.0) Gecko/20100101 Firefox/139.0" version="27.1.6">
  <diagram name="Page-1" id="NFKk52ogT-PZPAvVQfuk">
    <mxGraphModel dx="1042" dy="707" grid="1" gridSize="10" guides="1" tooltips="1" connect="1" arrows="1" fold="1" page="1" pageScale="1" pageWidth="850" pageHeight="1100" math="0" shadow="0">
      <root>
        <mxCell id="0" />
        <mxCell id="1" parent="0" />
        <mxCell id="mOEJxtWCVfkG1JKIOJeS-1" value="" style="shape=image;verticalLabelPosition=bottom;labelBackgroundColor=default;verticalAlign=top;imageAspect=0;image=data:image/png,iVBORw0KGgoAAAANSUhEUgAAAlgAAAGLCAMAAAAs+hzyAAAABGdBTUEAALGPC/xhBQAAAAFzUkdCAK7OHOkAAAMAUExURUdwTOHi4/Hx8ufn6UhKT5mam77AwERGRl5eYD9AQd/g4ejo6d3d3zU2Odzd36eoq+Hi5Obn6MLDx5SWm4mLkOfo6YeIkLCyturq6+Tl5uLi5PHx8sPFyHd5f9TV1+fn6dvc3tXW2Lq7v6arsejo6uvr7NHS1e/v8Obn6YSHjNzd38DBxWpscY+Tmd/f4dTV2K6wtYCCiYOFiz0/RJWXnX1/hiUnK7y9wbS3vH5/h7a3vNTV18bHy6uus8TFyJ2gpa2wtsnKzkVGSkRGSxcZG+Dh4t7f4N/g4dPU1hcZHN3d3+Hh4+Lj5NLT1uHi4xUWGdfX2hYYGtbX2dfY2tzc3ubn6OTl59na3NjZ29vb3c/Q0+Tl5tDR1M7P0tTU183O0evs7e/w8ePk5eLi5OPj5enp6tTV1+rq6+3t7vDx8szN0LO1ube4vdXW2OLj5fPz9BkbHfHy8/T09LW3u1lZYOXm5/X19svMz+fo6bGzt7i6vvb3976/w8bHy7y+wsrLzr/BxEhJTtHS1UNESUZHTEFDR8LEx8XGysjJzO7u78nKzR4fIsTFyFJTWcHCxhsdIE1OU1BRV0VGSltcY6+xtjEyNiEiJTQ1OcfIy05PVUBBRSkrLkpLUK6vtEtMUUxNUhMVF1ZXXi4wNDs9Qbu8wLq7v1RVW15eZjY4Oz5ARCQlKDo7Pzg6Pj0+Q2BgaKytsnFxeicoK2Fiad3e4KqssLq8v52fpGdncCwtMW5ud6Cip6OlqWNjawEBAqiqr2lpcqWnqw0ND5qcoQUFBgkJChESE3R0fWxrdWVlbnt8hJKUmZaYnXd4gIKDi6eorX+Ah4qMkY6QlYaHjvj5+aaorEdx3b7EyWttcDVaxiU8i8XL0CZFqSY4dOiEiMan0FhueBwiMXnS2UBbotHX3Cg0XyQuSF97iM3S2J203DRLkx8nPaeQsdd8gW9WXKa/59Gv2Iufw8R0eZpmbLBtc4RfZnTK0ZeDoGGQmLmdw3C6wmilrnuLqVRka8SvzLrE0LanvbMMHwkAAABEdFJOUwB64aDHHSoEDytmQzYdV0HVjUmO9rIxZMLn9vJ8ULjsyKC0/tz12s/2c+rOguHy6Hrs08O5n8Xulbro9fLq5t/T95reH103sQAAIABJREFUeNrsmt1vE9kZxomziZ1AQgMhQQrRSs2iFIlUIQJBLhCIFWrV3VaVdm2WBgnPtsYegmrNEM86GNygUqGRihQKUjeIJELswqJlvVaAWJNY68gX8cfY+APJF77lIv9G3/c9M2OTAkvVK+zzMB9nTsYO8+R3nvOOx1u2cHFxcXFxcXFxcXFxcXFxcXFxcXFxcXFxcXFxcXFxcXFxcXFxcXFxcXFxcXFxcXFxcXFxcXFxcXFxcTWE7Ha7wxS0uSHcu//fFoejq2/7jv7+0dHRnTth09+/fXtHF/fo3bzr60Pr9hwB7dmzZ7R/x/a+tqb3zu5o296/8+DBkZERPQsqkXpLcHzw4M59g32AF8fnLd4dOXL8+NGjQ6i1NdoNHT167Pgvj4zu6OuyN6sxfYP7dh4c6e0tFcugPKiQN1TOl4vl3gNj44f2DXK4XusdWDeiJ5M6jsZineAwq+v6sWMwMptvYNodHQQVwymTyeRgYcpk4NgiLA9wcbY2U7Xv0FhvL43FQqGAa4G5BkuB9cDYLPf2kndNNCvaO8CZA+QK4LSupWKxWDrOlE7HEomUliuXkmvPV3RIM4AL/OFoMTGqCKhyKZtcTpYyUU1LpRKxRAyVSEWj6zA80dsCDUxkqymo6hpEqoqlbCmfyaWAqEjkYZ0iSwhXKlNcrbx8Wa1Mr2TLgB+w1efgYeUA7zDgM4Vy8sdLlUolPJSPxtJpGJZL8aWI4WQkEkfAcsBeGRAk7xqdLUfX4DhQlRx6VgmvlDPRNNpRjxXjKpbI5fXwy1MvN6oXVvVyLhHTMmP7mp6s9p0j+cx6LpMv6qsXK9XqlcqlJHgIAqwMIyO4ROAwrWXypdXnSWDrwNihxo58e9c+wCq7MlmpbmyEl/MZDcEy7GArkUVgZS9uIFjhp8vZQiqeyJVHupo9sDoP62UoHgpFfXk+XAXNXNQzmFhx5MqwkI3PSDydyEHsX7j4XC9CAXsA0Grc0mr/WKacXZm/VLlS3ahe0vO5VN1EaAw4YyrM5Uu3zxJY88vZvEZgdTQ7WC0VvVygwFq5fRm4uh6ezOY04ipi5ZU5G8Zj65n88mR4cmi5BDiu58YH2xoytbr2j69nitnloWkE63x1OpvPpMCSuriywILRli/NV02wytF0jIO1xdEyw8AqAViYWBUEC6ZCqifqBmgEg38JwUpOhi8OLesleFk0Gj002IBkOfZrqSiG+NDkNxU0Zb6EYLEIf3jLEBtsQNZ6oThUfYlg/YhgwfArj/Q1O1g9dWDNUGLdLq2nwMFbYGC9h7hZirPEIrCKUJtpiehY41lod4zDhYElAFa4cr1aDa+Wc1oEfJgiM3CIxaG6SqRSmhaNamDKyuWNs3BbuKqX8tpSPMrBcvSEs2Uo3gvlLNRYVwCsy5M6RNF61JSmaQm4z16isfowoeX06WcXnyJYGFkxrbe/8SKLgVXMJtemv4Gp8Mqln5aXV1afTl8I//OrM7/94ncn/zwRcAaDHq/X7fV6PZ6gKxD0Ov/w+Zkrz+aT+WhqnU+Fjp7LSV3XV+a/vX72syef/PVLZxCscrvdPp9PVX2qzwdtb9Dp+vTk6XNn/jZz+cL0N19XZ26vUGLBnJlqRLC6xlOJXFFfm545f+70bz4NAEKqJCuKEgq9ePEiRFJwYx2FFFlW/EpIFtXA52euzxzub29r3s9JHW3tO3ad+v0fn/wliCzBAAx6AClB8MtKSFFCoToLmYtooywJvuAn576+sJot59KJRgSr76C+9u35L04CUR6P1wOjzA1jTFUFQZL8kijB1i8DSQrCBkiBoF8S8CdgHdgkD9h2t3a2NyVajq09u4ZteyGafF5PMAjRHnR6ADDVJ4gi+kZ0MdtkP/jmFyWRyc8MdT/5anp5bbSx3HO0d/fs+jWMNK/HicIJD0McuZIQKrJC9ssswZQQOUQ/wUUk7OBnoRchabi7+ciyO1psbkFQfVQjYMEAXGHJAAZKop+hY0hWZD8Zimgx7wSAD/wLhfy+j1pbtjZO6rf37P5wL4AEbgScLtgEsZZye90qgAWXjCIrlFccIqrIGkEkZ1igDXe/gzN2R8d7one5mPYWGxRQUEF5Ma7IPYh9NBAD3RiPNeNghPoN5yS2iogWc3DAtqu7QT4qdbTudeNIA65AroAzEAhi2QkVAkyEIjIF6S1jJskKmwpZrIMlhBSeVXPGb2vd3vb2R/aA1YkP3hPt73jrn9lud7R17t5rFObIE4zPIDYg8H00LGm8hZT6MYk2SWwulIw9TQ2YZYpi62yIzLJ3/wr9wAR3GoIoR18QLEkyeZHrA0s2yJIorUQki/IcGVSkgd09nVu3bqtpa7222ftOfHxtYXGBdBe1wFZcFhZqx6SrVvOq0cNetMDOpvcw32wBG4tW76aexUVcWAM3i0bvovXzxdlFOibNzs7i7oP9jratrxNdWHdL6/CAwPKKwPIGvezWGe4DCSzLtJDlHKGFlatI/mKhKrKyguXbcFsjgNW2y035HQA5YS4EeTDI6SZZMGpPPwU4q7AstlieQ3XP2BLYjIj1mCgM2Gy2j4aHh23Dts0abjlx59G/ZueYZmdxNTazJNY3Z/11We8s+5PPmn9woxcac7PsbUzVNTdp9udPmbuJ601qgeau3fm4v9X2Zg2AR6o5EWJh6sW7Qiiv3EYdoZi21YOlyGw2NAYm7CQW+oTWQEsDRJa980OaBiGuAi5gy+V0OfEYZ0K4WYYhZdzJUKkgy3V00e2NJKgCUWVKFK2Mx8KMmSVZe0kMHH74+P61Gw9u/IxuwnKTGijasc1N1nOT9bxWD97QoqMHD3BlW7beYD3meVYv6O4PV8cO4zRvVkVsyqLhg1ePglpUxcAyFoCK0l4Vyby6uMKddVcNb+BneYVDUzDeHE1Thtvff67adht55QpMBFwgrD09bC5EsAQMZ3ASA0umxeAKDfLLlrdC/Y5QM2LM6FYt8E6X7j6+vzA1dWvqf9C9ze17/9X9Ot16Yy97vGIcYePWptcYzxzmfvjHVLL2n7cuSbQ2VmKZQrB8FFdsVBJRZFqorspiFbwRWaKVVyjZ3/PeR5a9Za+HceVyTXwJK5HlNSdDQRDN4DGq0Fqas8zCSkES6giq7XEgq8YOG6wlfpa9+vj+DfqCUgQ2S0wRq2GuxqZ2Fh1gO0JPcdmWes229YUn/M7TEj3vNc+n76pEXnlzalrvxX5HnHUYvzIej9979EhbcdMlqQZFdVerCuwjdeTKRw3ILh/5ZhbuJliKsql+Z5kn0o2PQa2Jl2zb9t5/LvoLL5sGJyZgQeGDG7yvgTKBaiyJgt/P6nL2OZ8SerWAR7LEGkmm/eg69WHLx5o+VTz109+/+34Kv6xLou/s1m3ZYrbwhBhbUylYjZfQy9iXfV9VGr+vyb4ETIdp6qt1JGovSph9NdFvS5vn4a9K3bpzv3jbw65CFXzmBaq1oUN55WPXriJdeK1GKWB+oEwfuVtMGTUWK9nhVCvnqYTAQlVqfc8/cnD0MKycRBWUWBPsppDIcjMbRSOyZIl5oshmrVBzSBKNEUyv8LqcqtcnwKr6gtDjCbh8qjcwgX8fn/Sn6L8ffx9Zj+KzbHwsq2kprab6NojOwj0+wrU2rK/+9BT7h9LwOTkuuP8P9db627Z1xdEWbYJhKNAABTLsw75kwP4QJ37JcRyHTBwlGCVZlojBkshaBFMCWx3bw1jNkB+zVElBHCeAY8mWZ9ltIxUGMhSYbA8O8hCKJmg+GEP8of0rdh73knK3YetHHb4uyXtJ6urHc879ncMGH8EC3m3vx/ehunviCnSBhqjP0tyferD9TANEhaKB0XgoFg4rrqKmw1Fbc7VAIBqKB7WQFg0p3f1xBp9Lnin64zTEM0+wf6L/OHJBNFabUaUVGYfk2+93NrDOnCNDqCCsEkEV/HcFieNojMc4Lr16SRgZSr0uXkB2tshTMJM+skiMvstRRb+sWfExsHs3VSPcY3cPu9dHgzZCz/ljubS+/hi/+mk2m1swwXqLSlsiEQD36QidBDmkWe5R9aas2+TqW43G1glpbPlpBW2nRMOGuDiBuy37oP0KWO+wMVWs7uJfvnM1GhjXzg/HLlyN9d9QtXHbHlfSw8HY9XEjsZO+FIvyKEbHrtA9mgZx5JjOCRtI42weDnATfiuZt+GmxtmOphxOv8PjQQGsNLENGJEQIZ24UOoiaiOwRfqKtqYQcuKZe4CuCgycd5MDfYmdMUMZtseMYI/Sd8G93n9Rwx5sfbxUqd3fO2y2/dUnxUPMloehZtPDmazf9HDTFOBpeJuTGPPh4mPXq4JKseHjr+FdpMG1GwvV+6shsPW344bZPZIeS4/06e6YYV5SRlTD0Ma0ke7z6T7tSrdNMRoOq5L/AOAxpZPFCOO3Mclvo0G2MOT7WLg1dMHW6x1NOfzsV1HmGcBxBzOYxpiOHUW6QaN8D+Ji9JAcCptJ0VFtvWQKGpkJLOJjTLd7IN4TifaPJccuX/itrdy2L0WMG0oMWXy9datUyVUeNxt7wmPao4X3Hsk9dqjQjj0WlmpPWDWycHwKd7kg1+y2cTvhjIl7yAqy2h7dTNznkXgM/87y5o296Xpl2YUX57bmtHb6ogOqDb/ydsgat3e6HUvrcS8Z10b6HFMbDpMaEiscSpuempe4wl2DgoWk4wlYooflUDrE+q6jKYf3zpLCAkgFR8Pktit22pbhLowWxn2/krFDpIPpMQ+mJYvcaURM2EF7PN4TcqCrr1lGekwdcUI97g1F0VC1tf5aquVqm3v0SdT+5i5+WCCGd5vbcrMpx2w0qMMVjCJ3N3exjVzhERrfPaTjm1SHFkpK5KYPt3Fk6A8/sd3mJiXG0och27hH7eSXk3RxuiOW9vfv52qT+ODK5WDkqmH3tZBkua1b1xR9OBIc1vSrVujmiH5RGbEt0kWm1ElJhpFQWgwqA7soKfS73s7MuN64U7zGneu/n/6AwzjhYDgcCAdVFcPPoK4U0lpRCndpPokgQjbe2yeoPlGSVhFK8bQNWgu6PxQyWy0HfFrT1AzNtkMIv9bn9UqutrI4MbGyggvJKi5ISNJ6ZZVkZcU/y7v+oRVsSQdXRRUoT+BR2p9YXRGnREOxElda5aK4Mj7HhHiWCVoEVQbFxYlapTRpO4Zp6THNsgwdAeIYrRa+YrGY7pi6acEPBf+dohEiL4ZhlZQwSwq7KChQtoKGz/65ZBBdzRWuFlEOneq/nzrzCzKEiqqGEwAuFSyiQqlEmFAURRc+FgVjGOffr4tEBx9AHqflxb8kyhzEm9PSr1z/9OYVo+WYph99bd0qA7AKBYrK3F2+c2f5LizLFAyclOHCu1Ck2OAknYYjk5MU8lvGEODkMgcKZTRwDs/jzjK0X8Z2eDmszxFIDjdS2zsYGCrcpfsuUxCSrkiLjBzNY5ioMDc/Pz9XmC+UMjONtCOIYXTErZYTHfj0T+Mup+pZgoNxRMKVxbhC+PigovwQSmDjnAaR0dBGW7RBjDgHaN+p/vt7H4qMhrQaTITBx1JUCheCulJUxJUSpRSHuOYR50nJJQsTaJ0YTFOnCrsIAIp/vr2ez9/f2P6d3mpDYmvgeSZTW5hemJqamgEpwgxLuVwulqvVcrVcrOJUhp1iuVjE40U8hgI7ZTyDxSruUQM8xgWuUCxWYRfqzGBbvGCVmxZxYpmRc5EfAB9hZorKM/BcU/B0MwvTU9PTk6XU/i3F8QPJTqvnabFeqy3NfR1tSVrKZ43ZiUoymghdhnBBZVRIulO+4LsrmLI4vcJEcHVqyPD0B7/mPBk1DaYwrSpIkapoF4NR1lsKJdly9gwzWrocRHuMsh9U9XKNGESt3y9UJp48e/Zia31w7rOWl3JjWle+ymZq6ygbLGv5tTzO+aWlvC9LsLdEx2jLR/ggbcSWi/9b7ssCXXFJXgRlzVvwOTbW1jY24NnWNx7AIz4ol1Lf/pk1FjMt2tNUfffFi2dPHq+vfUQayyc9LbZ8YixDA0Peo56TtIJg8XUv0uUKIhnwpbEOo/rW2z/vRGS9fw6Qo6DnDliKJBJhNRhURoMwPBSZM3ZMfAtAacrwo3UOMIuotNnWpZRT6mUa4eR8VNpoHhwebjUPnq5m6p8wM2Hhm7zzZTZX8/5b+MffCHn95jXOnrx6/Yrle5za5Z84/R8C1drl1fd4zbY7wO3enJBjnI49xOJUS+1+pnoupBP8trfwBD8wbR4ePKx/6ZhJDJl6mWo8RhZhQOFSCTqdoxEcgSAwxV0NrYHrSuLelaZR8lnvdKAxfPesQmYwCCPCwGg4EYmEVUCYkobxIVnEGMaiKRodjUm1RY6W4aklOTZsz18zycGwBup5pAKIJTiYzSwNOJTdDL1sDn+dqZTqMOFcKtWOX/nyHU6+vPzu5Un5BqdvaPkJAo1+JHBlX+CeLB7sjmulOkgJ51p295N+9r7hlzkHg5MHTSb2HzUXa39pSbfTw15SiCEy22U4nqOICCLoTM2FLo2JA3FMNqUvDFidyZGi2YEpf6ffIkMIDjvYwUTgfCQyGh6NJNCLjwC60qTMkCxV0IcnbJGvpcvUv2TSHxdKiKEpIC/CcLcz24+QTtjF4N3jcnabA2NgD6w/HORK9UqtVhGSOz5u11lCW/0noL38d6D9VEydQJQPKURVmx77gR4MnrBWq5UqE19eNJn2DDkfp9YoALn/CEmJvem8YhqCsMLXBlEmU2xE7oJMrNEo/8GNxwhHhKeYSIeIs1VwMYfLjct4JFyh88isU2fOiRSsYDARCfRHApFAOBAAHz5MkehR0F1KGipgjoOXnSAoYgaWSHcQLpUp4vXck9YXueIuZRrgd9SLu4V87guLIh5u3Prbg3p+KUeSYclmsylcZXtTvSkQ3M9mM1k6AwvUPKocHdWOckcsP7Aci81/EzpHM1eV7ah4dEIyciMeKQdTBh8wt5Qvr15IhtgnSs5mC5wuQZ+cLi7mnlshL/uTqQQva0HSVAAW0Yly5IfqSaOPxCjNJsYr/gQRjWWcbCJa0E4js979UKS4gymMgPTDEgCFFQkHIkE1HO6PBJUoKGyMGNqcCMgpWtSL7EYlRcqyF6dI0udg2H/OQaawyNQQkUKzU9lDR6QCWP+o5KvrmSwhyZMUi9gCvLp6U12prq5ekq6uIZhRBgeHoHhv6B4W7g3ChPPfcTU0ODSIK6p2DwVq0OkhnKgpnqUrdeG2XYbgll1w6y4GNgsgO7c+U14bMXjQZlzO1GdlPtjq6uz8SnXBNmR2IwZ+SFX5Qz8fTXFKXFYo280mA0Cf9WhkEDhFkBQZJd3EBVeqG7/srI+eTr31G3aw1PQogupiIhC+2B8IgKM1Otp/MZimby6Jkg+qKo4WVayLZTUdjcVDkqLxOUB0VXWMdOHrGZpdm1+dny3MFzjTc3aiNGe69KlizHyeqc7dYfTwigpDvb2pf1FzRb1tW1cYWNFtWF62h/2CddgfubZAy9PtTUImBQtUosTKQheF3kKU7UNdTTJqiTDoyBVVSYlNS4AtkxZiNcCmZEETO4nT2Ana5KED8tLfsT3tnHOvnHTYD5gZkDk+VxSpy++e851zz6VguONTBiwJzvCgCYIB4QVBFXGhgcAY54zUDAGDwEHkMIAWagCIUqNhE9NIA2fCn0wDDQhcAzUjAa+BB7yqvJtTu+mEte1a/2KJfNnC4ieP9qiylWpYqXy59UGJqkXfhFG9dJqaQimL9W4WBkcGTffDDnTWsFwbyQUgTlery+3pumli85JmnSln+Itz78gElmmVM2nYZjJ5s5xOg7lKp8qenS16nmkVZH0WVgC6BCuXchMu1WzhMmk5k/rnq1QqqYw/ogeMXKXS2djcrFQ2NzYxm3l9v50ApaCRefVFsHZvXWjOONQ0PwY8xb4Q/lgT2thnIAAEQMODscYFNgWgAYFzfwwAGIMgm0IQelNBaSKn50QcNSDwU0GEMQqB4HEshDNGTSgFDk1MCQCrccBYGIPdGvuOA4Lmb+1f613KycrjxcOH1esblLLdvFGpVG5UttqfLi7I1b0yCyX/p9IttElFDzFkYCGlicii7sQelcPUND30flnMSNuenO0oEhVTJUul3FlyhlNHaFrzM+l0CrGVL+fh/1TKxLXhZJmQbBmmqtNC42bSYgvDwDwq9pW38EZJO5l/7At6PYFX6XSw42u1ZhNToWvPWkM7S0us7asvwp3vjrhw+qEm4j74vD487LivCQYCj1uMsxbgIG7B4++PIx62weC0xlGEgpAC4KDVg6ahRkIUDgPO+yD4QwBWfwLCHgkAx2EgNQF9BjRBO+CiNwHItgGlY9S0fB6NJwIFwO5E00BgDAThPz3Z71/OyQU4OQBWp1mjn1WtVuGnbQ3/UgITLitIESJZ9Y4G4OH4ngZM3ximjugyDS8rMwr4/gbYXJr9B7UNZ3gqCJeOkYqbyeYtnqHI8Je/ko4QDFYmnQFoZVLzKdhm0maxqJctOZTUAceXa+RxhEGDS5uOFfKYUC3mXhdilWikEg31vGanU2tSWh1z2bsb37X2gKS5SDKuHveP/vY9eiPYHCJQTPoooTbOuTjdFGd6UzkViTTRJqZHpRNKJ88/1f5kY9O/2RuXJgmcJcPbwvvj/slHL9uX65jWs936ycPqxi79KJoyWO5u732Uw5UnKuFXlLEfkqUilotAHxkYD2GOsJ5LfX73xfPn39/9fLae8+RANXA3Xa+4QFYLKZhalEF182izzo4zPPdrW9J2y8pk8im5zd7Oe1kblYUCDi+LapUNPOrG+ysXXOocnE90yZYDyDBZr8sABuKYEkXKku7r1c4GAgpnXnCSpfK81TZtl+a8F0/2jj+9+1hoQlEeRo+ST0H0UwERgWwpkgKfCrBzdXhDQPoOeIroIOGmPvhaOCVkjEiZmMJP/UXYAkgRtoTDwwdfnHQv1emNDObCycPmDZpvUjNJu6vJJ3UCFs2sIiQ8KpC0ySSZkk0BuLz6e4er8cGjgyiCQ7xx+G7Og9gb7b/0kUBds56JS/PJJRK2JNHK/eaMOMO33/q9qu2zyvn0TGp2FmCVKutgUcj7mZRxQJqOvArh89evGo0rrqLyrilJAoKMlotlSwunqZgiMSxdb25t7i7jVN5oAP+S5sv2sCxXWOuLh91bX3wDwPIDpgXgcJgP8RgIgvkBuKeQYRMQIPCUQgrw1EPwXgFqQtIwqZk2cRJ8ELQYnKPv8+npUgANcPTQAY2vvjkAgTRKYNjEHB+ih8DXUMCb0rh/69Vh9V18/YDnGtmTh5XKYEQ/C+cjd0eroy/r7nT5SZGW2AMibDJVZOtlj2avvJxE/uDa/f2jozv3r43CqPf0ShF7UfJYWsuiZ7Ngx9BuYfxYnKalcz87G5EhLiREg2XNF/IQBmYIV7NG1jYso1CgFJbElmUqy/THlcbHDbBZZLKQiFqG7sr1Yi4qvWxOpvmo7hQXVevNnTUc0YCqAexJ9WW7nSZPqpulk9qfXgGwgu5Y8MnIEc5uj/NJ1+Ha8iTik6bGnSbwnkkt4FqzHUWTDYBHDYVN0NTaPOpt+hFvJlHUuw5NlT0QOj5nzQEQpevA16ujCATgT9UBcLW1OBLdXR6FHWBuo13UhFwMBgDJyjgSQ9D4lZhHQ9D4VaB5rcQRwfIYCFkiIgLWeQ+raw2rePxw80Yywl9FyBoNVne/XKAZMJq7x9xfMWtjp9HqFIwEoSON4jfJQW/92bP9+1gm9vc7R0frk4P2A09XY5UCIjiAGzTzBi4Z1rECwJZrhnO/PRMzOz+nuRwX86LI3GdvX5y7mC4WwS9OESVts6EYlv7+ysdLjUZj5bwcXYi3gkQclUOg9fLqREKyNiW94Pub9zoj2f+0IbBSZqGAOMwdVz5DYGlhwMgIocDAUEE4FoC5CDWmxWi6YhBCjApjR8jwMMYPn2rCacAYSo2mAj1BER/EiUqIlcb5HwJc0IcrgwYMJ2pCtFiogZvS/FCL/JuvDrvnPeSVZr54/Gh1M5GjhbA1WO3ezJq6BdBCtgQDB/xZmWgEUdQCGffy04Ng/emdHaxB26aSr/V7+1+HB/+EMyncNpQ7gEG6oM9YNOdB7xXBICCXOxNlDljdRwMFrFU6NZO6PTs3pxfV0i+kXVZBZt/pALD5cKWx1FhaWvq4cUVXpF6Gyi45S1rkahj2gmfq6ASxMMJwq99ex25PkgFVMSwDsPLWPHVd7njzh1cPHgtk7MSQ2eskEpEtQBiXrEsKTGnEtIn9lyATWhpTJIl2mQaTAjWpM3CXavUZuiDueAtM43Qf2vSGwBX+DoB1wSarkveOH22tJYQpZbG2RzezWIA7L6mSZ0sqAcyqYEmGZerv7Rwkd54grABXP/64RYWF618/6T5eu+RZxHVpgRT2pevaWaJeupxLkxz+D2dgmeG5dzycyLEQVzOzM7fn5tK2R57PMAs4pUNmyyKHCNhxz680CFhwWLlAkaLE1ikXUywVhirgDHgaFc5Xv92igU3AGiTLz1vDjJWxMC1YOl774dU/DuCxa+oZaiTDo0WYSTrPKNfOJNQEBo5MAY+pBKpUC6YggqCQZ5BGo++gL9NkfKCpXLv8ankJbYptPFXhaRoPyoS/MwUWPHPLQIu13kmIXo3kcTsBi4UossqFvAH8Xhp+6iA5QI3MzuPl/Xty2fX26r/+rYC1vvOk83j7skv9bciexa40vKyXt0yaqPUUsur///z97beosg+rGWaAt6fmLlpFTLZQPwCayuUpycLBZrkffoVuEGHVWFpZuYRjsOBaroygoR+gT+nFR5h7sKe+0QJgXduTrjAZSGC1U9Z82oLm0vEGAks47ViIcRvozBDI1ngPfNlej4seEBxnMIamQSCcBMjWuAsOa7cPwjJodvvg/KrAswctLsZN4FijNjSRpg1NNeBPyVDwuAY+M0HNMri44ZDQR5E/AAAgAElEQVQDfyIBvGA3FKzV1oQ/irloYdMgFLwPHw4S+MykBa55CHfXawHtv/UBAKuIXNLM28ePdtYGCKquqhvcSm5l8wUYkfPWvPcf5q6uN43sDKtbrbpqq6haaS/2ai+2lfpDBtMJU9C0hWo12toZhpBU2tmpYnZnbyohQK5FKV8CBHiNDRLGfERLsoon2+y6ZE0SJ97GWVWJtDcRN8kviCJHvujzvmcGO2p/gLEwL+ecAXx4zvM+73s+HEvomlBVJo0hTSHJGj+YNO5uudv5u09ns2e5TbGFv7xbnDzBoDY0d8DqLFypJ4NRPeJuPSD1euGNt8+6Mzz3LjtCdIXP74MX9FOOXfPEk4H+0eGyyB3qgJAW+HBxcRH3D+lxcfFPBvUCcMU3PuvBvbOyjycgvsJRXbdTu1vofw9YnczDCsS7YoTZFdYFsCpVyotaslWhBGlFBtSAp37PEsa4Bxj1ALX+ECFbz0EJYa7XRJtBHihso2obYoyNTlaVexWAZhsIq8HoExzJqHYYRjBGeEMysmistoGe7BB4ctAm30OJ04bmq6HxuC1Lefp047YE8b54Y/t3MZqJSQTi9ycQj7R+FT+8/nVz+E08SKJKN23bYL4y3KHJ3GXEbuwNdsruEvpu+Wg2OyqL2UYU3i1ND5d0Q9E5EZ3AhRyF6+G4FlCItMJimmf1zE9Gv/kOB3JRhbLtfv8f/HZYZyJn3mZ5BWxRJkunxJ4SDcBlKgrNTQcNU4kqHOhE3KQ8T/Yk3HCZntu2HqXeBGOVxQph1u7DzH675o8GgiBG8/L9+soPXwFYKvugecpIOC1Z9QSOfFIizdtIsifIPBF0+nLhAU9E27zk9TbC63o+c94GyBYNxYeSXY1FwPoozkJIIWDltik1ClRx7n259s0SDcaAiZ5k2U7LkFhNaCatEfm0lr22JfZ7dLvFZ7NXL2cvu95ZJuXdSvXPCV3zlpSwqKW8aiIe9kc5PrIFss56yuHceyzAgz7fgj9w/by55EZ6wBJ1CIClGNRPGEWmLnIOQmu5N1N340ahS70qJnBiLTuiGAg3E6mdLVo63hAKd9AAsBb0aBQXmhce1VdWACz3y/a+8BC+yJB6ypD+p+SUIXlt/q/B88ob1DjkNhZSnsQ5v4aHOTEtLVviqjmaT+DK4v1G46KNHoFrI1dYHGUaQFQmRVM7yc32v5eCuhY04AYNJnoFPROktZO6oujB+J1Jbmu5624NAmEdbx7NnjKy6DSbq1sbTwwaiwnPb4CwElqYAiEfvpEwDVZaVbL6zltnnLDCPJHj98MNntfiQjISDWGYEY0bhsJjTjcVehpeouOkP6aFo5988vFfLsU1hVnecJ0noy4hBhlDLBYzIGITmd1r6PdUirYrbG93GgdObQGQBb/7AKzHK7cnFOtLKk1Cy2N4LzEJXZXUalOmGWD4qSYIpAmHlHUsCQYac0lflbNOXiJDoiqp2UeVk0fVGNrIgQccc1UeVWOZS9TxWJUsuoqMfBNVfbwhG1WqauZltd+XqEqWqn1JtsZ4nWpfDuXfZ1dIPK+bAFY5N8qUxC2dTK51m/+xA37TsJnxuUNojQh600SwYup/qzbvAVJ8+la38HL2qpV7OnvV7c4pK5X/awIewhCDVMSWPOURt/1GhI88oJnp1Td+epZzo+feJVwZ0UBg4fr185GY5rpAlptRJir3F0abkbi06v/HP79/srWZK+Y2yzv7t69cjF+OiQ4UQJxnJiKcaqbZegjPaCJ18156fS3NU7WNRqfxRbNy3VSCisKMxcDKk0KHVJfyI9Ls29BPDSekOikYKSgqJwWNlYIwd5JQVGky1lBSgkhqrldVuTQMhZp1aKM0G1VUdaDiYagZMopkDBAWtCDhRtshtVqAVO+MIL/WUDXsyGo13Q+FeijJlvpqqDaAkUHjdg9wHKHEQRCQff85ayxyUUFEhZu5BjCVTCcJVq21Qv9ftt9n2gYIzUAX0iJvsD7GJ23VNJb2p7ly1wVW8fjFi+PuZu7V7FlRLOkqL1/dmd5JKKbJbjTC3lATcbZux3zo3zBvTo+fbcp688f05RtK0Ee40mMUCdINXWAqDBIDfyLFhtBUxpL++ZNadjrZm0ym042Njek0ZI27Dy6uhjWTnCbnu0zN5TxBYHiw7agvljzYTxdaa8l0KVVKZUaZq/0hdB0PaALWD7cnkpy3wE0gCBhgiCyoK8uGRYbMEytyNn/KEG0om8ptwD9W1ZK4xDpVcmJIuMp9wSwbuJRKqCrvVsEQ727hs8j0oeS8+FAoyhNjPf9q9FGMaVm3b+8Vco102t0AWS+k1vuf2wt6WDd4R4rGvpDQRYPTUKJmr3pLnCKIsQnCelkAfR2/OJqfGle+2R7+JkhJLx6jbnjIsXXEDvuCiKFoxsheWv3VGQ4Mf/ZLklRKIODz+T+IxPChI55sxyiDbKdElkZRoRnUVq80JtN+LVVYLl+9t7Nz997VrVyjOfm6ebgaJrZCe7hNDgc1N6fKCDPCtrJavvbZWqHQWk8mS+lUqVNKT4t21DSIFC9DYz2+P5G8BNJcJ891jcwL8CSRmvLEO/wVayw8nmQwqQRPrFO63lNLaug18X6iqE6CBEsKvRYEsO6nBReS+z6o2gCwbox+b5OnN6LhK5NeGi5wbZ22z7YKa53BeAXxIHUZiXuMS4hTDEpdMQ0Kdlamo1veKZX149nRJlFXCwCr8zZr3Hfq1pcsz3hg8twi78ij3HPMBrJMLSGc4dkNDN8iwjIoMQqJBfYWSGAWZr1u8N0Qwj18sDFOXjug/0NL/2P84XeHh4ffPdy/V9n7evmPtmA6gwNK9oisW4m1FGLv+IPK45vJYr1AO5hLmdqguvd93B81iLMuPCoKYBEnyMQbzFj0hH6x4dKFLMhMGJZseUzCZHfSJi8Mt8RjI1ElzUmIq7hkTk2CNE+9oMRtLO+VLUAv/+XzG52LcV7dYkQ+aFrt7WSadlXTKbydirWOnqTAWjOjRpRcILlDyEkaRUrkwd7mNe+c1DpcYEscfvpqdpwTC7eXt3bVh5QQdSc8EqdyzhpxlqLTlBk5w/fePqvA+vkvwkJgBfzXtbjO8a3OEaGAE3oFw42dnHbpIJ9axkBLprZ7vVql1ht0MulC+e7D/aL67ZbJJKVzulkRwoAzgi77hcO/7bVyo3qxvgZvmK5V2pPx300/xFdQMTgqfATxzinIniVZwzHnqCRLiC2ZpqWhsRqcDoV+KkFHZyrCsDIVNE5D7md6IXUM1aVmoISayawqN4aoIv20PYDGaqHNaCip/STepzOgKWcYgwEnUVW5N4TGykB1edIqVOlJlDJljaXmBzCcmrohXKFN0Qn+1viTSdYBY9HZzfV6elyd3E9QkhhUxWAi5ofIEvtSor7InemtMi3OrheL609fHNFhvOjUIul3cXLFcvlOtsxjWje8mQyxtISQDGQFFEoY8v8KOavp95/86Nc0axMNLCwsBGNeTIdeiUKpAyIa4QoSyzSCSvwzq7CbrjQdp13rDQc0oT8cViptp5bbvRWaHF4wBMGh/wiMjChDj5icZNWU8KX7e+3KcL1YbLWSPadifftFeCEYDCgRPUrAenwIxmpmEQOOwQsI/aQqhX5OFUGaA2A5FB5yCb7easVSeZUpDMkSBrjLQTRXrUFftZtoDENuA45ZKnFgVGt0eRPRJa0FRYnEq0ObaJyvUFDZBE+1ab0oGsP4L3NX19pGeoUvliWFQro3hfYqN1vYHzIfSDOM0MaS406hzsy4dtNkmAuL6mLpVkjaEoyrWEYSHgkrtsCxLKlETBsr3aS72rW869bB7lJya3KT/QUmOOSi5znv6Mv5AxbGvMyMZjSvzpzznOc555VEA9rSIwPdQ2JaJbukTycw1qdp1uNNw/xiZbBSzdc3sKC33y0MKkraBJwidwXzcmzD4poR0H+Ooa17X23Bmsiw6uSwauE6z3Bea+HiJofdokpzT7jWEfQqUw5wWmCGFizVgCODuHNFFcNrH/4C1CjHQXUxJKOQ20GQcGBWMAt68Gyb/Hozf7yzXaqgxzyLUlDCSuBt/Ha1sr8/2JsjuEoGSYgCb7bQPMYRVbB8lCsvLQ96pe3djt8i6/QO/DlHUTWHvgP99mloWIxrmH8ackdjWkkMLmnCE/hpcjAmvWJjQkuSpncBO4l3eZExaxUbwa8QdUXG9GyEMdbQsCDn0e3J86f9h97KdsNvtqpefFC+e99xhZ8GqnLQ8aRbzCnTRKpz9fLjHe67WMu8fvW2xmvIk8fa2CH8LpbKWT7ebs+FSN9Jhl8L86Rct2wuugG+EGSGv7qaaylfu36DoDWU50BNpzgZZsxoDQEWJTIENy08aYt/KDz9DuGv0fGbeSYDKb2jEJApdrrtk8rBN/MCi9FMuiDkXYd5ez2s53LM+ejOoFCtdrt73fLgoPTHlKLKmqzRrvv/ffCSDGsCqkvT9HqoNl9i3idh+IhVH22F9XjxsfVMcfGj3CByiQWVptl5PlGoSAtdQGLDetKAYYGtNA0teTLoP4wRMovHHva7Xy8lbddiGAFgoLu2gaYnmw3Mlm/lyo+3uJ+nvnFxfpbh3yeAodWA38VSTYfbu7cMJ8S4vOQPCxrwV1xSsaAGFA5NiDtXcvmZa4DulgF8FVhpR2jMNBEhVrJdRlso/qN4uHRUPVktcXlI3i82s+Sr8tlssVgj+6p0v9s6eLRkkknZgKpY9sGGegEfhkm2cPLkvHJU6Pcfxh/2DwbLdxboupqqktFqt0/rMCwEm5AOFYGPB6wexkW820bg64ahsAQZsYKY2A0DXwnxbpcMgAeVAu3qcSiMSzzY5QHBpgoFtV6PYqIYhMdQKAyDI7oqShwKadCjuEmhMOJRTMRAGNa9NKfPFMhtN/WfKt3SYED//M+WUoK4stA4Z+q6ZggJzNBp7Gq3HqwcbvEvYbDDCn+GA5a2enH+bgM/UbB83GvN2i4d74SEgwUNQ5RRIqYkEoFq6Gi5mL9xJXWdn32UJjhFgVC1ALDAFrgCEzmuWBYE+YxNU6O7SzuNk2yljcoj3/d5VR/yWRwNM53u2np/W0lZqLzR8c/mabXIYSOSOqJiJGUv3jlq7hHEeXZ3MaHKsmHLMi7y+9PNly9fhOC9WxmC9zbZU6tKMBw1pR36jqtNguodgPc8GQ0wO4N3VDd0i4DqKGrIANdXaAuBd6+5S8aXIePstGlXbQUDAdXjLRqUaSC1MRBlDpH4ik8fodQOedHSbkRCmYPUqxB4b9Mx1YrEobABERoFIG7KkdWle/9eq3qF3vqXJpRWxxXOiiyD7ImdlWEYNprL5eBR/OmjTfJXmR0ypMzwx1zolTk7f7sBwLV8vJeZM+gZxWlcMEDD8plU2CWWTir0RJrJhXT6KjIOBN3JQxkcCJMiALosQAimnSs9yIOBKNWd+Qe5k1wJhQl+JwsdPwPBNV9E31Onl1ntl3+ThllRFCRnRbNpISsCSoPwBQCatBJRe968+fmvg8W0KtuQvW1KSG3hsU76IupMvDzRs8PbL+0aHuGJw6YOkMBrjTdJk+eLvHeF8JDwWu9dRlR6TWyWYt6/YFiLKE5PpBw4I81asG9+fie6mFZ4fQIQVkh+CJm6Gt2l5WocDNH9dNz/fr9W39zMUegrIpN8wD/kQ//rb0A+rK6uHxaeqQxAQK3q/LWkOJ6wHg1PuZDUFM1JUWr48RVs2Pnw5wl6rCgcqalEWPWCZ4Q5X2ELyPLYVnRzfjN/skGG1Wg1/Q6vi5bN5rJFP0P/mtuZ+kH3d2nKg3QgTqAJhFSdZxgAHkQ+YuNN1dZo6h1ZURWZslFu5Ffvn27+hQ0rxD7eZFGD5EUmwRZD6FEFRGQSWo1AtxcbwfDJY6TYFJCa1p4nUJcXn4Bf3sSVxcli3tfAWAuisJHyPLplW9XoNl11Tk+YrsnpHPgGS3P5ycFtOjwtsvrNwc5TLEH47uIi57O+CNY+g5bL1YsLJIx/exb7QdXh70PA6ySH1VmiXBACrEGJj4MWnivYY3j9lwlUwaiKHbKbouhKFDMgCgJfgd+zoebUKy92ShQKsdKe3yySdUH0y2VoZvK9tdy327MJzaDn0gHMsjUsVGMDqLniocMprQShTjWYCdBcRgZtkP3puiEM66gfspNDBhOiCjOcBaHbRIRuUxCSTmQo6Uhhb8+0bjMUglZCSacwVnuEkoNuoKGAMxR5hgNsiQwH3uQAny7m/Y8xVgr9gRaeI3o4USIZEFYVeTCXFFkIgS7+EBRRbIRYGHwR2328Vqv5b8/fnp29PnstXm9ev6HXxfmb2urq00zh7wEnkQ7qlUQpryC0rDA5NBNmQI4QmeHVa6u49sEnYUqYFiqO6wwFZ/I2JlsCWAcd6864i1vVk0eVTrPVwJKLnQ6K2op5wvG5bN4vLfvftrUU8JJhu5otVqvRGbVyZgi4oLumk1Ci0blAC6IyGZeB78OWNfv2ae3ly+O+KBOttj2p0GBEJUTo2JQIHYEIXR2K0NWxCE3IelqErpfp4EY8FKE7oQjtNwhjCRE6PiFCb0KEbgkROj4tQvt7UnybPxQI0t14zPvyxyftT7nhEqwK6GW6nSAaDWZ1E9bgMEMM0I6IYLv0vMF12YZr6MGs7321nimevTo/fzX5OhevdxtbT8vF3wZsklzBK5TolGh/SonKEdNMa4HsOMnUwsc/vXIk1kcUCQm6ByalsSh9MYVZUVIjUmVEMPhjnp/5/e6L/ZLocco3eJ1OP5vlpvKMX1pvPfc1QhcuZ9VkW4bNAcDFk8tkq5B6kpai0hegKlFQZzL5LFfV5NCwpEiZHAN6crwy3FKZ/MYe+ZWCWM0hErbrkAUVuuQ8aJdU2PP4GDEol6VwVxnvwi56B22R0LfDA+yigws4GMU4BbIlsUXCFroO7Vqht6NLJ86DslCshx9KisOwWvcWsM4hOSi6ZfK/QXRmZm5GSSKCESwFF2rZBpNXOmYCaNKhadEV9YdBZj9TfEduihzW9Ovd2dn6xqP1/sktzbHZnYOnIRQBhMpsAwdCXtwgoSgygZb0J1etX+fa9RspApWEddKixpGrRKFtIbQ7QtsCp4cMz3bnj8snjwXGyjY7zXwjmweEz+WLWTKsZ5XnDzCd9GjSFMoakzZw/qCPaap1SrzhuVy4LCXKfYsUOxQgWtm4f1r7858OhwRpuMjMJY4qNllTOoWNpBHnGR8PvHFV4JiauiQwRyZ5UUF+Mr86hbFG8vcIAcYjbFioOqakUGePpURngplbs4ysdJiVaeshgnQ5QbEdg2fE1Wf+2it8v4OFfLFmLlbNzfJqFjmsKFKr1Ve/r3TvzpBhgV1FBuWi/JQeyxQEadEdzKKhGlXhydJXLRb+5APTtMFhiQ5oMyy+MnE7qGeASWHlNZ1Rp7Z0unJ0uNtutJudlu83sNRwp4gybzKuRmW/93w5YWIKdS1M9WzDAoejY2FAmJkJe3WT+txMMDsHrzWjKpTaGPQO8lif/eOwH3LsUpiFcSY2pDIl3jUiP6cKH8Y1Ee9zntJEncIIjw9PeCkJkMYXm9wyPibOVRRx6Z8/PtkljEVRPsmGhdUIyLRuqkkuZkBabCMAghfVVURLY0iQ2oYye9TP/5+5q+ttIr3C6kWXqq1W9K5ccVVpf8iMh5kxY4b4s4Zs6nEC0iojS41VV2IrgmPEKrvkS7Y3yTYhsQT+rJJOxYbN0lWAoIVA6eaC/QH9Iz3P845jJ1v12gksL2OvY7887znPOec5Z/62QfWW+qKMa5P3kd1cXVxZOng1FYGv8HEeUS/08yFzT/YVugKo5KRlOaBZF0bMF35wvpT3aLCKIXOnzxJDRVuTR2k+xz2CGs+beKa9edXpqMbMXk9I/DIHVVfkvHW63+0+/baYEy4hlAITkJBIwAvgxOLL83j65HfCiFtBxLaCIC6+0LHx67N/z9JiFVS7QkFTzRRIfqoeCtMtNFUzhWY299AoseBqXVns9tBDIfSr3RMP2a3GYuiYcDtonWj1mynWhHU16/J/VeShZlVzay1xjHX0UMjCxaKmmilMd549OSfNOducP+Nq69to7OC7E0ACWHdK4piQVglbfIN46iqL9z4nbIb+UACFXaVZA6xke7zU3crBw5nZOciYZxW8OMmedx5efbgyX7+fskHdozkml1UhhMhSPfqhRquUi+sSYyd/N1q+8BcfXkwyJCyShPahxeweMgywMDTqPG++N/GvBzvvOp1uoyGRYa/R6bV6a8uVMsahl5uN72pPXxZ9mHvdkW8b2UAYLU/sEYv8Oeje8frJrPjCSCQI5JdEhijqOJ8dz76/tXOAMUbChvbCunK7KrGbQpgQnLpQ6DaS6fV11bdj9tt1CvV+l04dCAPm0MDT7gg9wxUBjebWt7HAc7YFWB3BSlUwRxhtY9FFCn4bPV7IggJPTXkvYQqeY4zkTQFYewpY3akE0uryCeVDyGeJZzLpuJAh5Fg8mGH6QMNDdhl9J2TwzJI6wdX9Qm1mqYxEw5zKNah7pC8KtpYe7S28vhoRno90BdSTeeoslc4hbN8sFjlgqxQEOtoNR0tIKp4QOXXDKCH2g8bRy1KATE4lftDGroF8Q+HgRSf+ePjd27WuIAq4aonRalXKPZXRqq99vfD8OIEcM7dOjJDiFzrJBVCGXcpFMYQ5GaQEWRZwZTiCLbFwBNaTgyF/Fhtqzim4p0rOseHHB80UbuirzOHOi5B+aeiYKPyEhw1xtaHFmdaJ0+8FP8J1HwuwphMS18h79yC9zcTj6bHpnPL6AJaHPXAQF/KvDigCD1tUDl/88ruD9qPVOXCrMu3V7CxuxbGxsbq0Uj94ed3ieSaJCMVtKn0dNquokYr5XCkZN2w/nxytHOmvz4vrsnUrWUwy7sO7P6nB0/tFbeQ2cQAFW87k/cNHb5e7aqIHgNXg3R2EaVV69bnv3edHJR+4Yjs1d5XtZLbi8bBWKtDMZ52UxISROPh7RDciTtQAsG7vDIrQYVIyZp5RfoaiT01JSWNuIdQ7aEPqhoGEYSAT1QpnC9XamYX2k0K1OVSNPumf5k8GsJ41xwVYNj9hYGXEXmWuxpMCGtj6qBgs4QR5G0cKJywvB8yB4Wd46Oipj3cO57ceAlnKbsFo4QYtD2e2D558moLF80OSy0bXfheCmqFx0vM5aeFgZj8aqRzpLy8kZQOCCEYyIRkQRZ4clB02m8GMg1SUTxsmV0ofx7aO59Afr0ZfwCX2KuqGI83Nvx8e7JccnlSP9goE3nZ0Jh2Qjc97qu6F8EBYFqKoQOJC+EKDFuu9uEKTXTq1MIMwLwE/kwscHrkrjm2e+QKhTliwgWd+HSMca2zgcc3dtmYuoEtnt60eMjEGEm02eEgWBS7Yk9N/SF5QXXFlYZoLTEC0mYnQ1KKNvp1auJiXHxoTi9UcL8HRG7quW5F4OjM2No32W+qu4PEcni8H9RzsgaEMOGNmzzHGvnzpanMzG2hwDaElX4tbq7XYj59f0Zn/czx0rSIDmPeVAJNGawhaWQkMI3Y0VxqhmwqcQ3ZU9iXIJ8KmLYpkopQP0exEBWByauSAgS94XuJKbfP4q3q32+3g7h8N/EYXV6/VadW/WHlx+AnkCjp8g02EycmEb7TzDg6xUqHCYuWznmVZcYuT3XQ9CGzj5vEcgVXott0YFaQdCEcbqvYcW18rKAXpOhWk1Rhrz1oZCtI5VY2OQUFqVppyZQMPYdFXkDL52eoIIVuUK60uy9IxtyFXaqhPdyglRREaCtKy4O20ghQEfy9UkKJLx3WfCbAuJWz0YqJpLm5lUpmrGerb5Sjani6bZhBZzL8ATjpMFuZv4rza+ti94/mDva2ZVUKrXJ5bXl6c2eoctF/dSxsqU4PaWI6wyvlDM1n6XwgUE4mMZXj54vkPRikmhCk3IomsaoIQAsSUkzBNX/ZH8CDsCslRhxWaqJ/Vt8tvNyBvALbEG3b5zYFj1a2tF7Fbk+AWtq+TYGDcpA6jpVI5eeHwbIKCvDRnGPGUFSCfpQe2WK0/KGBh9nVf6s7x7ibl55rZ173j4VABr/42EKSHV8K68qkr/eew90frK+l5dfDk/7vQhq7APwqw6lMlnz2+cjoEV6mx8UhWpbBC9IR0gHUcWUV1XJElyg3ylMy1f2zFXqxvzKxsLa0urn4xM7O4ffjg4T+vZ2zWFOUV8ihWeNGsuvVMUilJcyfwwp+TQSZi+8mLI9Rg+OHFYpS5BtZtfJZd5JP4vipv4dwhYFYfEsmafLHVfLsJTTKBRbvVEHMlrKtTX9l8vnCvRBCJIxAXSycAl8jMgy72GmVHn7JlL2tFMoKrOALDiLCwAbDClNJw4dccuuIOp0y1M/34YWrqpKHejA1Rfs6WGXD2IVGodlbf189lxbSTn34mQfrg2X8e1y8lHPQ2CVG0rEw6PT0uFtn2wjw7DFRoqgApB3GyogfyDINe0bp8+2ipdvigXW1UKr3qbuGwtvT67rgFXNKlRvGv4ntUzedPRh6guoNhr8ojJrwUSobF0ZG+n/tNLunbeiTLW3thjkwUkQeqCCgjM7mXx+YgNGQV2ptcqr3ZqsJgNTrNTrNLa9XixKvqVvNp+04SJIKOk2gylMnSSWB9amkIVTFaDvLUEhoGwhEEWULey7feS1So0UQNzIWmKV3LqXadwSI0PWY4Gn5g3szCUJOPdsbkFNTP0E69WOF/GKqTFzMH1gr/EWCJxbqc9AxYrCCIB6l0eiqdBZFUJUFiy4HczFasinwLVw3wfQAvakfS124/3pldL+COBtr63JNvbl9LRZhTdXyyLKYaGPF4quEJgj9Wovt+MVHKSGAYLY2MjvTcz3+bDT1hjoIW6mCxMwASbJSSpTk0V56NcPHmjwdLO02iCjlS0PZKCwKHTr3+lfu0Zfs29WzYSv6SfafNYk3aR0IHNUgP433knHCht0AAACAASURBVMfjVgr5d12+bx6X/0KOVe8L/ZpK6KdpJ2QLZWmkQwuNbZfTi9xWqPhTQr/yfMzs1WPurrAud62upH9ar6lkfVqjKRxLWJfbaLpabZmMivo+jfOMKPSrN4Wct6jvk4hhLRxjpFKmVdNVKa6q6z44Eot1J4EZdcKwkGpIT18yWKAQEwMSIMjxMSFy4sZkIunRdAkdwxnjDH2HiRiB1qXrd//8zdEPPxztf3L3T+MpAwQ3Sj+Rh5YLnpAZh2xpQt3NYmIygdRWKHYoZkuRjKFHiyOTfD/3qwvFnKcbdoJNuhBdQS5DSDHzwqiGMV6ejEHc2439F4WVmW4XVmqt0tcRLc/Odeqd3afPv77BXSOsyK8iOmgGNtlRPoB/ogIWzUbEgehGYCGXJRFECKww7sKs/raa3YDQDwvEgIgTVTDocoiDy04eBIPrbUaF8lA4u8ENZzdoHNmwMFjwOVp/UgPHOpj9qBDhIYNBDGhw3TAq1Fio1sLw0MVkCWWxxpNU/tARjk1PT+fJt3kudcdPTGY+3z9+8/LV67/+3ruRZJkL/hCugDwMW+XohpUamxq/fGfqSjoT6Ih56CuENEBqwuaUnCeo8r/cf/f9ysq3L4/uRyYmc/3ZitlkIp+KG072o5+NkHbUd+wgl1ATZHKqAM0SspDr0o1JOWpFsNGouqmObETOrj/9L3PX1pzWeUUfMs1k2k4nfWue8tofco6OuAiMxcUytisDsjVtzJAJjGnHjYPFyZRiwq2IcikXMT2AhBQQnggcKCGgCzEqUR6sp+QP2JpMbT/4sXvv74CQ7B+gM5Z9zGXEZZ/9rb33WuvzR7OM2IBRlckkQuFMKFTZqPXa/kcGvAxpjxRSkMjm90a6WHka1SPAghIaPiyNkr4UHBYKKr6+fAiB1ZSH0FN+kdNtylO1gwx3OLnVSc9ynJs0c9OP0Z1X8nBnG7Hc2b4oN7YQnIJw02CLZaw5o2CFN6DXL5jm5+/MXWFKOZrZqAz8J9WN1Dru6LRaa4SO/mAwEuqkaMJlgGcoAf4gbQk+CcJgeC/CfdJOo42mHYnzxqXrR5HVHJoawE+wMPjC7R47+1gMRhPUhWrDRWm+/+IdF3zJfJ1teYkQC2tBnHzBG/L5Zv/9p8/+eJl3+3B7iWWIMTOuh4ZHjnYt7xFFr4gJy+MJQTUjBbKbjX67f7yAlkS0e8DHN28b65evP/zLv7559Ln9pkGuDTU4cdRgiWC3m8mQUlACIIMzAQLr6b3j7rTTFXfOtIijdiizDR13Qbm32hjlzjscKcacUi53VhDmGAN8x3ly6STmtKfGRpPxNwbWtwDeEUsoIWEtLFyeu6qnCZgGJ1qWxS9Du7XM/mB0eHg4GhQLuvW9uUWGrVTIpNEI1IDg2QpJN1NKQ7q2FRGFmuTC1AGyLQqDWk9byjeHw+Fex1lx9Lid+z6yW0Qob8C+jdVwUZrvv37fiANoldvCFPC4alvseLVolpVHcbL72NWulzzR49ERrP9XNcsulWD5ytFOhSNiWRRXsKOXSYQD+YDY6LV7xzeMvHvpb4+/Hx5HQ+W1da7b7cPR7fq37vmI9o1XI4+IFH0MzHq9np9RAkixquqYscRPnx53FY6UX6GD1U0WrKYUKFjV6ZhgVVbpKNZqWlLpcGO5jqzbgQVrjQlWUbejmxas4oBZ1u3oZMGqjiSsQXiMLoWPiaHDEap0ZMEq55BPUJyjQIcjWUMEv4Iy1g0XIIkZvVJvMplu3ZpFpi0t+Sr33ZC20hw0t/NSICDlozvDkXPV/wNgfWru4WKnhqcSXEDzKMShApXOhPJt1HNnaleL2r70darfaB2OmgdoLbm9szdsxfq6gcvNrFdcbgHWULXxojTff/khYvcZjQEVf9huQDk0kdJu/6fsiGWKxXzCW443ANjs7ua0jtXS3uyiva5/kuulwl7cgRvXwnQoEA57IV91ow+MmuXPJT8ka0jXWod/vZZqxEqFSHIt5x/MmHk2kyb1jh1H9lBLLSgBZsEaIGiExUOoCo9ldsP6FLuBY1aRcaQWsCG0PHKuQGChQ2RtA80j5dmzooRmpGUkPuAJWUXi7HkTQoQcItFFkobQBXSIxNnz5vhkA4MPh9AVguo6No2msXScxtIA3mPyEBoDKzbnQrGAUqmfh5Lw6g2LlXhnVsH9OJbaam6Fs+lsgu0HFs53mh6ueN2IZQx1HRB7alhw4b+Yu3gqc9jIg7UUrSghs1d1/uKwGZUStK9YWMo7Wx1nrStdvc02C3GpTXXeanNfjIbDe7/9Papz6jYDqUkwqaK5AFxOi09WY5DEBwPI4j8cjkbDZmcrn03Wur3SR8uaev17bW8tzDhqkLLCiYA3Beug875RtfhwrZdrlD343tGlNRp15vOt6n4i2I+ishy7haTdweLAoqrXAbrP1AXsNvCLI/EzDCzOMS2dcUxpbMZ/y30D7DGcCnPGbcwJiUt+0FvkOOP7x4SvNx7IORRvlwNxpy8o9x0E1jUz0tyVeoDul25dm8e2u82u4W8f+Tf2i4l0Ok2svWwolMlmM1InGozcNQsMSKloRIG1EwItnPMQ/LIy3RJ170nxqjZrtrrxatMZyjJjCCbGD2wdbPZX/r7EGkWWK0r+wjQc3v2dAbeLqxup76Zm9hPo5rH4VTAQdWbLlQJUe6FQwBkt7lSHg8NB0dEOProJOeuIa8fCkLFwwoUbqcX67V7xrpn3PVzvNrzSTgeOne1tyNvOcCjtkYYjabW3vUjjWA16bNlxxbCo9Hx9AZtYsBRYBDmwJqCaSa4IaGkVEwNQ8tzm3uJwdM5WdALeubcQRxnJTyvbIXGnmpw3iKOnJcGYS0iSMngJEFjfxuYsMyqqCU3zd2av6cnuQs27n+TSO2EMK/Rhw7qZEUMzxe3V2JwZS2QE8QJ15qkxAZFlZcieZ3JpmtDS5N6m2u579qIZT9qTkelbuEYEwvmdbLc0h1axRqMBO1lW1wcXwnfmVx8QxFK6iKpvY8McyCVLD9fy27h/xGayvJkslEqVWDweh5+NQCvVdvx32aY0PdH14gE234I3XOlCvrprU/k+aeQ2YfnEDzHrgQWA/DUDAXGjWHUG+49vs7LHOuZRqgUV8pMhb2HNCBjr6dMOgHdms6aYbKqjmOyuM+2uhj5p8FX7iSA/tlmTmelEmecYRZ2pdDim26ETxZRuh4zX2F0K7swt7DdPWbFxE90OerLpWGC5ACQiDct06dbcVRUSb9X80teOdCtMQUUGyiKxihA6eKXoavqSnUUSj9N5AAECZSvMWRp5WE0bkDJ+pEXjHnY9HQljdGUlcPICjlcnmSya00it7K6nTiwtt/4KTnUuBNsPmw0YWILBRu4fWPNRHvYdVKrOQoVkzmI6mdyEj6VQLlRK8ZhnP9Ze/cZnV84fafuVAHxWeAFVdtt96Z92le+jxq7YynsjHkIWEhlq5qPRYjQdDzfDvYrJxQKLZtwo+sFJoRK/GjggYyU/fbrT5ViDFPE4nZQmnVLF2NiI+bxTp1RHJ6iNLqAvdxLwOBFHsXdaiOm06yJgrI04nKyM7d0j6NQd58jVnezd/eKYQYosU/J5R/hF9u50QvbuyPiLKRjYqsV0Cgqsa2YEWHqTfh6XQiuRRs3347EDKYubraIVpNOJO2BvtQ52Ovt5bz6f27PjEAh/rNQwRY0SCy1aImUCM87P4GuxQpRWOmEkmYonL5//SMfzlydoIRKQDrz9kRHwi801c0UpaMyGi6CIfu8dZLgLdR4p2jLxFVmj7gepVtUT93gjSSz7RNraUYyISQitSmJYage//litvwI4SwzA7dkMxFUv/9Au+L7w70aqxQQUitkQs+WRomQhViwmY8VqsPt4WUO9G+S5ETlLr0d2sqCsq+qCsIyBddCl3KMLnkoFIUuwTXUUYwGPY6LkUXDyLZBk/OwEN9Xh2D45eAuyblb9tCuOgk6YksfvYLf4iQmDG+awHPZGnpNfAnORpBfFtiRT7EJgrT2wCOOEdWtuFndNg4raudrKhyLPfsLj559+njpGBU/U63hkY/GEQAsRlkbA0Q92CSF/4WxCQ9xutMJV21WN9ZYEC+CK9wVG1Cs4XkB8vZQSELTRzlrwzwYAMAb1nQWety1dBIbDu++7LGoVYHcjMx5CprYZ1nXfk8beXrKQ9noiK95shG2HKq6UN7ApKgYOxd7u40WL8tJ3XH8Nkr0I9WAv+leev/kPvzYx2HdKGXgKlULhQJ4wPESW1EhU4+2DZboqUV5npbFOXY+SKSWKdVQI3u9BxjoHkrhTkQM37Qd5vmU6BYt0jum+6Dm1z1gExL1hKTOt/zmjxeDOKq4ZuuMosK5ZIa6QkHznxuyDO8RaM3zpCBfDaREC6zUez14/k4/XEFjedKuW1AuwBgrjUKIFUUXzeppXAM4iFM94SqOulIdFUAz978fnrzLlMq4SmRP4zwlG1tZBLsvbzVDPX9bP8HbDh7+5APOc/zN3dT1tpFdYq2q1vVit2ote9Co3rbQ/ZOyJPcaJwWATO5DYBlZpsayuaVx1aXbwOHyty4wtPsbM2plYtWNMXMBVbDdGFmuwzYqUJRcbKRL5BUQRJMp1zzkzBkxyzwIRw/gz8Mw5z/u85zznSh82qpr9Y1Sijb0g7IDZY/nLi/JuZTXCxyJYKysQA83FImj7H4G8l9njtwNPbnn7uw4e1LfmAlv1ze3odyw7/f36tehapQVrYmw3EdE4JUp+mpgLs4/ClfBmxOfnzD0cbUDiphosA4pUlQUpkUPy/jMBi+lcAbbdE0wftW7oWL8x5xeT2gM6fzZ1fGM+4uTAfPynD5aJBKx5t99e7Hc4HM7rV7twUQhMok8sl1QZgdWUcOUC12WYTKLzzxFYQjxj+68Hc6EB+RXpDKQ0UC7U1ovIF7Q9f8uN8mIhBZyEPz48lnJh6ruAP4l0AsiCTBusJJj/0bzyHoeRs4z9ApyyPvsEzXcMRjuOmaDiNB9757sel+vv0fx+6xEsaQQZACLA/ykp8OHHMTTD4jNROdmQ6nNPp62OgWe2TfyoS98A8/7XrC1aKZWaG6oEwU6RZaAYyLCQYwHFSKQr8uby1T5vz2S3hwgqttd5AVR4wRtROYZU+DPpWGWyMQpo7kULD02abd8Ksq551LHQd093L2KYRd3GKDCv+ffp7kUocS2SnxEKpNhMsQrPOk8HwLE0PyMcZ3LuAP2MGKZcJhsjhlmGM9icY1suMyiZko0R07YxslHEusHB2++Bj9GBrpvOPqvPMvbtNakqKXzk/av440gOozyWbgN3T++/ebYq8GJtXS5SOZZerGahHWnMhbgzgd9gJYjrRbgl9ON2XMW2w7eHx3yOtmbhX1IW+ZPDYzWqBqstW3AIUs2Y87qZ8/WFLn9X59NfoRcIa7QD0bL60VvBeHdqyeHy/DUm7MdXFUEhD2BFSPIyoCsixCBgiZDZZL4S3b72FGPWk3x9sz77YpLlbv/NFsi0stVmsxVHYPEyejxFkWFBvCpkN/jVplq3fTPkc0wuDQOJ4HzoCoFNYEWsncHqma8gYk2+IH8s+POvA7BwSsCCNi5As4o06VaRprYEDxBZ160iy+twH8ScJrgD5nQJ/tQq0kQ6+yygEA6AoevKOzOnCe4ALF15NxGMUHmHAxMcAOfDIQMr5F85i7MFGGbnAIHlpc2cntHhAfcg/Cp91t69a6W4nEJgFRJhBBV2i+cAWfn9N8/zsLBpyYF/atWPKLRzVLtsYFmvQatZ5lhiC15NQlVWagrwkNeHR2IOG1q1Xf8UIOvt4VtZVeONRwE39oI5esysd2zoD5//IiiWlTXbUW6HqOsy3lmaAWC5pvPSfibPi/CJ0kkqxYsC1WQnEgLmNVUWatJW4D8jBsfA5A/PDv40yhqm/70QyGyo8UKpVopHFQGuKWBYGfJpjVPIkhdb2e2d77/yO5ampoa1OA8vbMS6d2wxNBaN0wCsl6hjMaeZr7NrlTnfvnpKvUx6pR5zuuXcrgo8y55MW94ytUnU6cMZ5kJjrJaAmdNX154n0Hb0az9cA5bbixTL4ewenXDfMbsgDNvD800VUmDi/atW7kxsgK/07pv36ZjAB2tbP/pZEhiIxGPeo5pSKqbRsiGV4Vp9nvsL4SqkivDx4btcjMzIBK2xVRYzx4ev4cqtqFtPcQ6Ws8du9I6Frlz6rs4XtJ8Di2UXVid6PYbBpZmZcafPFZpX91O5lCQlRYxYSbz6YmjQEONFNbsBRFxOVTL15fsjVqBIRdyPCU0uB6JqFEh6qVnLZhQegIXr4UwwE8ziorBQiC5Wq9tbT6Y9AKyZqWEvVRJ6DWZjv5267QFcI5AKJ0kgNV3sTm6zb6ZjbNOZnxHTUUpq6yxqYDpsIANMWwX9UEQ1fVBB2lk4amLOSi4IWOVBL5a6d3cPD0/cuFNE7en+ggLcKqVAxCo9DtPQJh1cqzqwpMbsiyL2BbCkuqM0ivtCHDYgEraoOIIYfe+TQDYOkHx9dITwIlwJmpYvJd8dnkiqWqrtrHEujFj2IucKXTrJ+vUnX7osWApk78P1oN96F3A1Ne7sG/Msq7upBPVNJhUZwKUkwzT+JqaIwUKrVQ2qqtwQNqUR7DtBydM/FNuJRlNRNd4q1WqFjJxMijJpw+T+i9x9I7NYaG1vH9xGYN27t3TVhxTVyjpwgF0RP/vtt/YTkxixcMC35gWiz/A9lRvIrIOZ0/p2UDgwfXBAFiCdpiBM+wx6gWAHDuRN7LfRTUHaSgSdgUe1W3HwpoumIJpTiSZ9UMS6ydnNDsf1qwPurhs3jT4v1/t0J16SZAJW8zGZMujIiuQBWPmwwKfWFmNdRghLWDdjoOY4jFYoNBioN4z2oklLDjVszUwikj45PMnpXWLYyANpRJTl4NER5ITs2qxc9LjGzKP9Rc4TunQ70k9/N+bxW4FimbH+3MPemcLpzuM9npBhQd0T0koyCm8/loJsKApKEiNwmJezpUpto4DDi/eYna9DSA2AYY78uT4f5GUpky20ms2qKicVRURgZVQIWfFsAb7UxWxra/vZbZ9jfApeamoCGzQ8Vmc/Gjj005p9ZDcxDsDCeYXA0B+azlrsz+YVPgLa1J5XeG0lD6BZBYqN8wpNNK+Qmu5xTGGC5hXqTfen8wq1XntAxqOHQL/S8Dqdm9B6iz3NK7TRvMJVrcUedVEGW+zbBgCMJjcMWvsddsfo9S63+8bdInCK0MFObUMWk8ixKnn0+iBQIddabUDEwp2KZqK8RKHKglEL3V9x65ljaUfaS4NINfXBEArOrUmRSO7t4es0NfHEaHtISabQ+w/OQlJolNMDFo/HPOwwGzyhW1cumWR9/ptejwUyocM+hm2pE+MzCKwlp6vXuBDcC6/KcpKPplIpWBHyScjq4TAfTqrVtbVSqxAPqtHmfH33K+KeLDtysBlWBVFS49lWs1ZVRZwmIyOwMvos2mwhsxgv7dT3blscSzMQsmamRqkspMcM7wC7C83m/qH9xMuXrS3m/PgJOqAuHOb8mbY524UzWk/O3Fz7Jho20Tl+Qh+8o8+q0EboXBxRod909joBffBF+z50hlKhtirsvjrhvjk4yPk9/qFnD5oFHBaEwEprSRD5uw4sjFhKTVj/lsU8iJSdsiCHiMLEyGJtA6dtTENq7JNWGiI8xfGRlCA7Gi1iKRSx5JPDd3Dt7uXnBz2uPvsoAqt35I+XTLK++H0vBG5kzi5c+3cBsKbuLY07XSHzbHAvkU6hXqDIUVlMQeRVYKGXSklqqbHXrLWywYzYKm++uGUgKcY48tNmOBuToxkAVqm0ocoKr0iSGJWChKw4kixpPl5FYLkgYuG83yW3FWtIHcYirKoQWmYtFbb0mdCmdh0ntVYwpguzLbUKUiLVtsCFPeO2k0zA1mn62OHY3llcer5a1cR8QK1sbUXs3H00YN3kzA6ns3vAPUHAgoi1+6BSEEUA1vNXjbxGrnJE3hP5CkQslAJrwso/ONqCsFIu5KgeS0+KKJmyLElaVtafXF9LAU87Pkqiz1FY95QEeoJmpQAsWBc20uUZv2usf7jfzFp6h25dbunMZ7/9sg8yIVKbPj9n8XDuKT1iuShiPVaUjCTxSQn9fFNJPomEXArWKo1KrYpj17MPtn8aQVxxBuPI1/X1DUGRMsHCxv+Ju7afNvIrLLXq5XmllbbvrfqPzHiwAQcbgzEOgdoGskmNLNUoVCpJBo+VEO8Uj0fGmcHxBSobm0sxXq0hdZZ6fQMCIs1DKyHBax8CD2yiqo895/cb3yDqK5aJhpmAEunzOd/vnO98Z29vOxWMxWKk3EC6hbKM0BIj8na1cgKp8CUC6/kwfDJdju4+zIIGzIS6PADrFMm7NgfDtIlXOiZnPDcu9K1xw/8zGMh0zu3QomlrZlB/bfbHo78xDdSUzJCIdUgils021DdhBu7+5BHXM+UcOK7uQcTiBf/xeW2FlBtUNHvCiFXHVAghq6BCxMJJSuxEo4iUw+o7qbwbWW2Ih4yg6AaVxZoCP3p1EVQJx6LHwig1pdGAtRp+ZHTYrV02A+saGL//1a12dX755aB9qpvLG2w2O9HtG4fhtAanQscgm00CsJR4HPg4AAQ+G8CYQkDmBbFY2Dqq1fcKm0k5/Cb7dBpOhPhyzqiVKJAs4FPFQiEtQibAVIiCNKzhYU9HliLyZrXyngALEDysIzpK1prHEikETo7FiHWK5J34ubTcZpYbbjNh6jbDULeZXNNthir+0H+GyWLxk3jLrOHiZ+I2A+mLmMygiC+suc2YwjsMs7gOHGt5uanvMzGa24zWadaoVbvhe8NtJkuFfhCxWFS7m4FjDY8+yLt6nNOH1fQ+AItXTyiw/BRVaiazXjj/sOL3QSoMR57nNfR0a0o/Gq0wjuExm0j+AHAO2QMcS90ANoUHgSZ9B64BRyu4Cx/mraWNuwAsG3AszgER69df3HIVy+40stg/tVNbR+4ukB+sYzmWUkf8GnCsOG68kSCfQ0aHdMjHUpv7tSMIWftpebVcqRHBNgJLN/1wIZGUAVjpIjxMYQEMQ5aEqhk5RSpZSnhTLpUOf+cYwnLDaB4r7+wU148x04KVLC4/eeA/Pd0q6bUpnYZNQuPEF8iRnavalA4d4IHAkcNVq8SOgXo3kFEcPR3XaT7SVqRS7wbN1kGPMzm4PbV50XBzQI8IOpODF0xjOEff7t1AgPUWIxZkQvfEHADrUR5HRf6eUHaRY2UOzo/WVI23qxlAx+r++YcN1cfH64HgXR1FFU2FLKk9sLT6wNGbhGY4a8xe0o+nwk8rZARfK2Qhy4oHry68QD/qC5LZ6Ji29VrzrGt6ZuxWpTPYKETJTN5iteKcLUThqe65ly9nzS7HeDh4pIRDcSkG76jCR4EwKIrAh2Ip7/7W0dFWfX8zUi7LD6a47sn5+fnJHk43eJioJouijMCSJdRNBqU4RCvMhSQbpoXIdqpSfT1GToUjHEpDXMBOh3QGK5IsmzVvGTvwPzg9LtFlNw1GxVxrOesb+wpvGmt3CP3aZH2Mp3MF4Z3ra8z1rda16cbmnHY/o/Y6lylx+O+3OyOcZai/f2Kiq3dk9IkBzVz/nIvsinDcUQ/OD1a0bg4tka4Wzz8A3QqJ6crWUJ4URjnaKaT+YEQ6wxGIcdSAmeN+8Mhpn7pyeXa10eEcgk2Ry4uPkpja3K7WrD0O15DZZmPtAzNjY7cpncF9XzhRiGPh2LnDipyRG375rN/pnF8LHaUiArB3Hug7BCoJPh8x0qbxFmsHAKxiuFyWHnPsoP3bf3n3f3DOcJa594lEai8J5D2dFBW0D5MU3B1Ki+9wXPSvFoPlxKtJTIUjuh46tdij6yepEGAFLGvsZOX09G2J1sIbePLob2gMmoIFUztnR/btYa5tsfdcq3l+pgrKtB8UOjWjN2u0TOufYGIO//luZ9hpsbnNZoxYj17YpnqcuqE4U/cix6oBsLDYQBkWAGtdA5ZXqHxnIcQKscPSfjTZzwEhiqUW5SyNX7q/ZDcKgqr6rmgubCwBIcD6ePYpKIr7wdLrvMPhcmO5ASPWrZKsn/102u4C2o1abc3pv9vp4kaemR3dX4fWjtJhARKhEhSjUWBXUfgTUrsQTxb3jg5qxUi5wv/Bxk2bN6vlSqUkDk/q3LMH1Wpqq7hfTCclOEQCB6BLh1J0R1p6RS36y4GnMw7rLPArlpqSTVmGrBZUONiwEz12En78+HWC2Bg1MqCe0baOMybcOu65MbDKaMvGGS0VXls2TlaLayOsmApzDHmkWR21BlaxD2hqS4V0ctVELnBglRgbMWRyFWungSxzJ3Dydnd5uNtg6TdP3AOO9eBFP8qSuZNKchuApTaAhVvVNzLqRmY9DcDKqCE5m3tqIedpPP5RdxAidaAZkeNoSR4vDBPxQEFRMxiySOkds6EWtC4vriRFTBbCi7Ocy9HjdlstnHNgfPL+T25xIPrnX83Yp4ysDiKWGR1lUF0G7/yo2+n8OrVTK4QzvIRHjzgP/Erh43xI8AvBVLFeO9hfLpf5V0P5AVYtZ4Pe5Hpl9fmkoetZrVpKH9c3ZQAjFkgVJaigcgZ3OgKywsJ2+E1kzu409BJDJOpvZ8M8aEVYWSFi/SP33eG7bAL1A0CPcR8SGdcBhFF1A6OVTNvUDfqGZyQ8ylEtQ0vCQMg7XOjxTmB9Qd94xOAdJrAaIOSdWcCLHXqHrm1q5+zUIVJrSzeXNOEGHsm32s9ZbXSMefjRE7MD/lO6P3mWCxIvZLbOD8JrxEdsZQOtxDYQWMDh47HSdpeBJjuWFBqcmuyPLFQgoYwjX6xOZ3lX8Xp9AMePZz9m/CHC3wmwfNLFxWVUEmXvHa+Vmxp09rlJuWFm8v5vbnEg+otfTTtcTsiEtn43h2SHtj+NeQvLzR9ld7ciq0EpKohKNC4IMVTu9G801gAAIABJREFUodYvJqUL9fRSuRx8OKQb6A1V/JuQK9NidfHxeL7rm5NqKfV+VxYV0nJAcbIYF1M0ZsWyvLzwRuzudnI6MlzoRHmbw4xSpn4rwktnm/l+oSZGV++0Ck1MuxmyviHSaxEgpjPxNbrNjb07pkaPueWIzLTnupbPMsO0moYM0yYq1DiWp/M3k28CC7mlKKRw61AfcKy7ow9m59CzL2/bLklyVMjUzz+8/w95NYV+CCx/Mst8ayXJDnFkJDmPWGVSFY1GrgiyjJzlWXgpHcMdIFdnH30ZrUgqCP7Lq7NPfFBKbUc8f7NMuRxs74TZoFlFfPmLW6RYdqy757Evr3M4qTEmXZbEjv814K0JOZ8C4JCiOLjE42ZwwecXFFFWsuVK6FVffmaEr/hlKakIghys5B6OG+a+OSmVlPd1BQMWsZWGVEpoljeVWskJ/krlZICOOBlxqBw7Y2abwYKosqF6xvkk513J7iyYND0Co+0r/IyWgSKms4LZYazdTsiYDsvupo08c9PEu7O9zXS4ebeUEqSWBVhLBBZ3xw1EjjVxb/ju6IvRHidnZC0PA9miwqtb543Xf5uvD+pG0F+SRw1I20mEYo3EZYBqlUlm5DRgEWwZzMeleNKf8WdSV2dXlz4/NYWPfbo4+5GPKZAPquKobmpwmr3Xj/ZrgwCs+d/eWrsQzd0dwNbJ1JLFbtRcMjUvgb5IuJ5e3oFzIc9DLoxKvA9hBQFZUHyL5bLv+778uNlf2dhPSaKkxIVt5U3uj/d1XS9q1Yp0vI1DSkoMl9gGU6KIlaxkKLesLr7J/n6AFpqNmm9nt9tqgHBltWDJIc/ZlUgwgbJ0fYe9EGCIuKc1t+vc6OTQZeMdfZvP/Z329eOdDRzy40zTya1zqTnT2GWu/VYKrQVTYmHp9YwO61hu973e4dH/EXd1T01kWbxmtqbcqn3bp6nd133YPyTpJh3yHUwH+ZJgULSpVBkKndKFBFAgxNhpkxgbhIQVAgZCaFc7SGQySfMlikNtlU/zH+iLzh+w59zbiTDqlm9coHNzuyF09+lzfvfcc35nsI9QNXHK29r86sPRhdLW7ubm6qqEFZ6xWr0IoPVBXNTkgoulHnYzQzUXg2+wlgIWtwARUxhksEEAr3j6EhFpFhTdyt2PGPIuwoz7/e8YpgyWJL2wKCefY1HDbqXJiYKFGmvi+7+cOUWI1QyPCggWL9gJeLciJRZ1qPS/0VbWxWwxAbBgHpNzHudyqVQulcsvzUeq1emC093bmavOlxalIFyxBTG9NlIOFC6y/sG9Si1U2hQBmT2EieTsbBo0lhiNjqhySq6WSwrMRI31gEmr0cd08GBJoHmRaNHd+9S2kMghhjGhX9SkIyrTp2qXJG+nTsdta2RCYydAO8jhrlPAOxq50alGJjTpkExoQFTEZVpPgMZOMo+hpOggzdUXoSkvN8hVijpIcYkcfRIRNRuIhXiWmEKXsyPc3jc4yWCqqdkzNFqdlkIjFFrN6wRiK4SndVSMVd5YOAKoKJJijHQBB+0iydtlqSqjoctmt/1pTF4MEV8YmL/ffnv37h1sPqRHMIREelzbCyuYje+x8B4OsFbLha6u3tPyZJ356z9aurt9yOrksTudzTpJmpVMR4xm99BCJSVO51U5kUikcjnk70PavqWVVAzsYMHv7hrOV1fWdjfX9cdRPFiqRgq9iv8+SFYiLdJEcHGBeBui6dF8KiVXyuqjbqM+CaJJmj6PHyAWhox7yMqO0ZiT13MpIlmxhrqgJb4MjVpfpkatr0axrk+7koETncYxJ8qAmY5V/zq5q548SOuB6YXBjo3U9ZwpoiaykeR+L4tJ0Lzf77e0t3eOc/0Yz8947qmVeBBD3Ud020WqDcGbUDpZ27np0YXHSCsJ6XhL39ARTOIF7A4/3rY9LSWFcMFxKf7+9w8fP3788H52LB6afng3uKRFb3vx9nW7Olw4K8RyqxfPn5on67u/ne3utlJvg91p1COtrWRuAufVdDlfiyyF4ksky3KEzJcf51OJZa1ci7+2uC8Mp6qpw7WtrWe7m6u4cChJh7ny8pMuThjf1qpzy3I2lZ/HEPnZu1ioPb6SK9bKyX2230xXV33U3+zjnWBI0BDivFDhlImXMdCMqSz6G/SITUBCIF0Oh4HSPNIOMraTnqHBK0mXphvBgJ9TbdfrHho+y9s57i6tr0afjBetL2TrGCsQS6pZ+CdF/ixrRjjhdAqWcFvrEE9ymEHL/BypzGemdXHSS+XAz+xsoBK85WR8BGEpRD1hY4iXATQWSQrHjCVdvFD4hNvPKqngLPWFLY2RCu+kDPfdzJL24Kqd7Udmmg4/71GsPQMXersuTpyWJ+vPfxo4R4KxAOC4nH7mHI2HxdBYMtd1D87Ea1UDKCxVXk5GAhqSxlSr1XJZE59YuIt3ktXE4d7B9vZaaWtrd31xcTW4+UotR55MKE3jr5ZphkW1Vqloc45YsijLEa1cln/1kEwUzCDvJytBPp/LjSwtcGc8nJsBdMF0vdWK8KlIVUScowHSYtACerexrY98WzOZ9BfKKxnQ2SVPLHHrscx/yMmp/wHKREnoHgyGZDZbjKh3upoZBRkiXX5nG0wL+9oo65zVK2yo1aIoxuv6Ko7+rOnofKWyeUNgdDNIMJW+IcpLYYgaUwj3PZU41FvCzV1tOZOJL9FSyTSQNBQSM9na6D0nQ7jIrGHB5VHMPedaULC+P6Xlwh9+HCBhyQoH10To8PSYdeuEAUH48HhuXj/I1qpUQEBCNFukqCbmQ9LR5TB3sZCsJdbWSnt7ewd726WdZ7vr66urpaNk2THTq1imfn47kipGHFqFyiIVM0P0OQZNEj2FH4TEBVazxeXyuFw87+E5QnPLnjMvziXVJCFQQlJOGxGwWCySXJZVVZXhS5XlxrdMBuvbrzT1G0a+3orwZIEFdICenNMbMu8UizH1xUSP1UiSjLwuv6Ut3D7UTniOQeG4hXtipZKFWXWcMm3HR9Pig1ht+WhKUPQFG4RXDKsXQEN+XxaZDVna4Vhdm8FexXn7IKmtZBZCY5S1G21BemHMoC1e9QPAMgN296BgMWxPyzUUrL+fDshChkisNcvAVJ93Ch1OwvjFEuIvcs5mlh9/tLGWzqdyS9NRabd0cHj06/7LXzYKw2H3hRmQK2lrc2t7DSQLBGxndxdmP4sHa4FycuaCIkz+p7Dxcv/N4UHp2XpQnB57nM+H1o8ut7lp9BqyvbIgVYDi3U5ecHFe3uP2kJAsuKIt7GoslowZbHOfmg2bI5Asgv35QwOJ+oYx9cTLySE4WP3S0SrdhZHJNhtlCsMGHXjjiEVi+ecTPUgpjiSRdntHk6UVVwt9hO/KaOT8U3tqpVKcD5FSz+m7YwlDzRDdGLIrxH8F11lHUYToniSTUI1F+1SX6f4sQBgvx7TAPM6TpnEBGmZEDyJadu+OoJhpmVF7h8DDBUTPOwjWxOmArDPf/XOgG0MbKHYXBNZnRVcdXQRlCH2j13LrSmHj6cbz/74o3Lt+9cqjf98YvjXe6YIrl6glMGVQ2tzaKa3tbO/sAIhfX5TE7VWtnAj7OK/QPnn/9tSd4eF/Pfrp8vWZwovXhctTHRySumL0EQnAZbCGE3w473EBzPIqbixRAdfc2NL7pmgjto+CHdMni5iUG9qJaK/jakqlrf5KdZt6bFQ+vvfzJte38omDimhwAYc5bLRhx0HMcHTq0llSS07BpU6Pvync2Tk4ae8hac1WgEuututriVq5YgskATJq1WpA3L/R6mUxN8esw3M4ZY41EonCb5Ano5EaQoYYQ4bAd0BgfOuVg1RNi+Sn0+JCOrSyrNWWd18P8QiPYTrfb22yIH+p+RzFWJdOB2QRLxbSu3NeAO9Ov8XdDLfaSl2+ZjM5F5ZxC21D45ODnWFLkwD330OTtNhrT2upzNjoKDrWpcVNMIOb61ImmhHTYzvBWnW7C6mQFYyEwZmBS/AjqrXwHOVUsZKUFJL6Cy8CuhpwUghihbn2DNoG6yV+LxebO6GxiNIynaTNCpj+T1n6LzWK4KGZyJej8d5B5eWT+NjwE+d0U0y1la6xiBm0meTMi4kuJNgkU2sEinCiALKGWkmgCOW3dwvh4V9Ko2oyFogUc9LRzH0LrzBIXoFnqhDZIrZP4VCoyCDHIeYixPcsxVoEfcEOoe+nfSkR0wCgVCsOWTy8N+lUkD+k32pt7mdaAbu7GWv3wLVeUFjnT2e58IcfW6jfnXPDjbULgrPHpweZGeuokiGnibGd8EyRE6VKm+0q2YJRmJ/ER+LTIZH4/QhZU1SMh7bV8shZ+E2F0efLRJNjj9L2YI4v2kFCT2A0c2E7AVgos6CwiLgZm309187zhVfPJLrGGMTgiCCy1mC+T/ALTfrSkCQd3y/pg8eOR0o4SX/XOJi+ZoJfb5mMtL798n7LpWtYJgI5tnHBFQQLE3VaO4cYmt6Ml9LKck7L4PD11xtPnz+5eruvCZ8us7F+Ic1ETTEMdYz2DJCyqWfNrO4mVfAeIDig9GGM8j/iru+3besKYy22AtuAAQMGDNtrH/aHhKQhSppridQPWrZEiZKTQnLk6TrsHuZa8baknVE7HtK5yeIIHeyuA4zY2toGc5FljVMncJalL/1j9rLzfefK+Q8cWSYpiqSky++e851zzz1HFMG7f/73N4+//fze86f/+c2VbsbjRDHgOC5V29OljJONMAh9/bqQrFdDscK4lUUebOFYBVGFU/Sq6Bioxzrs5JCutYK9jOdNrBQ33b11b/UGxtivata17U0kmdte39n47cntrz4U046N5doW4gC+joNlbaIeIXKiK/xsoTpTAnFHukgA2Wm6qO0R9UwHuczTpNPp1DtcJlgm9XodL7CUf1kvdPgah3XquqGPzkLdHphioVeSw+t6Xl3PX7BH1c/220vi9DqvnWCFT7fn4b3GxYXUBL3QoEw925HO99xQgFVpcYqzujwRPiJko90WlV8cs385Osqsbekqb/f8oLfy9mdPXzz9119yxnieZfO2EZXii/zKlGaGl9679qdrl4YzFZcZHvKaCDfbzk0XKmMnDlPlWAuvvwL2/sb3fxEBWJrgcKYryCo2Ka2Q+0R/hdXw0lt8diukr1K4tD7+6+ltVppdW0V0EKnp5sbm9vadtcH6o1sF5CUas8epuezqAJjfVHjZWeXYV+0WytMiMxnpx3JNfr6nNWnjrNg3UWxMII80iILIpNhI8ZQtEyRpaNIEL3gM3zRI/p0m9ihUL5K9QYLTuWXfMAKLjmwlScCLBmFgUvtIEp4u/7GRC8on4bwQnyhP/XSDK0O8RBHSlNPPjCjSqWH1Sg0JfHxOPHVsrLEdUtawY/TcCTFHikw3k4nNP04/uoCsrQ8fPby58aKWZFloD8XYdcCHS8dB1nIXOgR9kD7tPOtf5OPxULh7JSNGYYLet3C98SpmF373deRGZpRfRTShsPd2AUkoOMP7pTHiKXmkWoNM1rVfOlg7RbzVBqa3ra3eWd/YED24vS7IurE3ePh+tcnK9JYhUCE6Zw2rZdwd5u5pVYZT0hwFqEKhKaDu0qN7PYETsGUCKAddR0a25WbLvTRBaBRugYmBvBA3HQs5xyIMGBCkhFjL0QEhILCQrTCNLFYBDeIFlwzxKp4AFEBKQ34KPixivmt8dhSl+E720+M4NC24AzEVRDqosMla7YrXVETlLZNkbEzes8FWbF4HripWlxVcNf0/7ly+e3B774EY2Cejj24ef3r0O0OnFg7wJj5TptNUexKzhP08atT5NkFit9YWGuz6eWMlVuO1H56/yPreT8MYXixvjAkmUIXdtstZ3r6iwNq6lMeqBq0Iko14/sLm6Y4O2iDeapf8apfZVm8fHR5f+EOUUUpGNqrDFRzGyeskJzttQHa2Z3Oz7QKHdIoZtpuXbzGfpjxxW0PFBWsREWtEFRPSyy6QnFj2oZ67IZbkNCtS0gn2CEw9AngEluIwoPwRgUhWE+LNNFR0pkRlAIwSzNiHKuwG1WtSiimKN/lOqOgmvQCzyceIcKDzvbZSbvLnNm2EMUdfJ7PpPepHSxBAONxx+N7J5QtXH5zee3C0t79/Iuja++TuwTclP0NIjdUF4bnjSSSNRjE72ohNrSzTzFW702Uxf/wg7QBYjcbPX8Hswh+/ierYDoAFx3t3pt2dKmshIXU3nFm6Gf1lY8UYiziH7x7vPd/ZRfKrEcL4dkeIax+tb47Wd3dOvv7l8TvxeKyuGGesdSfkP29ZlnZazY/o1trdbkHYh84rdB0aEHEvjHhvI+o4vqDuiXB/BVCCFVQoooSKRRchGTVLJAcoKgMtR1UG1ZkalsZS0QSs8hhgJKAwYlkqoi6OKLsiwgjQlNNxaAt7sJtyU6WoVY9yFZSziVtO04NzF8CqDqu1eSbZZuiCMlZ1DmqUjGNBMlaNMB6n7xw8/Pjx40NM37yzsYNR+6P7J7cebtRC9E4hrKo/6DXV1tO+ypLb8DGLWRiVZqcwoOP5Ecegwd4b55/C4Y3v/CxqIbRhzCwpM2IVttttymrGbkxY+tijZUhIcZNb6dvHX5/eHonyGwx0jHkksNod7Q5kdfL4g0efhQTW2F7CddTOcR0tA2btQ8/PzswO54TWFsqVIlOLiExTLUOqM6k/ZKgIsREZIosKUdAEYQahwRp+ETSlARcTvAguErKxEKKImAhwBcohnB4ZlYeiSQE6E/UUUEavAGChZBtlHM+N+AUgF5MUXygkF0s7spSmdFEMqFgqzE0JyZq/VmI8KKm7Z6OOfR1xdiZDgwoqyKund2/u3RugVKH87SBnt2iCrfvbdw9+3SOlcOwNQXoL6hJ12tuANpCsuOfncnPT5ULRa1o3FnTh+ZMspB5t0bMHx155Znq6Kze4lJ+ocCuuKHUyliixFaDiisk/3zo9XRshZS+MdHgEtmifC8LWj558+tV/DcHonvEDS7HUmeDbCG/B1+xwqjuD4NEiUvrl4zRpXG/0+4tL8rfY7zeu1+X+9nCHAyoxeVL3hSA8IYtemUjXYFCCGiopFVjC2IEMiprAULPiSpFKPypa7gVSzQSWhgQLeg6XAHApIqE1KanCnki2NKnL11yU77kki8VF+Z6dwCtiwFPacbZ6pZp3NIU7bUDHtZMjfNu6lEFjFVzBi8sHJ0e7CLalBbSDSBh5tX4yeOuLX4Uq9yfs9sx/YwNr/EmwZDZTFbOzUkFhaIzokGM1XvvR+VMsUHffWsnwY02127k2k5xMpJUKKP0TagqGpeaIlzz94PnjHaasRXoikVSIaR9gmpcA6/kXX96jI4uZ1NjJvLOgIzIMBEyiYfLlak6MwplSoVSseKYjTXHx4sV+v7+0JM+lpeXlpeXFfqOTRk2t6hFGLXAtQ9VHXo07j/sOdUnxEoI+ETPEF5Wd4JEMCUfhoDRQ+kXpFUIYGtW2VJuUaqEhvuSi0IQk/pSEsd9KFxr4iotLkwc6gaz6C4ErjKI9N3tpfqWShZvO1XBQl6SV0HKVsbPWGXwI4/DvgqutzW2NtkVcpChDzDPYWD/aOv7kiq8dWimvMlbHOrEnU13Jt9rDXLtcLroisThUuABknT/J+sGbFlguxyIQ8jE1NTcs0fliO5XLBNkKMFQTpImCRyZ5fvPZ/U16EvcOia/RQGQXxdbmlgDrMAQKX3pVrTuQQWsYsSC9ajbd2lAMmXJ3uugbtAUL8clNgxCwN20Z/4v9hTTvxMAPZI2qMaILayyoCEGysEveTusdEToh/Awd4eTQeEE9IUkKgs5Cag3ITmJJvqFIg43Jl+rNCNVdgdchyZzAO4WkEiklwLffcVmxBfm1eHGhVZod5mbnr9Vavv5MDeajR9SlvMoothxiLNNbufn+4db2xtoqEKWq8A4msKzeuLN5OLq74Wt4Fu1yzxIzT2eN2asjGWA2k2t3y6WMCLdmTKNQGlNa89xTOAjFQj0KjJ5mihBZhZm5bnsqx5lsniqwsX0or8poHVQ+0m8Pnp1sMnnD3j6TOABkI1Y2Gew9+fDLzZ6rdUzscBfNH3W26swmNnGzMD+bm+sWKm6UqucFbQFg9e0tW57IBJFb9biJaj9wcFEnwU2NolchrTWjVFwZmTTtyhyL4QX1wu97wtVMnLRWpjpk3fXuSkuEYGCS3rVux14uVTsw0gsZdVUIyqg7YRWYpu/GnesXGypS+5RR/UUrsqAS+315s98IyrO1+SvXSlkN3juT1uhXY++luW1Z6NbxYH99e/vZvdVtzjYXTXhn9fbOjc//t7mz/mDt0VN/YhR6Nm7ZtcGlnjMxMb1svj0EpRBDy2mGVIXalj85X5LFuvWgWHS8Iy54eqbbFd45W3lJAtTDAFIFyZWB9JbtIsxDM7j15HCErKL7+1v7TIi8NdiDYtwVifXkb19ehfS2wLLiasyZTOx9thP7brVaG84VXNhpibWQcW/69oYtv1Q1WDU6sZfNxnQQkGIJsP7P2/X9NpFdYakS2n2oVO1DpVZ9bbX/CDMTzYwn2fjHeGIH7BlPbIf1uE5jxy0FZDtAJiwlTnYJDlESL1WcDduweNBCSqw0O04w2yBYsVIf+7bKE+Kdl55z7rVZqe8JwQwmMc7MN9/5znfOvcdk+t5huh55y0ROUo62l/+dAc5JfH7/9k4VfStvb3v5KUAsnPhx62HbSwNxGdPb9x+lccR6kdmfkQhzI4DiTAyDzFjAv8ccUUqVgQeSWTdLGpC/qXwf+XmOrGTSleKTV+YmHdrnQ+EwIM/Z47BQmAMjCnL46cZXvWajsv/mZH8WYiFEwVUA1nqtffJmd3Zhaf/hF/OKx2xEQqRHmSVffC9QmQy3EDGqVciAMK5YoBG4xgJy/fiU98k685sITgBlGgvVOxV1AtVAlXoc2O0h804Omn5K+89SaISnYqvLxxj4Wvix0wJYtVv4CJzVrDePr3a+jgoyq3DJiC6BCJC7DkK/ZVKZGB8bq0Y1RY1h8ElnkjwSskiDIXAArjzp+aytgIRwIMNncj1sOnDlcXhtioinTJ5CzEq+6vqd4WuJcDj3Zcf3HyfDxcKx73ceXk/EEkO3Op3O80w47H7T8TvbUTsSwfBJTkaRskUqAPLAGEYvIpwSPCuRAVwxFZjFWJ0vMViVpnhUzBfgH7LwQ7h2de7K3ChW+BW+JFUk1wWQJYj8XOBtKobMytnHILDWGu8AWTWiK1yQWds5efNufXW93lvqvnRoZIfXN7JE5mJRt4DA6R8U1sRIVDdkSYHbDstgTGO5fzjdHd8/+OVvMRJqNLMKSxFBHcvQAVBZOd5yzRIQkdJAOMJN2CXmEodkRamtHN2krdRaoLGWlnam8RPruZubzc2jiv8kIMrUAsNaQUR6HBgwEit0yzNj1YAhKqjLy2EbrhtOOoZrU8jnfxYHSyzmANYgAmXDggIwUtkADaAaB0e4qSlTNREURGBFM9PsdH3/+0ws+eDA73aWQSsV7vtd/+DbZDH5I0Ctswi4UbfgKf8vGRW+x2LavogwIjcdfxWL7CElGlI5w/QwsADLL/JT7+V7ntEqPJ0kysq4ubk782Tg8VWnVBukOfe8HYYqXnLx0Se1Z5v1hYW1RUDWf2vAV7jlRa0FuFqsQGCcBuqd4d0zvLWUm4ACywzIy9f0+EQQcmvsHlHh57CphIon83en62RRoRC1O/qfoN7RMsbVS0OBQMCgO4vGyrMsEH5zpmKKS5aF0L3V3TrucLvU3mkTW8Fhi/UFNOtH9e7DuCJxS5U5xwBgUervVMCWz2nxmfG4IYYEJwWcQ4kMAquQ74ssyAm5MkakEbAK2byLLkXKpMIQoCqFIV1VcLd4Ewe9oxmhZp/7vn/4aSJmX9mGo6Zrxgp7cHDjcqaYmD+Eo920ZdktgNjZobTqoHZDeLEgS9NKqVKEz5iWYIRiVHxGvuJpa/a9DqQMtjTFYiEgy8Wvy+QuXT+v0tJ5iQibl8dQu3PfAD5Cdvvs3g5kgmvrq7OArMeLazipgXC1WkEpX99dGP7OkVh2PvAaROm9A4/BUIxDEpSjEreC4+xRVjC/IXm6O75/+BHV5DESQngzjKiuGwCsiXOBwFhVUdh5EIhnCFuILJoeIVLbkJDb2txfAInVbtPgoT0QWyC1WriDbWup8c1md/u8SqFT7BsWrONmIEKRv4MzM+O6IUpaxLKKdJMl4YpwhZUv/YyzAFN5xFSBkJUvyqKCOwJAPGAbC2uqYOGmz6kUjeZOaeVg3d84zpiqmvz+j/7KnbSVKlcX/eFXCZD77sth/2ourSr25JZ/6wfXNB0Fvg1oD9Uacp8Zi6gxfCETACzIo144zbsdXBDvTL3/f4KBIRy0u4usBuQWvHZtROMgoEoO2ebUb+X1S/qi9OTubrPRIGmFnNVbAWCtTL8lXOFu2wtLuxttgdWcecV6AC5mY8FrWzmyGlC6KyZmHe+BVfj4VJv9zvwaxzFRJBSp9zFqQNI/OnQOVNZ4TuNOAyZx3sBiEPl22Rgac1vN/dnm3k6PQIVLdGgjSCAtOGrsNw9uzFlEch5FQW9QSFV4dRtP8vhkXDfgXIMehzyG2Bv0CSmYQl8Rl9gVK+RLiCyiiuzUVEIMSYomcqcV7g9sR6W2Og24S9FSQjhzJ+Aq4UzacvU7ZdtKJEy7PD/qmrabdgqj85AUJjJOuXxHdy1NA5mt4YbzloYTi1OOmgL6QkY0NcULjjh2Gt7ewHTEd5glb5RLrFJfA2ZRvaNQBGQlMiN/vSawFadK3yDttxuzhNCTlb8dzO7WG+RcrVauYjT8CnB18uZtrULLyNcXbh4/XD5Htj7vEyFkCYrIAyyegWggkMuN6IbnwdlA9zbNxTvE7V+cqsj61e9xJCEACy877SAUxXkdE0OBajUOmSEadyLTRiKmg/AlIrX7ecydit5rHNXqOzttwBVERIipc93rAAAgAElEQVSHLeoh7QG02jd7je7duOVRACTLRua2BeU0tE4OYmHgyiT29gFjpZwIp284FdksGu95nmn13UeMMyi+Cuyqup4u9dN1geWdcKpZl6JCg5W1dFkIzz29XHYiZTWmPXigR1J2UbUvfftZWSunnYj36JGc0tJFJD6Jug95kwtmXNgHQz09Ymgi6NisdgOXi8okmPkRf/aNUUZZ6GJhJEwiZ2GPV0L/dE5l6rrfmMuAQYV8lKAh65/d6X102UFkVVYrNeSse823b95WZgFoawtY4zm6f/szedCYJZIDxso7Ei+6egH0bKgopqBgRfbHs0m3gXuaIusDHAPtYMcdqyuHDGyrxViIHcTxqjdobCDDQJaZ2UBmFs7lC0nrX79oVABLPeApeNwBbAHAkLGa05W9LzorhkSmF9OcHjfxGY3Tk8ro9fNB3GrNgwsaM/HSJTiwsn2hPnC0UWNR8AG2oM98VsLUOkQTfz1e7ZAwExexJVMgZ7984cnhjW+LkmQqveGNuhwTpPKjuwdP/mVD7DSWNjZ6Mi+N8o5siYoj2D0Ngg1R5YX0Id0shrENxcZGQYwv9AYoKPPCUx/7FAqzDFjAvradHv1zVWUam24l3n4l8nMK5915cdDukee+QHuuIGf9BLhareE4EHS1Ggu7a8Ofh3hJre8JigLDlUTtc0Nx7CHUsf1WxU4PkhVIWpRkn6bI+vAjHM6rWhQK6e6hSnRw4hyuX6qOBSTWgSWRdGcii/lYQFt4SsyXZ58/u9/s9R7vtYG3WnsAL/gDrayl2kr90D/CpIBSQo+1FHk8yaYgCHeZfGlyFFc+o0yIpbDDjjLkDLNHUWCVSkhT5GmTnsdMPkkWJMVEKwjfTcOdPBJ/eMVklsrj/yNITuweaPO7MxEh/R2uQHtlS5axBQd3vZiSfAH54MEPCbhAGtMsHi85iczVpu47fSKux7A3Bwvi1KVKjohLjIWOA5acStxuYCowSZRFXam27eYuBFP9ijMTWZ5ASZFMWkN3jg4f7+DGwQxYwFk/nZycvJutsd22cfzz+rPNw6ekbnmzyaBYyF5VE/TqRC4X1Q3MwgVINsJ2OZ3u13RAZJ05TYkVSeHoHKXfwkArAWiJODDW2Nj4qMAiOrtLpL52Z9uEIm/9/cbK8+nlxelWCze8AFDtwREga+nmP76cvd259SeHlasZqGR2QjzeggoXUJ6/gsvqjaiMPWApLPGy6zZVev36Igqq/MXX8FFijjaxVYHUTZIS+mxhSh2JGkHaosag/UtxK2+DQMaSBkve9rv+2ctlz32JBsN/ipI5cwOe+iRgStk9v9v1j11P4hGGes2oKOcxVQ0vpAfG9RgVFbFqSJ3J3NBGFYjv7yK+uyn+TkkAJrl4J2iV3eqFEO8dFeX/8XZtT2mkWbymtnadh62pzMM+bO3Dvs4fEmiqESVNJ00TELnYIhk0JiLkUiYgGjX2RCV4wUQl7kDihUQ6FTAlcRBI0GSjjqnK47yl8jh/wpxzvsb8B3YpVVBcur/+fef8zl3P1GOBMpqjJ/q2Vxo5nB0OHGsJ03HT0wCsL5t6G3fCW1Gt78lM6muneCKnA+v0wFssig3zb/EHfF5Yy6ieac0U93/OrjdIyz/PoY1OJQAsJYbFC6ldigWRFZHg5jdzZLRTJUjKh25i6HN96cXCXGp9JDGFw72SGTWbVacTw3OpzcVyNSmxmhMWadRXhb6K6UNjcCwkozEqi6i2fL1h6o/SN+jhIi8P9rd3CjufPxx9ut3RNQg3r58RLBIGjMUgz+lpC2ENBnUBZAfCnpCPpyty3UkQVDOSj++6Xgfx9DJs1LwqvBS76OO6X69Uqw8ehzVdCmvM4KVHdr1AOx1uGQ1FzG2geDam2xMR7Om/deLh7n08/vAZznR7//jNpDR+6wT2gw4sJFnjlDwfvKnpOGAGTPPrjShoRfPb+k5hmaj7Eo40TGf//Prn169/pNlYcmwwtlScrr+ST0nqaTE+k11ms2iJm1BgocTizK1enbsH2Jmij/S7s9OFP/wXpxb7KPGawsFsPKjNjiQLW0q73SL5NcnPoHFMGRppk9G/LIw+razn1c0UVnWmUk/n5lJPsBhv68n6GiibxwaeBfDpU6ROyX+v29hmx3yHzUpNi3hgNAY/BuXGB/vdx9nU+SorvIbH2vnF7NHPvddOBpF4MVFFZiODWA+n2GxYkmbHAn2Z+rbxhC2RwOKzJWcTkV6Mmb8vlY664afDLnU24wIaxkePSqm9KE/vhOuBBeAlPXCF41dgNRTHHeBXJLEw0yEcZtoQEHPtpN9xMMDOlB2Vq6nkwXznyUkfAxZJNnq7Z36o6RbVWPyBUkZJB4gyd1jJFZZAWqFRGIulp4FfLXwB23CTpntRNLoYW3lDwBK/1RmSr4FqCLgOpyWErgZUhG1+P3qxiK423bme/rMrW2358SevvxWnBZKWxuR8WGDUhSCy4nGEVtAhGjidcpPMouJ3nvQN3jnJ9Xy1emEjtvwItlma9UDcxLl8Tyrl8tqerDUDQHyTdGqslIlsI9ddRbKHGBB4YJ9+7+VAj+P/q5VqpX1tfWZBnULxN7O6db5Wrmx8uHnx1mA/mfH6A/JnVEganLCA9fkCGLV2TG8G00iixpN4cIGubrMWjvpFIN5RvjUa5s2wkYHDR3tluO1RtFpkXeTxQNnwGXarxA6HpuCEDcehXab4NktFBtOwM9AzaDtK1xH99fMPthaxfcPVeg2et6ePJsZv9XmAh1GZD5X6dI6P/trKQhhas+jGqHubYU33aurOFHrbYR0TI4irWDoNPOvLMwas5eWF4sb9/8lG5qM2NnOZmX0N0OpwxRXM7MaiTM4Ap4tslVUdBZjE6js7T9b3//J7W7GkkmN9CTmKRGPLGXQ4WIBjOV0RF88c78CwmtASMWDI9I1onfxNrVTr90upufXN1XVqoAVLXK+Wq6U9BS9cNJ4mRxDLYiwG95rzdlyyWQUJk5F5g9Hs80U7f/m8VqvMPp1SB2jKLxzo0U8ubKxVarPJG95BUoEB3UtEtiEcIuwETKq2Wm2AMKpPBOWIDUaoBFbGNPT3bx9ysOPl3iv7xx2azIl86Hj/OiUSy4Qrmrkr6ZIPu95IkqA4ImMmzttqBhHgZ0nvlP0XDfSMvV2Ei6yvzY2oVOWIkffs8rPSCmyCJy9GA9c8BKxAZ7NA7e6Ql9x3GiMHBCmNjCBRvFlP7ywssXonklfT6ZlhRNYf6QQbEDDd2EpFZJ2oGrXTLn+s95/VCXoQLt8ug0po8yGwqEYuQIyVud3OrDdIyz/O4dRLM8uQ4Wh6GdbqSFbsotkB9N3lcgXdDo3jT6kRWYOoB0nJoOBSRh++Lelqq0ZdaFj3kNncSxtZa4xSUYo85aAy16imtVmGJjC5T2DVXpijPS5tP6jWnyRUGjbAoMXCRACuzFy9fL/w8/ggySoPyXfmhvT0B6wdFpOiYCGIAEQDpFdIsAp27GeKGAOkcJ8r1dlXvbJkfghcPhmSJc0wUKvO3uBIe1KXG+R6FC6FD8HHBEFQXGOjDg4NZz+5bynFIRwNRz3aIaj62uxqJpdRkwPJLBXF4okmMzOLddhV+66+fkRVgFxZYBt2dl8f8p6aCGTLoClkRFxJytZWQcVBMonY8DLi6hkW06WZNkRkPVIL7VlFJNFP1g8jWIy9GwQ0CENU4YSQa/P5L1GaiF53yYI6Z9YbpOWHf+tJfvoUIPQGGrEZNnkc4nGXwx10ByNu0cBSX5i3SGTDbkBsoZkvi6Gxm28O1Y2t++31CiCrUm9/sLaR3X8escm8HgXiv6Vz4V7j0aJvdV6P2G0hm0ziG+ny5ejBWnlldXl6YRlLnndyA/lcsdgoFnfA3IR7tpNbB2jhDQMm2tSHpAx7+qJxU4cFLA7QBx0hE6btC4piDYFqFARMMhNvtFdr5XXgTd0x2AL1116b9znaiKqMwEMNiggUbHTYsVbJpMRd7vnRCbG1F4cJthmwytGL0Z5wt+d1qVyulx6pOBQBJzCiY7iQzO8WBgYwcyh9tVx9emC+BuS9WTOLKvHTlbDeooGElhGzj3CFOFFLrgxkHmFz1/Qj0oPYtHZmeJWQRfx9ILbyu53mwSA75Y16ZJ8ynkNxi0kQrDY71vpyHCgh5O6Y2tbFfp0t11mRrJbvfvIisMz6wBZWQAIwQIUQwl7lLhe2tphwy4y/G0l0a03uzv5gu8Xnh668ef3++PfDw/39w6OD968f/zqm2MWmoYUbk0WEmHMJvURm95UJAVkBVdVjFOKie6FSm5uaVmMqJnjtNAq54nYht9vYKe7uNhqUPZFNVSqxj919BCwmsdjR73eSS9diAniBuO0AaCnxOIAtBCuuhLSXdQBWCn6s8xk2o9+7ZLv0qQwvJbCCxIb73RqygowKoZxSEFaWYGRs8vZkiIoUDGYclO3z+/3ecLjTnq+DusOBxCCt8vlCsbH79kWj8W4b+4yifzifWV2pruR+6fHoyhA4Ftzei2+eX6Z0LBZ94Cm/DRdJll9dWE1OJRIzIzH0i25SP+ThmeFN1IYjiURiOb9Vum4/3aSMqTJlyMOFKsAAyIWFFAN2gP9S08boZCwL1+iseoN8/7cwUndWPmigKK5ZjxmiXWiKO51OVzAYvDN2hwInzO8iMguR+SRFxrQkxXlnfn5ydHLy3uS9e/MTQadJYia/SKFGkdcdDXp5ItCAicd3MaUQKyupNaQcfZgqX00vL01l1Ewun8snSQ9Sf8DcQOPF9u67fC6ZyS2fry4e9V4jYBG8ehiN91gdTjxcALA4RqQcgDFUj6DVTcC++Fi1XNnvDSnhY1BUq0FJkKUUvPTeiDDCBPUOk/5uBT5ngl0VmZ+8O+Q0snJTswGEVpvP0NvaOj40Uq1eHZmOLWQzyXyyUSgUi3kcoNcovisWiu8amJmWU0u12sgnjweBFWB+r4DH9+qj0ddM9OPpwPQjTRTc6QsDamx4ZAHtwU2aGEdd3AlZw4mEmq0UnRL/TfZTGi6SGN4Sx1MXbMRVqQGgDxV2VxcTVyyJFM3CM+oN0vL3c9h5R/eOksBqNVNMRGRjjS2OOHAsgFZkYsxq1phdiD0cGajIRCepJJPRjOyXCuQJTvQKiSuUbqxiFf0NxFwN3F+8XVtTGmkartqq3WzNXs3FXOzV3uzF/JAIFIrJAA4HOaidyMiEJGbJ4GQkhFNAVhwagm0DqwGcBoF2IkxGTKQSo8RjajU3udy/MD9h3/f9Psw/sDU2hcRq9Onnfd7z/Ot54zR2XRtvIrKsVs/JN71iRsxk0jnSVArI1bC8msmUsJXMv7u7+wKQhfU4xf0bZzd/WGAC/juu3idnPC7kVyfAC28IpC8DnLFk0eACpHV0n7IXHSAm39xpuJbqAJI0oXb4VJh2gZwEBALIAYkRnQ5Q6YjYA6mV4NPHL1M2aoUfZVVUyF0j371t9A4qGZx+Xc7Vdtub5U2ar1P2K3KufVQ73Nl+065t+mvZfm/r1DNDoyNQamE+Ye781DbO28m5cqfSSbPpot/0r2ULmT/+WK3SLkI2UBKR9b94tJQrLv9qYnSluRzkgCl38zS8u2kfxlvIEGIb2Mi3oN3nPLf5TIsJHnC4otkg1/72d1SlwjAWNeIlCljPNKTHTU04fEBncDhxfJg3EEolgxGtludyzINYIicsQo4vEAgFAl7kNzgFvC7ckcpsZYdXcVGrDlXbCKYf3z2KYN+GCY2P1Wa1jf1376CpZERZ9Jdzit+/FmvF1arabBWasWgmE5VFpb395nA351dy1YO9mvcnkg0Y95tkQfjZu3CteDiddrvDHrEjwAhmAC1gMOvtiSkXqC+Xb9wzZwUgTRv0t+cE+A4Wn8Gr+OsxlQVvOpVMLc0/emLqaAVKH1IXDHwIc6fPe/3CWkxcE/21zcMaBkRk2sOFOyJi4CG2N48Oj3Y34eZo7C9/HGcSHqPf+EU4+RgYZ3F9My/1Rtlq9gWUPVkJRwuxkhofjCmloyAWonElfnDspKV7vKWFlZEOdawOu8FAyh2zz/i8MDo6xTIYbETKxGWFw8LVzAa59sXXoLBwliHVdA4Ps9ESbAcYKg+dwQ6H1+sOhMDQYah0EHinOgjbwD1EhjIlV/AIBldWEkH49BHyBpKMBZl5n4/2ruO3d/+KgCEkQYOhAdPQ+d5eNY0bBsDyyZlMs9mUKnkpX69U6i0wDM1mWFwL144Ot7GwPn6wlzM9WJgcaHh2LFicBC0vQiuCsRLAlx2FF7IWCS40di5sj0Ji0sHTGKwzUCVHhAjOQZ4wkHRo5enS4/WXdouGuhQ0bM/psGb04btvejeipVhJkUGmlxUxW9iIV+uShBPK1VZBDculTO7o8HB7F660u9/46JkkXE0sELZmLBfH68NCZ4gsIU/pY9pI96zxcxqMYUGlZeQMWDQLEh7L8nN1yajH2Kj+svYIzmafw0EWHFsycU4PSppbU1MP58bAEno+z9thJa9X07b61y8xT8g6J9l6jSHc7CZoAS0WvhwN/CI0hYCsZDBgEhh/awaBdzMXW2jrrKmVJB6pZBLgZeWvueR7limhySjaxVenz+w+igaYyBszzp30DzbEkiKCs55OZzZaap0NecRJfFtSV21K4WY2vFo7PDoCpVWLHhzs6B9c4opFSSfn7A7OWYgOu93txA8wigAagFGEAQmYChxIA2IN7aQOs+2EKDuiCn6CPRBIphIJwNWdRSPvP8bgMXU+jL3+uXcf174Aq27mVsVYi0CFc/8q+Uo+L0nx+GpYrLVRx/tzm4Csk5kFzlfEGpOW87PXtnEtxQP57wcHrprs5/2GX87ioG2ciEz77hmyohn/ja1XBhtJfc1lUkejtUVAUgJhgfuLvjXqWRySNU41frc9nsG4Je4WzvzpSjoq/vLV2BSrN0KiHx3B5A4wGCYHaZMAVWU53MhXbjCGyUTCbmZqk3uGHDs2Cmd1LCnclboCnysrlg5/GhlLw6PMLLkrGH49Pf/dbrxptJgoSn7T5Pv2bX9fVTLouCvyaqwu5RvdYqOxtdXYonmySFstdUPdkMXdHdTwOXW//2Lq3mevENM7Mwt6wJTX7Q4hazHycgZCXhBMZBfB5umIvABf4Dq66GsE8WQARNoj8F8CzhR4wYFkcjHxdH79l8cRS6czPDTEymhxkPPYneVefzWGa4v9ZbCAhWY1jyMk4SqLeK0SDh5v1mNZRdnGK/XXKvvF17PolWG9NXM5pt+/+LB4d0TLIzj06wTDaHQe9/+NI2sLcbaUnD+IZ9Pi8+UTt0XLgvQkdrH4WG+EG8EA5t3ow5AwqFv4tjAsUDukB2sSLyd9ob67stkgNA1EoKWwWNsr3MIB4TglTKPBRjCsykIV6yXhFEoiskJGDUZezNwhJJ1FD/FmsqaCxFjBkLXDDSQTp3p+RliZ51+dnn9YYbFxkwmHQ5q0jsZ+Pg1S2J8ri2stSaogrBpsnnFFKlbqQAfNeD1bCKfTNRBa8MJ8b/mcpaNnWCZ6Fr7eBpIKeN1gvN2g8wBlgQDRl90N0Irgm0HS0ukIWnakL3wOyQqzoqCrAqAQQ2DUF5eezK+vryddZlYGzCJwGr3gbvb2quGwLJdz/rS8IUn5fKW7xQ+4BYr5bqXVqlfVuJxuHwK0crXuQfSXB2SJyIcFYN17++n98e+Ru1QO3vn8G/Ilzq7fL5VLUb7eN84+wkr8eeMiZGShRM0g1tCx6fCecLmmMeJuYvV9NCnrIaUJb3soU+gZlGRdXbHfF//A2vBh3kcrYJgGGOwWBrXMtBHGSJloZwD4KhSi3eOJhNusYdl//Wd82eiBTW8FJQavGuBKf3kzDqIv2uHQb+9OLnZew0/HwdvUbWaxaZVegzbO+cHh3pDyleLWcqMLf7K82lTVTKvSqkhSS2rGWvVCKa28QRuTu79fufOAu4SsMGtmcsIMrAOWGz7d7OR1InuRbXQ4nGjzgKlQp0fQbQSvF+55tJ3wcvRRUsDMK8HFxaWl+fVHdx47jMybZQWwcDJ/6u1LmSzGb/1yWN3IV+BagVcRVd1WsQvcugUmPC9hulSsbe8ctXO16/22dmaBWW1Kod8bPt45O/vwvW1EyxUoFfjoza7F80ZfUtKlLDEWbgiIxkSxuCedAq4482tY2bt5GiMrcJdMA10Z8Q5F0dsZGhrFjjVuBpkt9PD2DyD4q2hbvfbl18BRbHATTu9HzrqFvatgDDsW6tfxYSjLbQf1DiormQDKSjxdjOhZpougY9Pz4izCkQXESdJr5gEaEvaoHkhCaEBX6p69Ozk5f//CRRUICCqT1WwZu9jvy35RAQsnFnAi9hawVaVeqFbB0yrLMVWt19VqoVttZmNxNSbndtE5lPcORNs9Cr2zGvjZmdmJOQPwVcjtTYYAU0lwT1NwdjsJOk4nGDsHSnQ7ztd1oAqDf06vEx1fJ3q1uAV7cfHp0vwTxNWdhMGCxf68+Q3e8thJv1fEzcU5v7+0Vqg3u0hTRakrbbSi0Wq+UO9SiUe+qlajcmytffhmt727urf88QdSgbNUizE789PL7bPjs7PzRx1Bw9t/WXhmOvRW7PclsayshWPZWDiTVta6e9fb/3FaSbAOuFNrw9m5KA0NoNt9LGuFmTGMYWEzt4cfbGwmn74GV/DPKwiR/vmrEXAKR/l8PUEYoaY8AeU8+YVwGxjRcSJBjPIdBXwwCOBy2Pik28sIPPdtOjYv4Eo7QF2nM/ALSbNHvgdYXZwfb7/VUtmXldJzJn1wqxdX0uXcZjkTBtsC9qSYb24USpn/83atTWmkWfjD1lbtp639uv9nvCyMxogZFQUmUXECaDS06yWCabu5BG3ttxGhCYFtLw2ESxKd0ayBaLxk8JaAM1X5O3vO+zZm/0DSEpJSqwL0c87znOsLjoHooJIlSVLyuWIBPmpB3RTlbO0wGy0XT+7UaUWH9fuhy3o22o/AQv86jey9QMOOCHyPFj2REBms0F9ZUd5jxQpZE38NaDwRWgEW9AMLbs9556xOXM9oZgOR8H7Mvlj1jE+lVE3SMmKhCCz49uXbjc3kpsqpKS2jAtiUUrwIdBgP5DeTgprdr1WyldxpLjxpzHbT2Z7HM/XXV1dXH88vtnrH2wyGo5LVYttqKBMfJmJJXlZlsbTxw4clcrmCWq/ZMQc4N3UPujCnMtiOK6ydlj6aG8VMBESv41Mj92Zu40HjmXb53H/28HuMrbImP7PZOM6TRhPgsug5J2g9uJDU3k7DJbgpqInxs/eFAVoJW6+p7XYazNQkPVTsi720XdDUFFaGvGrZtXr2Li8v6jefv5zbWlkGjJ2mOvrlZF2TKQ8GksXcxvOXb2IlEY9uwLWAcBOJRHRVUQpCuigK2qaY1iuH5azGTVTzIVaQZlNYgLHRYSA21IQRpG5E2IILv0DTY/IUHRRKLppSYMreRZ0xRCcY04bAWwGu/OCu5jzelUWLsSGT9iSaWqden1bjMp/RNV3KCKVCDELWWK4kcFgwl2QZAtqaxumFeDwHsCoFFJ5EDw/Bu66enf/8iM1NT1L/+mj+v+iyzs/PL+YsLeZWZn0YJYLT8jayuSV6EsfZf9YL+5fbju7+2/0X6K26bTRXZ8WQFqiwiy4x72dFR/M4LeaMfE1hIQ/ersP4HnXov/9zAKU7G8w2Dw3jRB09tRcPuMbqcq+lq4sGhtSyHZgAjYSnIfZLLIeWp4HzW5sNDpQJd1nqDpMrPcxjNWsWLZ39kdmDY8BVo3599eUI4hkqzLDvyTSU+OGUB/xEsxrhc7kY8Eouj4e5yhJRdU5TdTWjw79ECLt5IaDxAZAdO/sg4AMnZ+ds4Lg5EDY5OjPmAryAt4osUGcFig+81zTm4iAKQWTRt+KgWVz8s0DRFwEKD/lCVFvNA66AB+c8rsHer53l8NeAa6k6QVKaBDFGOl8sxGJvYhu5UjqD/opXMyr8QOYkovEFIZ/PEyEgEml/v5atCCe5rScPmwOR8JonB+pX11hXhasxazWPG1tqaceq3RGcPb5+vV+rvb45cIcXLf0sq8OmyXsHFxJgKDSYxcIo7eXos/RjDgvUBq6ZnhkdGRn5v1TDz3TMniHr29eh8VRVHKNoAss8jj1/A7TDoYWWdbrxxCY7sgcoFGAVBBbwTMIXAhG/vLLs6GZrfpmxsYx869c4kD1jssW69eu7vYM9xNXN56vrsBmNq6eXwXKqVn3DcbVsVk8FCoXixsu38RLcJoJrTTkJiVDWZY5IKlGEZBFIKCWIKnzoWU5brRbDT+i4DroCnGl4NtOGxAYsGIEHOKEIvFx8XlhAcIE36+iyLAKObB3OQVckAmYS8fkiSPFB8FZPkQV/2/J43G6ve8sxaGptjnxgxmH8Y/U0qaoEqDkjJvMlTF4VlVJA2yEkqoFtaIQr8zxAS84nk7FkIFVUxOghICu7fvbxF6Nln42D3Pd+vr65Nh71PX/Hrrnttv27p7cbFBQYhcvRYem/3ZUBv2BZBF+M/SY2K2Z2F9vttPjcR4mQRkedw+MD2IhIyzm3yDKSs6Dev32z39/+8tOD4fHm0tUWXFD8I2Yf0GO1sMAQ6y0dtBKNsRW4AZeDei3QWgkfkEbQN+3s7WF2ZkTNrPBltIwjf/S55mffHx0cHewdA7BuAFhHFjYfC0DsN/WYbeunfDQardSIshnLxZ/Hk2JKViVN0lVVB/MHXyapEu5x49PJtEz0qCjweja7w3H5k7ObJ1RdsRsGwLo3gFEhsF84EcYID/O1CKxw2IXAcra7G/uyEhDkneu1hQ6gS18iAW8mtLwcQlj5KQ16PV631xu0jd1OWWH301R4o7oKrCwB26VLRQGj1nxSlANpABNRcTcmUbRoCtxvmUvF+XyG8KKogyCsVFInycQflAfpKrnJx4+6L67r9frNzQ19rl/+6bf13W57Zz0jvQwtrWwdy3OTiJkAACAASURBVG7PGLZbgHgErejArBytsKNyp0l3Ws1pM+N+AIMKjYZ3Y06Haqz73+GMir/+Y4o1+WG/NK5xHvpxfHwYN8+wVjy6IaQbzyihdQ6MyFGOTIPxJ8DCISjH83HmV3wue5/pdpKH9YniCFXrbn+XY3lu7T1cn/58d3BMlTvY59PdITZkT43zXqO6xHHR8o6eATUMV64gK2mC2JLSGiEQHhFVTKUyGqeqYnET5IyuFGRup8ap2tkJ/+AxHZhm2zkmH96bciK/TQOkEiHwVSEfCPKEL0K91uDYq8rG6t1/La2vT9y9+5w7trrgZ6FgECgwSDNXc9vbiCuPe3Z2zufowjESOv8IuDLNXJye5AFX0aiuJoEIsYaTFgVCJE7GzkRekaNyPs0JKZ3ogSSfh9fNJzPazuFOtHxntf7HI7ZHjm4++vfUi5tGo94AWNUbeF1cXB65g4O4iM/c3NjKBhHhv+7ps1vRViLAGAs2B62ALnbY7dg2i12jRpf/bosZe91/ouPkTZdlAOwXoz/5m9ehcc3M8BAdyzS3dIIHxRZJcFjjQ3R7BXyY9JwKZ3e7c5C2klpdNlDBLnRa4ABCmNMCp7WC98P/NJSYttrH0CVj9+WYvd0RCW551168eAUPANand9RjXYB17tlwFWsnRRZ+enxVqEDklCWZZGkzV4wVdJDHkppWRQXoRVaImiIgudICPBQlyYEWEwOKvrPDEe15dcnzxNifQLc5TI48MNFSAab/l4OJRDAYgkA2nEgAtOxPy+t3X5aiH/GWftQ3Jpb0V7YViqkVv//p/PbWtsfj9QKy3O7ZNc+Cq9cYKm2hM1v9pHoHcMXtROGlgjbPxwv5FE94WRGkDK+DV1V1IgmkjDkuouZzaTABQZG42n40G//AzdCVIXSs9dHk41HXBbsaFwau4NrbO1rzzAenbVYI9vDsGez+ccGrD66AGaNshCgKw9lFq3XR2eFsxxqhEROi+Gjr7MStrKwCPXPLg0bjOxVZ3/yMCqxAD2Pana6w7OwEIsR6DoSFrO9vly41wmVZHc5FLOfarMD7LJFIY3PkD/iipj7v92/76QWBOnIJWPza2qwbnwBYv346OnpHgQUuy+0c/tE4kBZ829TWxKle2d8vc1K+uLmZKyQDusADB2YUkgHdLqdIRpSJymu6SPiMmFcIV9F4PqWXs5weOD29blIhu0aHzajdsV4Jngqclg97xMI+sIXB98WJN3ytIimFXC6gln/ncqvx+jTo9RV4A5hh8P/mgQvk1Swga37BtWucA0Q3eTzYell9SyQ9WtMySknMY5EJaC+TSkPgKvO4tUMVQV6JGQLWoBOxoMgyCShprbZfjpIPsdAT6qzY/svH903vG8eX9AJsXV5cHh/v7e0dHPyPtut9amK9wtN2pnWmnXb6sd/64Xamf4gQamLGkavID4GbAFoTIkruxQSJedl3E8Rs3N0AYddl965Aws/EQi7BhF8iSlok420z03+n55wNTP8BVo3Dt5A873Oec95znnNUPaoXF2ZmAsHRpVgUPtHn8XgqgedjaurFGN2EUgfGzSFqI2u/dbvdKWHRrKHXE6JBp8GLudpmy32zvQHV+1XfQ1/7I4p1L7Xi43JxDwTCEFZHm+1ZKII6cQvt8DDdgHT1IbAguXpEKh67labhF8b8PJ14HockHdC1RJHEeQLw5cAzUyyWDg4AWBALkbLOkvdwQRXNBeGd7teTkb3yVi2TYxu6uv52Q9Tgm5FMVVYkGUIJ55qgyiKgDElB5tqqlD+1c5s8h5vrrE/7Yf/4k6aZEOZcD93eScwHQbljBT2VxMbDZAoid9fx7MhGJrxOG+NwQi0r5dncm/MpOBgxPA3RZRJXAYQViPfEfFfrhfsG3k48+/nDvqBgB5bEdEFcAXQyxbBMNZdjCmKJq7Kt2AqXNaYB1fJVkedtmTEtf1jek0Ze74w/pseZlv67O352vAN/jpvwgp8qlerR0VGpVJwBYAUCweBybOmneDydSqTgkDjJLVZL8JxP4rD6MCisduSrDqwmYk+yh0wJ0YG8iat+p32V2nao5fab3111efQOIIlaZlochQXBkBqyHJ8drCVsd+I8wW3IaicnJ0HA470u1hMhL5l+MU210mTK0SdxOFjAXM+pYh2MOtCaAWgtFEt1ZKwKxkI4nI2+G90+wHHIMV4ZDO9nC4e1WkZTF1eZkN1UrZylMkmRuMq4JYsgjnWRa1zAqGgom6KZye9lGNcyBZDLa/vZ1PiTS2RBJu/x3gbYYwkd1ZODK5SDjxpvR8Sa6rQgOBsuT8/L9trc1wk4DrFo0DkQgVFkqwDIrOR8T9M1Ff1Ct113tz6egJ6yawVVEDdVcVEQOJcFgythxdBknIrnhmhwzdBsBTe+iFlJkhUuWFL5sJCfPfn8HbqHkK8kGlJ0D1WQowha9MAPR9V6HXC1gGwfCEYhQY3BkQVgTSSbVRO8maIO7Ju9Q73DkBJiuwwOPzvS3e8b8NFCjTsXXckPLpND5CwA11+u+B76D03tTheFLVh2d0QWTa/iFk/M7VAytYPOwp4/LCr2gNCClARFPMQWar3C2k8igfEkTs9SbCm2HMTvCU7/TKQIhAUfVb0KaSEhK9i1PRBye/0DfqcQu7LPD8vvanmm6+rm4uy6xrVNU1E1zg1LUTjDaQUB6Gp1VTJNIDBhwy7UmKmKGXSuzu6/boxfGHNQ7dHn7nhEhSl4cymAFLIqvEzEVkb08gbhyoHV7O76+fE/82u7Z2k6C0ES7XQYkLGiE1O929utl5u5XB065ISynclomiowLmRXBAvpKQuo1xmzdMXUZdtiqONNi8myyleUWkETmBIu5zPCie3FUe6mc87TH559GzmuwHGDv4QvjIOVxkFpYQFxNToKDLocg8OahqiQxMIJdlEiX5Fwn0Th3narfZim3DqdIrQL19c7u6io3PDgst7woNnfgOr9iu+hf/+n7lCz7O4mTygfAAv7SXHgvhUthm7coEm7W8M4DNo22eW0AGATHKALzs/09PyL+QvOgn9xUvIxkivRZZArqLQiKN5LpXq9jpR1fHac7nHf9Q24vT6/O+R1bU+9OrHL5fdbGUMXmKwvqnDymSIZ6I9hwpcicFUwc5ZsGlw3LMNiTM8dnoc1gVv5XE5Z/Pjp58cOXeELEIHPdQMS12lsNkRAYR0Bk4zUf0eyhXW6yZvFlgkCmPL53+/M1yyyDAyLpSuMgwgsEIeBaCLZTgtNnXVCrtD8m/23ihIGMQio0ri4LpKdo4Ldo8CuBgcdD8fBkrigQxBXNDm7mcuXTdGwt2p52/og9v0H2aop358OuuKVo3q1Wq1UHHxVqiCvSsUiIgveSzAIdBVHsZGASA5J7dgYlUW7eiCA9OJdDjZK0i1hZyfVdlpcXn/I5yG3Z/KXoDV5Fxv3+l86wHp5taYz137x15Cn6QhFPcl+j9ePjmPUONNC7Y3klgUn4hbOGPbi9dr9nvvYTupcmjR7+kAjo9BKpFFtYUhMA7RAHixTbjUzs1BCkVWvNyrVnZ2zxtRNdzfa6Xo8Xg8wZenDj+XD08M9SVmBOCIurmqyZkLYswWTmxrjIN0FATJ3xJvIrRzXVfX0c15SubyV0STh5MOXl0/+37XR19rZN4V1BrowTyXiacBVPFV5syYJu4Sn3fx78R9z2DyhZ2rv8tm5L/hW6YmQMESBE1lKT7Q3baxcrSAOfKPX97Ny2M7bGjeYzvgswhzCtsFUZmmM9ogzQWempS4algZZhsFytT1FULVwoWbbP+4Gxy9s6/HlQUtf/eCgAWiqOuiqNhr1A2D4IipTEFhROKNp5FsQiBMQIUCE9PVMdt3H5kSUV7facbJt2FnmAboFPd7hW/yenJ/vkD/cQ7rNob6Zh05zNCDrak1nrv0Kwp7H4+x3ATQNdKN8R1z5ySWObq9wD9c9x0Z5mNovaRysC8UWRBsKh/hgJT4xgejCxc+IK8hngAUCmBZSxQGQRfp95ywy1hbq7kYQA6y9LYP/Orm+VXtfztv6uhrWVxYNSc0vKjJTZc3gKkRA1O/q6oagbqjwrIqCKOdP3yvclG1b0viHj7U7T5uwwjaHJ99vf9sDXDqFKSFSVppu/5YKf9Ot3VkkrLdz9fHB5FdjbfftSk4KZ5S1lYNAJBiIjCJTRWaIryKRWCJ5bxvXM3rJgs0VOvr0kdtoYM8ENWdbm9xksiQbq9yyeI4zUVcty1KYagKJGaDnuSFsGoVa2eRqZi8ctq+/Kv3wxKk1ELz6XbcjqBPgzB3UjxqNo0Yd+Qo+MHgLwdFoFAJhmnQ78tUUqA/QIpPYQY3Dk8NDWHJvp4lcUljAWMgOIY/PN+AsIBrsvyw39NPS0KZn5C+v0nTmN7/+M0RCWpiLRXcP5IcDaA/SjeVRWq5Lc16OQ0g7GXS3teFvhdkhZoZYLB2j7j+SWiSS00kkCAiGkLhHKTuEww/EDp8elhyA9is70b4hnw/yUXxC/tbB85PXW1uHpwWZcZFposgEWWI5LnNUwSB9yWyFcy7qmg5sBdn8Js+8L9uyKtgZIIlP+xk3mfuRCw38f/fbzptTiCssfFKhDfTfcnVlTtnYddTVXPW7l2N9ruPZ3awmQwaanTun+BdZQLICfRNpAquDliA5fZAu99nJCc9p4S3ANDPsHNMtVTMN0FMCjiyrOpch22Cg39HFQ2WmZhGw8sC6UjhfyL16XSFLNscJ/vHTh66O4AKeu2Jp4QDxdQDHr4T6CvhqFAlr6TkAKzU/P499YthZhiL35mRPWy/OGqFup+2OHU57iWNFicapOKr9bNAxBLkA1mUl66q7SH/7zd0QRUKsNgCuQgPdId/dbr+f9gjSJCW8X+rKwlniIbK77UEm7sGJsC6cY8VCKY5QTExhEXICIiLyQzy2TFUHSA3hI4IPagbOYREoC3LDSiXRNxQi41jsgg65+r98fLW1d3iaN5kgaNKqCtn7/2i7uqa20St81WZne9Ne9KK96Z9ZPoavYcAbiJ0QGxNI+NpN8Q4LY7wISUAIYm3Z4EjIdo1AtrAEAbOBAYcmISRs0mRCtzP7A/pHep7zmmz/ALFnkjsr0tE5zznv8zynkKQnQ218irGLT+DFJHjs02OrVBTLzJZLb5/GJN2U0tTknz93AmKSJRg0ke9u9c4tIN6RrkQ/EU9MfNjbSG7U28G148iDw9qjby73VqkbsAry4/3dDI/cMvweILKmRhKzC71skiB2VjY2XZ69lKyUs1NMWRRgSdmWZKwjUVK6ZOg+9DmKaavJZEFW5IpTUHQr6aravpaUJAosrbj97fu6Wy8fF/79fkNgJcMYNJPhDodfP24IpyZGt6anN9EQImEtLuKgfJi7J0g/2tESDkLkLUbuLDmor23tGAhhT8d3N4X14FBdLTv0mZ58zctPbnz5t34sWBfievi4RgF6GLs3CJNoyAWh1mHvA5aWtoP2x4ElqCnIWNx+sUAHhN55DB5w4oaREOOVnBi+5zjpvzg+Wb7TiWw9zlSKhurQ07O1Uu3wsJRUzFgxZbuKYUjUsOuSrtN7L8u6KrmeIvmKacq6ZHq2Z3rFp4eapUuOo0ny+fNUd92RVPCyvgv0tC9RCp2ZoYRFF7MyP5uYyF2sueaR6AY31p5FHuzHhsL/tTeg3dOtbeuYklUOUYU3AW3h1EQivnCrWr1aYkoZ/NPZecEwYjVNsS26VHVVpYKtGyqFvytJdt5SC4pi2Lriq1LKVzST3gPdSJeoJmpprRhb//Y9s8Ye1M81ww2BhQyjhQzdngPcJPrxHOZXlK9GCU5QKVxGMXgyiVPa4WAQWqJ2aAjxoTICwZdwMQhgjIv6Q+9r6CZ86q8I78xOFsyZ+4L4fq3LT+BfJM4Jea1bR9s4zPfHoa3gNqiRxRKgS/UIMwMUQ6ik5trBZgKfnI92QDcBP0ucy1GSwDwrHk8gY6EpHMnkRDXczR0c/OfF8elicIzSIhbyUiVsa7r39Gz9onTxdp9aK8spSL5UIHSSz+tyAdmKekBfNaWKSdlAMiFZ0dWyX7y4SBXkFMWVJVHGGnsQ+WyVFYmEerrbn/BR5jyYoNymZk6La7JXnzIgsB7W0uHweGHdVE3ftdb99wdIV7ldqoZcC6k3TMSXe0AjE+uUmqqBT2cv89QVUn9n6YhplZIVwUDblvKE33Xd931IC3WTPgXT9CWV8lipVKJMZsCObv3HV49AGau71z+839A0PDHCnTMy5RSmDDmedIxMY9KQiMcp/1Mp4FEDqIrQfEA7gaNnNmro7YInDmglOMRoYFsXasBCYrXsvXtXC9c/b2TnvvA6CQ43vvhzG/Q4wgYHluj0HRjAEkUo3pjBwQfst9gxo7uTRegisljNyX8mwUZhkIXQ4nnp8jw9SwqrnwCxqHcHFs4grDDP+vjiJLd0Z5DKIP1e/zjlx+r3/zr7MV0svd13CKPEigTOJZVQu6WphmroqmXKebj4qDJFWMUtV+ihqYX0/oVG7ZdBgEs6PyvdEs7YwqU4Eurt7ePB7TyOyGd5qp47Ntak8tUAa+1V5EEtFg43SEcUDL5tHXmXH6ke5eoZa4pr4WZ8vqcq5g24Ry2Bd6/PDScfS2tJ1SLIX/HpivOS6it0GaYiE7Siao1okiVdIeRekE1ZSZdiBl1/MZYyth8f3xf8UfASI9+EG6u36S5N8fEEflSUYBB2poHcNzFrENCdKuHwXdBeUQrnOGPxyJ1d+QOCStJYbRULUMbFxtnvrwJL5K2r8OL90NfIIv39H6kLrLOSG6IdbSA1jGMeLnAXsDu7yYA+DHtutgfCylDA9zvQGtI7hGFwnfBE//uFRQqtZUzfE1tbm+Jkh8EwPTCGEYisqR+CzW2h/o4othZEB6r9H17/Q3NK/yw59N5rsZQqW3mC7YpEQMVQ/Yrqe5Jiu75nm1m7XFFUj7JXqVTjmaRFz/Ll2WH1N9EqvY+h3q45HGLytVAnQa3E6O6z1LaURbai79FjCqyL9KNfJjayFFa2R4H16STHcAdPF6iQ4PNmYqWnKlYJ4n4Eeo7PXyqWEdMIY1lObN+wqVRT3ZMkuUwxptqKZXt21qOy6JqKRRnMouC6KJXy9Jo4sZSztnf66LNU7WHk4VC12r4lMvsIt6Lcjo7QXaOwim9uxqmKY8S7hLiaBHCfY/1jc3Mfp6zeXrZuZd4o61fFWuAO7NEWu2MFvyE8FP5/NikTHK4Nvd/4w19CYtQAEXQU0tkBTiFt0Q6MBKt1O9IAy8B6uRIOdg329SFj3Rb8XoTWEo5OFiGTRvURs1Imy1FTSFhhRLTvSFrcHJ5+HB0ONlPBRQNKf9GPUB6AA0jNycuFYqmop2RDUTTMGDxT8mTTV9yKL1m6b3qe62Z9ya1YF4c7ScoQmlZQ/dev3zSGhQ40wmS2ht6udsxE5xcorhJxSlqbIwfHxT2FS+H69p69Sljn16MPl6vb6xtZzysr6+bli906bgfEom8us5mYZyMUsVyxoaXn4KvXcgqqr7ycLBbTBKV8JYkAt1XZN/WKXfH1smzJvu17VLMN18+WnZ39NGWuvKYlna9WR+4/qsvV4GTydbWljyd+fD5JeWoUR0kMr0YZX80uryxTc7s4ObnEQqO5OxRZfYPN9BlrH0RT1S38CnmTMryYeXkCQdhQPWENXemgh36TruLE8PpYpDe+/Gs/oDs7+KMuE8QCtwGmkWDSCCY7k9KhU8ZGgb7uMdhlcNIKwollGDI8EHsBAug7MwNYg0kWNYUT1BNSzqqn+SkAUzQ+p6OTwfaOEGXLVqqGHdHGW7vnL510jQLLMAnoFiXbt4wClRebqqJV8enp+RXfrahlE6Hll12zYpRqO4ZF/VeeEM7Z+aeoMFOpK42bugdvUy+1vDLP/WACgXV6ckFw6mh1fUN587Hr35cUWP6by1fvLn9OlT1P3zPen+xyHWSEhYvNZEY3Z8fYJ473VzcGera2z8p5o7hfLJh6aufQ8coU/a7nq2rFNukfplpxZdW1fVn1bcUuQ72V2qeuUCmkDC1lncuz7F18lV+/bgl0riQSP23hgJKPnHEKNoqjHIqrBMYk8wQV6b2dhDoyGMQAqw8a7sHOrs7O+girl+XoLcI3F4biEMWEeIcavBs+n+twGbwCWddHcPjiTx2UM4SPX7S1laA7RuEDba3RpoaoqIQtYI6xkoa3Noli2N4HZxbqTVANg3dRDpmAOYOUtbCA+TtIDtOjdLeY1TQlui2eZ6EYTv9wJ9hEdXcgSoiubbxxbGH7THbSO+lYwbSK+zHJ1fWknCdoXHDNPCTmSrlC8Cpre753lHUrWTOZdkqOplDXmDfVjedrz0L36g1PGF6yLZ19t5cxWERgJfiEaTp3/PNG1tlYT09Xw0vv3PeRSO305u6vxvEvt7XVirpde3ZySjgQiXVqalcUxYmt+KAw4eXxe6Bnufz8SNGdWIwaUi1dS6uSRMiqoqq+S4DPzlLgE+7yshUKKF9WbFm1JVAhClTdHSNvnpfu8t7Yq7rdXw30UWDFp0U1nMBMlNlg05v8PmDUMDOz+ASkasRVcC5IsL0Z5848aWCYIhyiG8VONVwoaASw8OKTaFEMmUV6JdoR6P3aCA6/A3avu40jYVECxVqjcZ5itQpFKr2krNGijNXZ9T/arrWpiTQLf9jaqa3dL1v7afb77k9RqAQYhoCEu8rNCoRxi1hcKhPodLcyaKikQ2zTBLJJ59JNd8MIKEFBBsQSdVZxyyr/zp7nvI21fwCIKT8Iafs9fZ5zec5zIOAxNtgchSJQkgd3eJYdDJplrjag/A5KKZ0jvXzyDCxremKVq46cS+/NR4Z6r/dNCZ7OcLCpo9U70mPZ/f1YStXyW5Sb24aaV+wCBVuaisEc0zFsw3YcwzI3jJzheenS1iH6c0VFtu3HR9bc7VEOJISg+mhPtHVAlNxXwEBMxCnem3v52ds8VB5/+OnWgZvX3pPHMqzcwVzX2H+tnKo3Pj3/iHKSKGGxh11fn5hM9DaJZZ+czIQjpdePpXy6FKN8lQxrKy958oZkY+rRtA3XdHTdKbtkUI6lFDXVyxmGVtrKFmSlUKtl8tbJuyhP94ml8r/cagsExpBEo2UP4yLzmqcbB+4RAPw+l7Ae/AyufgRMONY2GRNk5PawEFntxsMvtH/oQoPBprYWAqCpEaxLF7X38f+Dwm9CWVcXvX/3V7Gtl0UbULyaEh6sjZfI+ILvrHflK3G2RyG9GB1rjraKqXSenor4PAKWAaFAcxF1LIqwqlXh1ycuOVkMMuS6tqvk5LrROmpiYa7d9ujO0WYpVd8p1SgrzxzGNM9W84YCZoqj6Y5kuEVLdw3dcRtWzlMt0+TVwJIsbygEk/8+Kj24IThtaIfdvNkVirZG0Mi5LxjsoB5OTnw5zT7VfjUa2YvT3yrH73/613nqS6jj1Vd3LefKDfXDi1fbe9si759b9fPD+cRS4FKJip6zUOu7kzdKPhWLZYtSur5/Xie/5BZUSiw8CrEsR9WtsuMaHoG4R0AI+aF8NhvLFDSlQLC99sNpoEsoVQGP7txpCgQGyS0RXMOuKpXpZygsV9HCXwRVhFPCJ0BCBFisrsQJIZNGQ5cavD1CefxyNSbHNbf7bo+wfAP4yX75fdznZ3FaeHXR+1/+7qd/9DiCdDfcR+BEf2kTW898BRnWUQuHIEUcRYF0jIJGIUom6qRkWwuR5WWogIiWr2AqL/rzCOBiTjIZk0uOSOTX52cGhjpAJ8T6JPqocMfnk5NUJlM/TCl2vnZez5h2WlMkzVDohByHskCPnJVteZ6bI5jRLSmWzdbI8GyNfJt1dvYpOcL9i3EhrtJHSBhh/iFdSDxe4emI6fXn73LlnWOl/DRn6ZtfB2Z3Xj57Jzeeli3XdtYOT1++AqtggjMNzja2tyfmq4/Q1Ar46/TCydO7rw0FU0NkKbWd86xsyvTTGgV/MmzcKqtl07Nzm65K1gXeslcvlWKSlM6Tg914aM0FseLT79ndHKe0u5kBO1GtPBPcKxRFUb+Ki54+3dOlJWSEnBL2t/YjHxRSdYSEXGro9A1LzGtjoj1IQQaEw/v8FRq+yxr1ye+CSXpV9GSK3acEsYEC0zZM1g8zPDXxSOE15rvzVh0uY4XCgPVoFKE7q94J0Z/+AdSDZyLL7LTIa9O9WFxBgl9JVOd9ut9lzsOeC3Xl5aGBwWALz8leoxSmOznx+LWXSR1mMxtKMXa4v58xC3JBMSkppODFME0P6i0uIQul8uS7KGwhlyFTVK/JpvH06O6L7pZZYVkIKWZ3B1t7F0A1Aa81gSiLzqs69+J9Zk2lD1GcXKP8VE85+tpmQ3cc19Ia9sWLjx+ZrCI6hXyp23OTlfu+5ARcVmd3/6R5VE5JmdhGJi+lto7PU+SZbE2lbJDSQMtxyzqBtk55pulphuXYCmYlN8D0KxQk5yT7oEUsS2FS551ZMohmfgDA6q7OVwkHmYgcB2USHCwwFJ9g6g5sZNHMGRwk3OgIdYTFiCpHWFzI6uF5jyDGCimAxerOvm8TFX6Z1E8LGQu//9OVxe6iiHWd5ZTIeY4wHkKwTqzEFHV3VN7J67ZDMjva0YwFO8nkGLrrZFYzTICfgToLgSHoTw+Y3EBHWan6QQNZlZhOmBSGtb26PNTfeo1RmD442NTTG6kdbaaK+VI9JdsZCrayePoN8keaqciuaVmuJ5N9uW7OKzuem6qXDrdKEv2bomaqPx4p8c5hsTppFDzv2Z7mZO+DlW9J4WIlvkKWNbl++klvKKU8Am7P1Rt0/o5JBmsZVvnrh48gbVKQNbc6sSrKI6urE9OVeFgoffJm2XD/g69HP+YzxVgss6Hm68cHh1kJWavtKTb5qxy+dcPUTdnUy7rtGRuxUjZbVFRNLShq4+5F7xQvpuRcbfxmG0WwvY/ux3norCJQGzaFqH0FzedHyAgx/GLpUgAAIABJREFUPzGEbk5/bxI0LCa6g+dO+WDIX4/AChmsl7UrtCyBhV30NS4+bZy7hjd9I+N24VUpOPzxD30jwrCus2G1DGOuoiUIh8UT5QFIcrPueRgDFaF2SBrRa4zcMeoNrf2YKGbDmkFjB/E7it3+ZEVl3k+d8YZ8x4+2CA1/pocvMMx0AfBUe5JDn8/eaOl8aiuTMbTa8f7OTtq18nT+tkZhMJ2TZVlmDnJBlutYUOOox9KULHp0ouXXJ78vBFrucUAxO0tv99qTvZFHCF2EXYHFg4Lt3G+fD3M5o6AIfSCbwApmRWZbrl2c7m0Ldg9zN7nstre3SoaVFOulWH82nFz6cPe1WVQypVRBlWLnv+5v1WyDzBRPgp2zJIqtLAJvCxKXuiOn6zWInNClpg2l8IOzFwreExUAPuddArIB0c7EnFMF1sWXuwjK5CP0np+IQVvIqiJ074deEf6wcHh3j5CmFx6LN38I8lgwCD6BQEI/+hy91J4Z9Q3rn1fEnPnue7GtF0VlFndvmQq28F5SlLaEos4uL5jDfyEUFrV3hO/0yAyyThk2gw3xcMUS2jroQjOdgHx5gguk5LTgruhdmBZzyddXHw0MDXSA8nUNir+7gdaFxNpRI59JlWpFQ1HqBwcHRadgm6pseQ3XMF0J8GIxL8GyVAryya5kgh/bdeyHR2tfxgJTvOWG7OrGjXst0eTADNMNYd9wAXFcUHVi/flFvVzWVcN08E0gSGZF1por/ufDS9jU9ureHmeuou72am6yGp/5pkpB/rt5Zlo62lTkfCqdQl/5/OB4J0+278gUqjtlk6DaM3P0awm6DdWQ6tnSTiydkQ2KGCXz5NfFQEtX1ygHPvCugLGZRSaLxXHTQENO8CwavggFWVJpQQh8ISHkYS80n9ujTJYhmwqLZWedu9A6aArsXvdn2nnVwT1fI8sPrljndtRv6lwVc+Zv/7gNKOROGKWCYHMyX4adGERLOrlPyNSG9hCU96LtiLGi2OibFNKKguOwAAm/pWXuQqM7F+d5imfPkBb6UCgmK0RTbH17ETNzYryVN6y1R5Z+f/1GU1L5Wn5DlQrZtwdvz1Xdld2cZhUMx8BcaM4A5cWQslmsqogVZRN1U0c/OztfDF1vu31jpI/u442+kb6e3t7IciLBjfBKtVJBgwnYPLm6d3rx1SXTchyCVViVhR6PFbt4/3wPrUxQV7aBhutAxe2P69PVxP2w2FLJUcHYwsrF2RmqV7VaUZHT2YPjt9maajj4dYZu6TpmWAGIFG5ZUrZOqB3LUHIoaY73sPFiqHMYpOFZrgOM9sHlXHYzE/5rhR2WIOlT4L48s7wQIRgcSjITrhXz9GRY2BfEHdwwa6r4u40Cu6L3RAc5fHtqGMx3f7fiOBvUqC9rBI7yrV+uiDnz5//Rdm09aa5ZOJO56M5MMpO5nJnbuZ5/oRBFY4AKAsoErGlEnCbSsCEqfvIhbbe4EWoVi1qLiJZj1ZEiINhWDruI3cakf2fWs95P/4FYa7xSYbGOz+HvNk2/SqGPoxYO2lmM285kP6XD6kNkATGjHdJhKtROqMe0E5AXxuALEhK9lSaZVsEk9bmgwBMwR8/LZB1QFERwgazHuyyv22qy9Anz9h5An0eXHR+rH2NSeDW0Lwfo9agVitFw9n0mEghsvk8friUoCCiI0nIcZjXR1O4O9fRZ+khTwjr1GY97NOPjw8+f22zDtvEJk9U9NyX2osn/eb17WKtRCp3ybNU//9ZePQDXGjq0a0y63m78/u203OXIOqEPrEmBYDk57245vLOzY8fCoQ7o/wnT8tZB9QPcA3dj/kh8v9lpFKNxlL9EhrIVJdF1Diz6kg7nWqGjSjQmB/yQM8pc/EhO9PWMm5//DCceesmPdQbjELOb5hFN+I0xDILrtcKNO7UWEDSBuhefnsGox3aUhkIOK6PwOdPf6/oIRzUVDInsGjNkSB+L5ft/RBFUejuuhQ+EnHn0h3/Y7IorI0S4cSyEQzeIXyqxboOF7wj3WAz0A1qRSuEYFPlZMsuCJutONovBMxtQPxAz/vw8vaSAqnmx0KJayAAjBpPnHT4KxyF+BiC9qDcMvAiWvn4FvjdMrXUgnCs2i5VaNELFxJ9Z36TEQknrfeJACrlaKfgJxAB0oIKTXfv65YfXNNLTY+sXx06bRqW2TPqW6UcLQofXy70LDRMU1uflz59/a4QgRYvgorEt3PwdrCveNZwAi3iC4MpTWOVPul1HcnbWDWMDNnCi58ESTHYuv6RlKR7bDgdkabdVKBQr+4eJTJpSHwVXIpJdzyYyic1ApXK036xFY3G/TFWbEtaHs6CzTzMOpNRj4DvNBso3i0vLwILMzvJJc1bg+jARMlYGskoYjXCXRWTB2GACS0UdNycisHgsVOSDVTBQ4Rd0cNzcPwx9W6D97kfDu5RFY+F/H8ai4qc/9k/zYMY91iC10mATDvaAnHMsPMexw4IjppKztE4BcMAeyzIg5IctLLLoxqYFd8I5BidjkYURJznDGSup/Jf04shKceXxbFhN1gHhXwX9I6PTPfv6oPprLLyzHQvLckKOHTULtZumFKdhcC2T+PTp03o6Eo+5Wi2a3nPR1Ugkm0ljqn9XXSsvDfTxM9k/bpseN5v1JusL38LMFFbYU8kkDfHJPcAbAE/Jn9+CyPe9EF2NSzuruz9uPp+CfnzGXD6KqvM844Mpwui7ctlBiW+ZhnrYtmJV7Fx0z3b91WcRiik5FpGl7d1ipVFqlKRsJrB+cPA2kaYiSCkxvV0ppVLNI5dL9gcO/dAivCzMjBpVgzaNefj5Y1Ad7BAemqSoulvjYjqklIU3p+A9z21gj2NlJuHiqMXCHlRjzokhLoUGVoa8N2aEbwA9nSoBT+7RTA/CtFPUQl68K3hSASTFWPjXhznoUBFm92NxhB60a5gxALGeY2E+oRcua/RHQN8SBhKwpGF8MjRCUAlN9ynrFSYYjIUY8xncQHMYQ2eYrqdsHjhlbW2tILUbRfpGI6e1rux9v6x+lPzx+Kq0HZAj+5VaodBp1FL7EX94B0RQfzRaOcq5YIIS8uNmkllbz/xSvbz2up19bFOkGaeWddxGldA3t8eIcT6/Tc1QgPHqw0GBVS+fMscKLDSm9IEmCvJx97x70oV2yfltF1w1ULfPPIhJE1/k8O4yatWTK56rN9V1OSLtxP2AWUVrpUKpUyuGpJ1wOpNYo5lACoV3SxRXLfplpYQ/kk4cJtKX/vKc2qDqV2mmbTb2PRxB2tmYFZ0DJVUeMrhtXwougUBBLRbLueL8PCq8XEAlFBRVrc6gEx4gnLBYh1NovIotKfh8NsaRPhaDochdP98H1st//uXRgxx0zLzG4iYL8FGIgWiYAM2KMXqlXQVZFWLZTj4Wap1jY3AEY610xJaJla8nRS0Min2DOP3ucSViVTwRU1Ni4+BxvM7PY2PvPB4xwI0BSVH9KulIVb+uA428Hd6UZP9q7qjRbNOjUyq1UoVcJ1qsFHM5V8oV2t48yB6gQc68//Illl+2GPiO0a9hQcJjC2XQ4IxnRlAEObSw82Ccxev8bZ0eZ2XoIwguH2ii5Xq33j2pU0SBotbl4Kp3u2enecp7CxtG8cBxbmx0I9mtfL1IUJUOyPGs7JdduUan0elct5uVVGg14qrsRmu1I+oSW0e7O7IcyGZoRDx89ub7lFULP13qqW12iq1BnPqGmDpOkwajkBewbl9iGiFy//LGCxq2fT4r1oXQd4Y8MiWsiSEjC9kaDSN3+1G90PI7Fm6lMEVSYS40s9j7E4QTIH9Y8ynSRi+fvnyYo86f/zVuF8lJRBaNEYOwV+1V3D/7IIqGE7RxCMs4Cq0h9IxOzLvs8ACB2FGmriJhQTGLaXxzTIqm9L4nNg5er0OZDXkF73jtcGzlZ3xUCy1QJB9hm0Cj2r0wc75WvYhsSmF/OLETkaSYy1VqXLfbV51Op0AhRm1Xq1ZJ7e7KAZbrX6PYuqiufUv6JuCy29Mr7kP9Q6Oj7hcryhHpHpA5w8gwGhzOKYbKlLJuKa7KSFjMEq3f1pmaBtkEfFICq9+Wy2f1KW9yYWVAzF86yhQTJves59th9Z0/sJndDgQkOSuFjmrQfGzetK8LtXancU2BViu1m9FoKBCh7msznc5+vCicL5kM1P/Qs66B96lZT0XAuIgyyIg+dIIiYy0Jnyv63KC4mmRSvXXUyj3WANT7tOzGaGDSF2ZCg/7ezOEYXGh2ZVGxouwwfIafUBVE7y6WHBxiDJ15CEjWoz/9265ssVAJVfBMs7NxGlv08kioH+Ebp043BB4FPatqiits5+AIiD8TwqRuXHR8blBihDZ6cJkDaw931STvsiiceE2qpBCceIMUkVaWTTZwUnSaNryebx+q7yKBRFba9lNwyfFY9Aj18KpRuLrqNNvFwlHFtSr5s5vYPR1QIbyovrnxLI9q4aPG0jW9vf0jFhPF+FQ+zzhjcfnmM6XHoTCyQeGjvAUeGn1w3qKMhTA6VRjJ9D0rvpyenjkce/MLr3RaThKQJjdNLiXzN2+rz+KHCX82ckiRFYmlWsVO5+qmc91ot6+v6EunUGs2Q/HIYToBt9nM24tUff7V2AhgEri40GvejwxofKXs29E6oL8CixA7ZpC3sXCm1hVdFlaGFjUvG9TYUlO7K6ANOm7+9H2Kmh8KIv8MCitmRGuGh83iJnG3f38iTko46jzEWEhDocaubBt6hIUOGxAN9gjNab2CwxoREv9arEXZ9Yb+LHBw1bjoADnD0jO+SWatghFNbzax8OZKiFM9iqFYkDpEOaLHAuSxTcLOlN55Wufi5JJjq/1r9Vk2y6BeKZDYzMqrO1HqtYqFDpWZXCW3v7oTp8Hr/ZrYF1xW37VPZt1qNn7kZ/O4r9eJhBXcOucdungAFsqIchCFQJvtdjkplRVSO+WvM/CQ0X2d3X2KiDt97QU8eFEQYpw0EdNkMO85K72p/hIIZDezCenwIOCXo9H9Vo3Kdvu6c/O93ai0crv78QD9DZlsZn394O2F//NMcFTHFC2avKftdpseoeFc4qCax/PFJ0JejgI1GuTr8wawWG4f66bCxAxGARPoSHSAzQhLWNEKs/vanUMDdwbTFLxUdofNw0/uR0OOK5Gxnj59EEjWT38TKjO9QqAHNztIr6mOFZFC9okTvzmFFZbu9G8IVyrMJWo2FRgQZkbcvuMIHRTCpCvLYuOwB/QH8DOMfefwupM18szwaub/tF3/c1L5FZ1OZ7s72x/60/7SX9of6n9ilIbFYGBNQDCtjaxDko4zbCcLA+SbAYpPUhUCG43rJESJhKVWgruwvJJArEtWNA4z+Xd6z7kv2X9AnxkMvzjIO+9+7j333nNs2i4ibCcKxXXz5UFrpHKzsllZvoufytrSQ8qCLNz76va9hwuoBXdIlUu4ElwdHJtbhh/WrG63GlbbPYuSuhcStb5FH1RBSmGRw5q7J1Vlmtg5luMQ6EGsalrCHJR+qe83VJwDVy0Uic9nUlBIkHJYQrX885nI+uGrs63VhW3JycvyIFSWlh7cvvOVJOz//eF//5HI+t3j2ws35RQsoXLN5zc65aP1+dkr4x5VGJFv+7IdmxDjPgBqF6pcUYArCnVEiAEk9SQszOnIzOwERYuQYdm4pOriAjRrwjFlSN1qyqPFoZ1avGCQIOKgva6ThiEDFucrPohi5Eef8SR8rjKIEjftKNhpVT98zq1bXzyl2CaUPGs0wMRdUHWF25IcbuDou8+HkSy1rEgaMYOL9pJkxbUs1LmsUKiIo1AXneQuJ4P+Rb9/XPc0As6ZK960Eao1j0dae/k1TDfdREBY2pTXJSwXbt79Fg3j/IZuyOd2vu+2Ro4H08ZEAB7IlhXU8PmANzibTobaUtKZppx7VRM7Z+vc2gOuaqAR5CQcDJhVDeTXJuDVRA5PGSGpFg/3mdITbQSW4ccWn41OCv655PxUrffdxdafBVhr5UqlsrxWXlvevrlw587jfz14LK/fLNzdhg9YXpCVKz/tVHpmvOAbHSZFTknOzxmwXEkJ67vxOAeRo0WKXmAIC/N90PNCZ59yDRhK9v2yRCEpltPp0jauR+3USb+7NcuSPGto6MLfsRlz9SopMzR2rrFv+Jdrul1xXYB15tMPIT46qSkW1Wf/ZucY1nk76DUKIGPQHeM+aD5Ljqnmb5JcCbZs8r9TgtRyA5TDZxZeWXMUs8ZyjMQs9CcQryDEU9Rx2+mwam7IqVQF+S756LilCiG3LBiLhvt1OWO6zzYrpU208kArlspy79a2Nyto61lk+UY+v9pp3XrZCGdmHdCGgi8nb9rYokTPWKIq2TiJAxJTNSXUEcL6mmEJnHAaNiXV0niFBMuKV4Kqw7qKCgFc2chWNGOkJURDH8zrk4iVSmxl+0dPVlsH+TVMXpBkqFTulpfXtpehmlXZ3i6XS6VSJV+SeHVjb/nInE54A05Q5OcsRVPanmGRIrLFrCEOnUru1ias1D2WiqVTaYg6B0EoL3LIT9J3tKDBkHrYhXZb0w3qGUl7ZI5R21mQTUKD7TJlI79WZFktaa7afwgxo9/9CSzWOT2QMUB6AV58lrX6MM9tkCSoaUliOZ1YsZfM6gpsbR0YDKKmkXcCi2DBdBCuXxQfTmByhsvQ0WgxKqiajoSUctA9lCnOvocLzBucErJo47q46E8ndsPt+s+5TudsHr03edpLJdDrKNcrJTlTcvkSFNNypY1Hrc6znxpT0bSXpu2eE/+CgF9O5VhcghDoAgHWAGv90FCydBHkFOzjGpjNJupAAKxp5VMqUHUqgKaSVX0CKznhoPK1PEXBtISsULV99GKjs3d/jT1HOfAEQkASZpM3dyQRlL9LUrzKRz24I7jKzNlYxMH1Et84Dc3HUluRKCKWVIXo5sTRJJSfjJofY9oddAPWNzk96kD2Dn6U1s8ap5i9DyuyVKuaE/oqbTkkEUuQNQltbs3gr319OkV6/UOUhR//9g/sQCvZwKnD87ARGLIMcpi762I9OXf6VYIa9TkCILIc1qAf3R38apIpAcuI8VmTqpDTKnGdULZm/aZPh/2w8lukR4SfU14zUmxJUlyQ5KXdePftSKu7qi1igdZOGeiSG5bLb2jEyudWOq3u0rtmOB7zYreO3o/PIcDpkmN5NpnJgjZo9gVSwI0ADFGLHJUWhH2AC8JBYEUFXJJrDYgjRZS+WlGrHtoqyr2OoenulQRuIjibKiTioWrz8KebkhLmKoCUfDA59xBT5e2OfER5BuRRKOdXureOD2uCK5/DNY4sG0ms3e4ZxU7gaHF6OlKMcBQLnU3UhZhzZwfaUEFeLqrCZ8rvdXC5HsNYoKtd2ilkQwBxS4tCt+U4alWGk5OTl65evnoJK4ZW0Pri6y9Pdyrev0rWx5/+/nO7+qjDrBqDYRT2U+c8t6ZY1D4OSLxyUi8HVe6MA0YIasVGoyPJsWbhfxScQ6swaWCZQj1DOLi5u1s8UWAkPxqesrbJq+ECHSJ8o1xXdMgRM5s25kPr7Xrv5fZeq7uSw2OP2yUv+MM3cm0IrDpPj/fNUDw2sTjjwsamW79Wj80nEE9G2yjycNb1+zWUfwxYVQQqE2JBwBVAhmNQ3rUHbUv5TMOUBav9ugrtZSWcZJKxFKeEvBTNLRiZrVC1sf/uRb7buZGT1K+EPyW8IrACVXiTu9U9WHpdX5/OpLw26KPhg55/Lg80cDU6no4gD42wxGFpSIaU4oiJWDKWlmrIkNOQRBbm/MjxMCtxYWpGCdKT2WQ2ND00mqGIt+Q19qEhCBlc/ge2oi1kfcnD0Mre379K1ie/spNsGKYdJxsAQ1BlP3fiIc5xGQ5iyZOl4Wo04KCzuwOdQhz4i8CV1yf/Z1hWwAJClYwShiILxJ8KKHM4mTxWSLfBqtn1IlUn/TYX6y3EPQl584hZ+29fScnXvfgsV9ohmnY0t8Jte/ZIYHXjm9eN6vR8QXA16lL5TfKDAZtjYrZgTKkwnkCGkEK+XmP3T3/rK8JqZruGRk5N0vg2mSu59vUAPKkKm+RI4/MglYLsjErAwpabMR+dqpr13usnT7udszmG1dIvDwFQJk9Ady933GtmI4m0zxbA0YeFGo8cVJgWGRtzQN1iN1LcKp6Mj2rmTiqLNNapoQbsArykDhGx4Omgdc84pTWsLIvu24gVyr7wMMSGDIQjdVhN86yTDVYpC9873/DJrznaoOZ3LE0BLMxGPWd3gAN+8lBI5q6z7no5kA1hY9KKWBToxvAMTcYtcW7oFHOKFCSpdgs5OIPGHWisKe6ChbNp7Mn5/TN0gXLg30gZieh0uNaoH779oXzQanVHVr/nmSJ5vGRX91cPui2B1cKb/X44koBjiWCSnAhTDKfD4Q2mU5m+AAJtGdNqLNckRNV4GrImFIhVTWWzBFb9wQC/4ew8pR1O6a0+lPay8XnofypL6Z+A/1kykczEQ+u1xn7v9b1nndbeyn1JqUrIsCSZz+9s5jdWDzrd3I9v62a4mEh7HTPOUdqfwqXy/BhafeNjRiiyJfWgJFnywhkMJRuwaptIJJNY1UTqCiFh0H6c9APlAL4BSzqkG06gpRqkHFE+p8urSjhIhnXZ0iTVCzJ/qvP31zPvvVv40WeXLnAVZ/jkOLarqQdWCT2ULtIVCjwcLsEWmjlg57AIzSm/RXiQc15Wd8D88gUUsARn6ZGiwuEgNxT5mb4TWFb2DmBtYSpSTlMJhYGARIPZuXSKN6xqNvYPe2+e5EY6gqPu3sHIyKNHe1150+pcLP34rm5mp+JG2r9IJepxl8U2uDDX6p0rhOpg0hmciCtLd6rWroNZr5Jxb5icjKlJKo/0XlDGSEVs4WfQaPAsBbbMeCaRTCNoYCkpqJQdGJXIVE3Ca6/377ur3VZn78bKU4h833+6evZAsLb64Odeo5aVAzvoUx0rEm4STDwYLB7z+FnRyJdTxIhRsagcqcQsDCUbGQO+GqkCDcxUJ3kRcmuoCTGOxV4hoaULLzgR3TrloPZgiBNDF6B0C93IS5wAQ9T64jRmXf/nmffeLfzNH69qSqW+odZF2yk3z2rUg2NciUR67XTqtHtghg7dNhtqbybvXgpH+qFmVKC9ToEaxUmDou/UuMUkaeikJoQ6kGqrrGcTau3tmxmFKzP2yJD/G/NbofU+dLuPXr94kLtxsNftdjpdwdfKxsNXb3pNjN/NF4JeH9w+nC4mWZ6x5x7wbDb/XKIPXAloBE/rVeuCoGCvV2/WDnu9ttk4AjGfrdaoucsTsnEoga3XNJvaKxygF41ph/bAbIekKoR7Db0gsJ+bpu+OkYhPZ6v4pL23Lx/v3BLs67X3aHXn8cu3+/JJw8VMIQg19v/Tdn0/bd1XvFmUwNjWkLTbVBRtWR/y0FV5qRbtoZrUCGzH4ZKL7eAf2BctpFcR2CiSFTm2sI0sDRtjwaZ4DKlD6gNeIjSFgkmaHwiFrJnapWtJVKn/zs7nc76XLk2k7cG5pbQvceDec88533M+P6ALwzPGwEDEpRqt3cpDBOs2WM/QAseQdNUjUkCNF3zCqhy1a7kynKVSMIa1yFZl+26HowaOFVG0mNoo6/mY+5QhP7Dm40NTgxJZRGZdU4ChVwxfwbzhSO/U0IB6pLaDhpjtb3tGzzoYpeIEMxbYqnAdDziBgPQxCC2KkSbYYkEbpCxhUVTxNRpVgAU2rYMsad5XV9MtHbqzd580OiHZHNG2lUrGdnAsTBE4X5R6WJhchz8KppXPvvhk+9b169c3v/3ymUTGN1vNydZ0sSx1gRjdkGYsSbHyAkihTtTTSFeAVa2ve2sd8pubj57cf7jz6MmTh/mdp5ozdRSPufzKw6c7Ww8ebWFijy6MWUwxf1tfrSzIw8WIMlVJJGk0XYN2IeR8S+n8CtKW/KB7X/9z+wbMm7bvfbH35M79r9ab+dZMNSfxLyU7ZNOdCwVB0iwiYjlPKfkWsJCFAg45q4C9z1B4GhMHUwjlVJQrw5owxTGWSyZF2LZBLAwzVxE54wUYH2FbYcGcfUtlujgyeHFUQ0vT1oeeuF/H5w3H3iK0AaPQNg1t/ECJQRuSwUWoO9yZXE+zIQTsKPX8HLUyo2Ykg2uMfAqaKauoHwZZDeX3ggQGiB92hTpq0Ogic69ZqBAwmHTCNkZEagBVr0sxlTIjT+ybh9pAP9D/SCu+nk+XFqq5RAKKK46uY7kuiyjbwxrjNmeLi5xm0yMJMlcCc7y1nm7uTE6ueLYZkyobBIrHgzvrWdXEIYRUP4LX1u06WTLJCoDnBPlDK7ooTdDs7Go6K6nPYHDMRAw/6rq8APKTwlZXXsgwj3FYlkdsF7yteGKSgTVJLXdOkfVciKUOF/kqZ1svL0MPZGJCbk8ScyzV8QuRrxrWuXuE9XAf4KAO3D4VPZMOZ/Di0ODIFIkV164+Vwwvz3VaGaSrp29cEchtNV7Ub4q7Y+Bj1oC1QYwAP4yy5DEGIHvJHaGkZEvhDUD6YRFN+eRlT+NWjf+muWE1lArzFCmLQNMFebINi1BnNEsuDVWM2bcE5+z06u1snlrLplVCjmtNN4r1CZg/oiC4VB6LRYNtYN44zE1ld7Y0qPKe+HE2f3/vy0+3b21ubuNrG9fm89ctfLtx48bnnzy70yRfW3eLXmgWORAOoG7TXq+eq9eM9upsY6EE0DNdqJjqSMfIFkqzy5JopGfA8p7xj4VmHAMoiTC3ZZSwCEiExlqJGQu4mdkZyG9j74qEBWnqHDx6IWrrkKOT0e5djy260+FDgzt3xKCyFOVwDtT2cci9jF4a1YOhBBbRfhi+/77Dun5dXQf6hlROJqgORFw9w5eYTKKY9lixsI3Ykt/D0TUh23ccC7GBRgtPCpixi6a2n4Ky0MFTiZROpWmdY+mDphyiwUjJHS1zuRtIBkIZ9erJjREtgRURSs2KhbgkAAAgAElEQVQ0GzRgbqCUAflgqUkVBxszoFlxf1W/i+tyia0GuDYqeqxXNv+vT//0h79srC39j2t+aW1tbePmHz/fa34n9p5X2YlSws042lhWHHaVkDCGK3AOWKHqLAQM0/u4wtvTM41ieSKRQNOA1xJnQAhmS1yx4Y7EppmytS3IMmsViCGdmTGVUN5OBFZxuVzGDhrKPpyPklSYyXBCGo3aSqPSZACVPFpvU9zPp7xomLpJZE3RaO4C09U1z7zp8twvOzxv6D4KjIzfm9IitGigjphHXlUcrnTFYc4bSM6R7orUeq2D3HBwrZMC3g/BANh7jQYo1dkFFkNIOMD8r6COD3hQALHo/SRcuZSgtKk8M0QWpSCgtIn5NqZj2iUT+wbUm2SAiWQyoH81hTFCYfYX4SjPsfFgJt2EcBmOW2xdCumVe3cXN9bm5xevvPRaXFycl38WFz/e/Xjj7vzu4/m1te31VkF/bP0Y+V5G5rZUjRwAR0U3wmt6rIwVPGbD8iZhHwPOFloydAqQHLJUi10CoN2OsiBKgz0Lux46oykMES/Z7ZZ0paDogPsFIwppKxrFWl1b9zEOSJNSCh0bz0RFIg3AgWA/iC8GaXHLAuQb8JFkeG5oagrSZyOjV0dG9mcOOn6f+0Fn5w1d3QcvYYxlNgBB7eHjETXOYX7lYJQemEhZkC+iwUYAEEYLMwfsdKwEI4t7jnItt0xMVpU6pLQRAHYGw4aWjrFUFIS1BbeyheHpQpLNnOtU3LDjWEqBldga42EzAX9zOeGjhWMxqEB5rGI5fFzkQMmLirvLN9ZvrcDbwZQkdt873y6dXZq/0n93/vzw8HD/8PPX+f6ls4tIV8Of4dy5K1//2O0/+7f7W1s73qVj1WIwGsJpDOtyy1KjKlVh5fRSmoEcsUN0oEVQEQISsIhQd0OSTDEQsWNqB17Mf4cgapo0V2hREUsh71C5rNbYy5UxIkxNYOiHfRpOAq7N+QXJ0DEFkiK24kZ/zUdH1qBB2knSGhyEcy5mWVevXhgd0WkWJGjmOk1aPfzTS9ACCWrDpwxyQkZ1OaAjEuQScgntDGhfYB5JsgqoDRiX0Jw3JDXPYA/PcUOtSozDrM6x1KstbZSMVIoRGQskGpCUpxsOIaQkLIYCaGIkUAFr44o7mZjg/43RPwbbuqSS6yzp+ewwlyReXAX97tN7b37/2vzzRxtri2fv3ty//n7zv66PrlxZ2thY69/97PHj3d3d88O7j5fu/vXrp2/uyZ/d2/+Uf99b8NFdT0qwajghtIw82AS2pZjnJdgIcfUiDTv2FKhbwDFEAe+32V1F2vGa0gCYwpXPnzcafshZYOgUSU2pczyKi3gsbjscYv1ctr9RTknRAqCDjyolmh7cbZ+SKlR7Bh7Rg4D8EecwSlajoRce6Oyx8Me9F8+ZuNKBmirLRDxsT1THVzEoT4T0TaVgsmtB21b3hbi/7LDYc9AdUIKruqy6fjRX1sAi8UoR6IyrFQhOZ+ESw36ilqFUkp0BFTNDmga2iDyF4eM53+fDUqiOg3zJJOrKHY3EQjFDU/H1/vY3b7x4vXvmzHunT59+7+XX6RevM2de8jHvvvGrU/J3yQsgxQ3FGJ0lQDRjNDTmRj1JJo1ayyOnAhRJ6T1U6kg0Y9vIV35fvcA6zZxFLS6qb0PVnWg/BBaVN7nUqel8NKVQP1RXswWBbT1mQiQXRuNmYxpknwV6YdCnrFFp4ClrdAkoB6D+lC/7oTLtj3Y8sMYB5FVkWCToCcuoqLuiZWJQAYFTYQxiIKiCAewT2Flp567EQiIcMCYAnaJI9TWabpHgW1IfAUOup9g7X1EkrBltnarvn3xHk5YELlMC1L5VAoNTWFLNVHOsUnFhgyw3lxuSWBx3l22rvB0nftQlx5KXXN3dP/k/rx/Kv93dL3yAxxJoRxX8L783egEzxjN+pwl9BZjPuFMFNJBDQLmXkQjDS7qNvt6TuhdcTaf3JenkhuQnC+TpwEq1AeuDZbUaRlxJKUzBsb5CHW5270AyIWGF9NQS03MhdiYRNbvnuJu6xX4/6MiXDDQLy+irnuXc5bkOw95ff2uKK2jdCyo5O66aRZEoj+6YM4RV0hYWU4A3AL3IwTvKoFbDJG8oEQ65CSVDY3IoGcs4d5fIRya53sPLrDQ5F4RbGt7L99/++c96ermblAeRdEI49rjmdMD8pVjVikuWihQYmPQ5bFuiyAY6cfb3HTzSwXYBIfpa1/eO0j29wXiMSgOUcnKQQVN0pGTqxqhYaiAQgTgLZqjnGM6w+wm5ZlN46uDhI8d/PQOIrbxxaXKJsIvIZrE1pNSMgpIhlSxXfaIGQwqWWfW+DLiohjwQx7iBNzMHYnK0ySLoS4kybUzgx/1T4PKOjF4cHL0wMqqqPASSznWYDd1zahxeOSpToixanbjH4ubYjriKSXeFHbQdArKBEYUOg9AGKq8RPso7KqUAZ6MaTSqKPBcS6sddhQq3mmKIr2xa2quF6nI998Eveg7JE3z9BCIrjMiqKIwiYMYaDLCKhb4dWQKKza4ZC/FsFFN6iv/U0UOv2D9bQuvYCR9aOpJ2oVWFhgun1ETSOJ4ykcvphpowRmooHJG2X35oVKw2f8yuw8d/h1cPd4aLeRXihv42BqQgfzX4fuJNrZexpoT8KKRtrYp8uNwc4OMwCopSNTmqw3cVYWu34xy9o8fCVIsqenCyIehPGi1MSil6S+BMZwPrQJ9uoONKHlKiB3eEceX8YmUQIsIvxL5C+mreRlSiALfsUpTo8ikpWqr/GPAkoINzSgp8Q2NBxw0lyieQoePpvU+yDlblOHXy+OEu9SGTDgbe0y7kmAMcxzoB6VMwPHKxP0L9s+SwHeCaDIgR6fco5YPbONB74NBrr/7qOnywry23B22nnDNSFUlMVoDvmmTvgKUoz4ry4G0sXvDUXfkVsNKUZ97b083c13Xs7Q9q1cZMSc7MHDbI7QHnWmqhgvyKdPlY/g97Z9Ob1p2FcaMIgxyPk7HUVBNFBKTWCy/MB/BsbV9hX4QuxLyYl4zj0giJbEYWVVVKxSKmyMqaDzDzCdB8vzm/5/xxm7RNs0BJF7l5UbJI/Pfl/M/Lc57znMl8QSQE2yOHI86qp9PXdU8ILNBnGg6R1uphalViXmqjQMw6Ki9PyqdnLxi/Pr/mefbNs0D3+/mr3TUv0aFTWLpTr5RNrVJ3foiObIlMJWhw63EPot884wEwhFTlJZJ0/VjwPWM10o2LzkjDIdBmWFLhyOj3P7y+sZQ0t7vyMpn0Vp5oyH5gEixSU7vxffrKkKH54iG5GJL+DTEy75JYGDy4t53Z+ChPduvhssQx+46NtNtkUgivT1Wp8noYVR6KKEZ4J+2yewnIdvDr7/fJP0fzhcRHNSP3vf2CnqxJ6PGtz3455Z0hnTtpWwKh3TqLIVx99XWIMGZVTtEO6n5LHzEkFmqvffkIKqcl8NSF3z27XmGkP69XOzlzD16yj7c3m78Q++7YfYnkGqS/DXA8tA9XUxRgWNpLAUyoDnJEEBCF1MpuBu1djBS8AWYRk+PSjHRlP7y+mdX/LA7OB73cr7Oi7IOC5fB8ZNEUbaQpyDrwrDb4oKtLbKlwrJiqPu57b6R0/Njc1UeyK45572DJdLiZucXAzmDQm8pB6fIFmq2WJ1XNqU4pHeNunw507a1jZrJPip3RfKxk60fxIX1hAK/tNXuJJug2MGM+sa/RGkjcFp8VSciI5DdRNDT/eSedrCI/qPuVpO63XErwrMzEPdQsNG+fnatxiMf619O1Dupkv5BqQ6gES816kGkQB0uYG3k7nqrblf42A6py8PFQ8zmxcmnFQiJhZ+Sb7QGjZ2KVEA0F9f0gj/UfqXL8O0DMP1octMSh+OVb5oDTsjLPEjpLXDoCHjvToZqVmkDjclrkAfTu4QWGFdKL5fHBvd2PZlbBaT0205KikxjV4Jc0BCGxuxyaxUA7KPKZrIGLoDbUDgrvHDNb4B/Pbty0gqDtG+mt3WrbF3PQo7la0EystESvmAqkRtIv8cqw7qrcTnKoOSkL21J3Rz2Vk7LGkctnp3gsEi3QLEeyXq6VkZXJ5rU83uUZPMlqOqspcTpyVUWHAk+ivXiJSEDmuCTbYCEwatOG1uKTlsgkvY5TE1QZagPlrRSUXZpAqpFqkNC4kF11c++mRZhWtWnRN9CzaEarpSG7hVPAX0dyZ5b2VepNi4Jf7GQ3PvKTTplpoQtAkUx/0/z0eCwNWt+Hhsu2mk4ggRWISaO5n/vtMb8sDs2jTRboPqG89sbygzdqEt6w5eRmLHUoBN4pC6mSyELo2oNl9aX/Q2E4XO3C5ANkzrh510051kJrKkNL330WzAzr6vL62uWUn79cLyMr/dBJM7VAw6/XPRSax9J6lqo3c0J+FQ+TWCBWpIZhBIs0LMRkgBOFnRbNLELhgK2YE3V28Fi34q39pE40/TeEG9lnNRt04uS3oG8mu5nK71eqSrRQzZ34UgLW89CUXW1xJ/hY5lor7d/bSWc2PvqTeZTKH5SaVWbune6jVjQTSm+0cP5WwlY41pjEvZj7vWNu5ht9M8vBLKwX/klpu/mr12NE88cTuFgTcix6Wy1VBkQO+xDUg/fpQjH+XClLQHHdaaTK4Y99C1D55PhFmVVJV1YYXp5ruMKV/p6/fL5WRtajr14JeA8SOBKra2iYXlWGJr6g/OCqSJ0p0fQIwcKuJJHFn6ctZ4EyvgJrl67s3Pc13Yj77vqfP7p0JEgNdMxBK6ru/24Eyz56kitWKmbHbXUN+c+4vws1IhUVRPGjyHr4aczK68Ot/H7NUkL5LLagacusJAYEl0/mOqk5mMO9wu7vHTOTLTSqWJaFQ01i3oo3CtJwi79aIGAUIiHdI3vHSM0AUkdeTXlp6FKkAomazvWztL3ZXNZKQeTPVUlPqQr5SWfnwtL3b6TH9nKtE2Db/ziTyqg7rMA6UXaVgIaqv0keCtIwVE3Wj92sBACgTRH1JZLlHUO194CyRmGVwExdnZsbX6yD7vt/JQRK0XM7nvfaUdLI/wFAkEnvFPYO+0lXU4s9ZW4uHkwW2+lM7e02mtX9fOpBduPTPZnsbuHhQa2ZMFnijGUSARVyoOVYgr2sYi61+QfHzOzsNylvOxNVOzdvMCmnJJthLW4gE85GfM+9AVPjLa07ieSv6GjxQYmZ7Q3Dqu9Y5gNFl7jpFBoXi9CiaMveWT3KBKu0SX1b9Dqh98z9p2UMK2wHKNFpcq3UqibqWcg0VN0zFCfZLqUV1CLkRfJSoRcdxS0HbwSQripD7R8Xl3ThgxX0on23G9rlN7OJ7OrgPVlj9tFOIV88JNq2QlkwEvG7o6w9OSzmU+YFMhuf0rDs4Zj7oG+xFoMGobCJ/Krdt+JeLrX7Hp/6IF8COJl2RpPFHD7qjezK0jU8vv1dG/ssa1PTyEyr3aYuj0UjJfOtUDYngeTQrDZ+mbYXBV7zq8uSr9A9sbIQgPTyFYkWi8iFZL1cJ/Se2XkseLTmyh8BY6CLU5HInOrlCr1nCMlShoy6DntPuzHd/S4mhoJDWyqkKln0Zn37uL3e2di3j2vvyE+Sn9GQwGIxGbSjYb20f//9/mBzN1XI7xUPyVo1bg323j48LBbzhdTuZvaTWtVbx8zZHTiMulO9ArWLO71DM6rC1oO/vfeU2YLdaYuGVlXP1XRW/94DP6vUfKRwBDWN/oazcSTpp7kWc1yufsBuByHwzbsdc3y0K+6KhPV8cxNGdXbpSOkzx97XKWWU2XpcZkdA0/MrcUXdtKoMElYsc+8KkQFql+vFtrpiJNOGdqJdV5hDS22dNrwWuFO9EbFroMahVYe6ha+Zrrgjr00sbx82ase59J96hPTm/Z1UIZfbWz25XCG1s/0XMaq7c2a372/ZMfN7e0V7OGah8GRnO/2ngTq7U7csJFEGP5kriRwHWayFZuu1/nI0ItGg9G47y9I/lCF8nD6LBAiE7GsS5gBLs+Y6DhLgqdXCTmtkBM8u5bQupPMX8Iav1ihllEmhYEvfuS7hM5iISeJc5IqIMnRygCW5HN1uEjlzNKLtOhVKCos0gnCEAAt5JQFRfDcCwpyfrF2fiO+gUSk5+cXcbh92tTz4MPxE3IT05ub29ubmZjqbfbcz/BcyLzvm9jbnTGc/NEhvFh0Qi1fJ/9yMCr0GyySQ75lNlFf2RCMSeYKJzr4mD+gliX7iKXGYMWw4K4v0vSYWp/mPI+YMj5BZR/udTSjavhrwhqdrNKxsSsoyYRinGaArIIaKXQDFbWdgaeYLip/6qnCMIucmx9GK5OCaMy6f3FIywD4hX69j6RYTTNoscEu/XpRds6tm6eThh/eo/pqm9J5jfnDyl83VpPEaTTugXyTr2tq+wKRmoKOwCHsQaB3ImrZIba0qH0axRleToQhESX2ldVsXc0b6fnJax/JYJcnrlc/KLy5fUB1eXZxfX0vZ7/nTNfZ0sn+/PDoRA4taoqElUg00kRtOk6EcFNF9mMCUEbjQVWkYR4FyEIMNRnEQTyb+m7+iLlQS75Y1kxrbmM324hdRPw86077Z1fI0l974/GxsHSwty6oM41bPF13NJ5ayz/SqwO3nyIGo3ha7wWeFyHG59BW6XH11j8Qjr6/WVJh1LWsrOIsNDcdSvD0qn52WX12enl2I5XDtQ2DrFF/L3jv33L2m5QDk65SCWlOfOD5CCCQWRrEvF9dEmxNHwwPprh+5ggONHQ2u9lAZcMOCE65BLvUmNC1uF7A1jYf0YZap7Gezoi6Eh1OhqpSLt3eEINSYBHWyQrE6mgBwtrYYS5Eu+tCSX0gCSKNalKm7uF8z0N9BswICz/joUWApX12dnV1eATuch7nVr1NrBN5lWE6W0aRHQ66qAhM5CMt477cvCT++C7gF3eC6hGSJyYIHA4DXslViYmegmojWrM8ZzIQ9zNmWLWJRO+4m9dryZH8389msVBeKh2aFkNDgyZjZCc2pQh5d0NEZdISzgLuIUc8FR5ylj4Y1NMyqz4KpyVtzefOad+kkzboMWg7qG55qR+aZBGgce1+rYX1xcXLsCuuNlViRnW5YqfIDmIE1veKDJEx8xTCiItH4ffZE/OSuM+/a3oputYN+VK/nS8gHYYRFJTMAhKWjAzqy1aa55s+R0J8n+8xFJX3UmHsMKrJIbTQXJXkkgttA0/XorsH/d652V/dc+ZWlMOx3qAQuqazK5+3VUBFGWgpzFZa+o4T2CtTh/MJFHJ5/vcZmYTp/YUVhTd4qqVfEyBcc4mRR1RoAcHJQXYENU3FG0W4wB0ziRRz0gCjme2A6uK6RuaxRB6EQgTBAD+RcGlI3u2rUjo8fpz47rNAvPKExNHSFAcE0YssIZca4eoqFzAB1fGxpKiYA4cLpREBZqA/jH4Kn0NgC1iXeSimokh6fIv1+dXn24tWLiysR35999+3zb9a4Gnozf3lEKBSgxjgOhBRsKXERQom66yHY9YHZneIuPRDazxEZV9TWSIG2gFEIt9qx83ODgCSpPAlCCxHNjq5cF4FXK1Eebn82rP+zdzYtblxZGGYIxBCCuyeQybgxsQ1emF60f8DMZhaSCqlLFFVt67s0SO3yICjtGntnqFXw39EfnPs+7622Y9pZ1bLkkHQcE5B06txzz/sV8UIBIHOEb8KFPkdcSPJn2YEQMh6alsCNjcn1qJUSYEMY0FFub8LfrLVRNmklps2pX5EWLWX0fn8byuut1KvqWO+7LKxzQYU3tsKeW+wsUl0V7T/IfpblhmBCuhS3wdKJG74WVlVcalkGho/DmnxM2f2p0jzNb41HHMBQZUa30DjZn4T3IMjVSStqbQQxRTGrDceGz/rJqsWNxRS2UVzC/GcDz1pI/Wpuu9hFG4GipYMk7Wb8CdfBX36EQ7YC+FZ3qzsXVoco9D/OjyMeFIdO1OGErqRJzR1s4pwA04HLkpyNNF3rpzBmNRa4a6VVNkuQQ/Srzv+MchUN87La3/KoLeN6T8THYhYmrNFVfxLefxfPB+yyygS4UZlEongDOcq14ADyuGkra23RLmOWsgSssxbnd1bMHQBoBk0EdxbRiw3zyNF0IGtSF5ajDLstrLNLYdAiNUjqzNEXismOkJV9IWU1JTqwqOYaphowZ5pwJQapQOi4JdU0ma5hZ6UbVaCgxLVFwQR1WF6SSgYxp64m57/0FXV/LxzSsnKh+SQhbykrNa4/Pm0/fdqCQfv5pKr0acq/QmuHKtIwzfWTU9jsi7Zi0Yr7MFEeh5Zlhz3FkFBYVlT8s8vCmriwMgQTWl+xtcrrdt/O0kEoZyJcyshgxKI1XCGGti6Za2J4qxyKNuwok6XORH0KGHZ7PlNo1YwBa9BvR796Pb7UPWoucqPu1OxpPrS/dBIeSBo3zL8Rd0bnxNpfik2NCpMHLNybLQpr7mf3gXNjexjHeJvJYKJroY3Y3r//X4cWWWdPpjoK1TfzLMtaAnLoVqxyVVkl6gB6UgImyH5U0aoVBqSSrrLI8vyO7zvIYcl5Gaf6lAsyNKK0zFCaq2Fd/dSfhF9d0UdqWZlEsIAWalmwj9SsDp8PeKIIhhabEszfnpGYlSUML6FBZMoScxxuzg5+7vgmOXI4INOa6KkebLHfd3cf6Vj/7c6S+9HZk8nQMxZrhtyZnRUyvhTvVNVaEvcJ0vM1blImN6RiauGdXMUdPH93CgqBc+H/EqaAhnGTMkvQQyml6zSY3J6f9fX05Sz824WcfmZFBbVtuTygy/lwQKJzwG6HMRXPAe91wpFQNsDQSBEca49nrMmk3lBG0ahxndNIpo2TfehX06OYWW93d15kveyOkHX2TNqvBaG8ehVVFQ8/GFisrrRoR8ynhqs9KBdDKaF1R9QfkYWv9vDyCUm9zXJ/Y7bnz0lwsU4wza40BAgQHeyvX/RwzlevXy51fMwVVGRc7CDLb+kH2CtzrdZRuMXIZsnSUP2Kb0i/JP8U+d0GId5m6cO2IMxpMKNxqCt8SRW+quhVbBworO4IWb89k4XRDQFMcGSoeZhjdZ1qy6AlCc8EhZJAHPW2XS2rFnEDCDqxPUZKCTYmPWjxpTeccCtOoEdIWikzdiVfXV887k/Cr8/C3ycn7X5kHR1z+sAstp8+s35gX7N2YKGGrLWtyXR4VNEoSepY3e2LDBZwLC4kyDPngRFBK/N3YgWup1NrwDourMcXOCTrLhLpMaUX7UkN9fXLv5c61RJf/9atM1XKNbEBOdRvRTBRfUwVWGKPmFiDkTJeaquPuFRPy+r8x76avp5MwlkoIV6oLHu6MsJLQBDOxM8H+A0bj+8b73Ka9jHXx1uh5NUq0i6sJKHMnQnoAV6+HENsSU/E6eI+g48DM1anhTVgQSqPBmKesZnIAaAqMObQfso4RGnwSrB3bzPl1IUruhUFVaILq4Ql0rlk22H1MhNAXtwHCp3E3Ni9etE3rD9PJudQAubzukSnGbNFgS0kr1+a7gyXct0snfKOACg8wOFoYcjCnhvtHpVlooM6FvzkG1JQvHBQBMkxfA+3K89YT7pDQSgsh5ogS62Q4qR1kuQY97EXVbtRpblu1IQ45nzGoW5TsaGpaKiviplKCwrqSf+dWGwsaJEmncKjcr168rivpT+P778DsIkVLjMMoRRqWawd0EALumi3zMtlC+z4a7LAsM5kdlHAUpl5yBpH8ntMMkQHNgxjlkLZp/uplGBevXdYWD/pKByb7C7EGeW8qHs6AhHklC4mj0nAg5SQSPBypfAZT3HJtwehBcOUBlAF7oQSTbQbg4Ujhfxc3P7hYLrfvX3en4TfnIXh+2DKysJkIjklLtQHyEdbaEgkNMGdYeGwjNmFKbpVGyYBRYcRi4thuB62B+HYgh3ZYeNijEM2BiFRAtZ9YY0XKnH27RVDUSqH2YSdaIlhETNVuPuh+NIBl8r8ZZ3WFB0FJSe0MpKWtTsNjw9OdtRU7TvnTER/zIb218fdq7/3d8JvXj+e07LmBXySmALJ/B4Li20DFYXPG06skuQxlBiFy+ZVVfhl9oxcBGPLImxORg7YZik3aTqarFRZ3ReWVYXhjlswqePUJxIy5k6NuFZRieMFL3dDAqHlVlXR06r7LVbiM5J8Aa4ppU9DOM6Z93XcCK9vd3eXPZzzbcd69OJiqJalZA1tEzA11Xr0g+WaUkAZH7Otn9D+cB567A1PexVdzEiZznJ7Zs3ihpSuFfPmSJsLI9Z+r0uUhiwVVmecS7XeoZ2LMlHdK9ucJXEdRQVBlPFqKholh4OQYxAiEDeSxPutdA3xT205taNvUrO9z83oYKuC656wz4+/9nDOA7BOOAvDcx6Ko2FZtYUsA0rIbCVrW5+JG5sHSrqqgwTbMEMnnD0i05lL6sf5JuI6Th3BySGM8OEOBQ6NtPCq28KSm9+MvGfWV+R5mSkKRwY3c+pMSWZM5rID0bPB1Bh6G3agpVuZVDzYh5SADIX1Iw4C5R3KvHByvdvdverJ7g+chc+nQ7bvtb1WpNLckqUAKm1acvit9XaZSqojy0iOQ40gFUTySuQn8We4KmHEkTlrrnUwPmlNqtl9NA11td+/3a26LqynF4OTh3c5QqJLTVNbAYMqNxiAVGufdKXlXo7+qlJfIbkbysm8FL7DbK+sHc1XpaPC2NrZLFG8oFNowMfV6s3Ls37Z8NAqC7cyKYX1HeCRuLGR3wdwQsz0G18OxW5Y21s4QZ+nc0LQnEorCu6R20drI2nAInvG6ZiDqfgNtzsopO87lB+EwgL4nMkSP0tw/NDhB6Mvkq1sAdLgnKO5qkGuUxmg5qhMK9ailQEgcZhZq1Zqy8SexaQPZ52dhgO4Gj/0DeuBwjq7nAyHraxC8QQYFmwYtgg7kQmZSVntktSwTgLPFw9ifZf4ZRVCoosYc9/a/DHIS1Wh43AwuT3af+1dl4X16IQSo2kAACAASURBVOkVi3dh4fhBUjnrqOxaM7njzmCDBuudtYJPjXnWSWlqcpi66FTauVs0Jmu2pG7NKuyKBF51kj4kvJOLntjwMKwDQ24xC09tOOaIJ/KExV8xpAMgGp6bWLpWt+DhUNjuVgAHcGFhpAOWcutKij/IGPOZyXR6tNFt1x1rZi1FuBXOawdcplHh3Bj/azY+/8xDFoJjrxnF6VRRU1GD/eg+SKOTCVluE0A4QiQPSJ/rhPnRQIj6m/Of+yp6eOzFE3Y2z/A51x70gIGR8tCoM5Fxwz82CKLE8+aepQVpIlBHXE3hhZmtZzy8z+ZComO7usHtdhhmXXndHsmJDjPWuy47VgEGLXZDOLESVUckxVg1vzRh7z5oqDElqyTyxCCCKkszfxjNhOfY/sQv4Ha1r6ywPBd1W5iwduER6ZdY31tlyQlvgf+k5AP2LCCbCptIhIX2ISUIZhn3QXLWYBMZ/TZYPDBjtSsH+8uOFwajR2QIhiHreHRhvfvYZceqR15jifAuKb3QmMaBXmL7lFZHlOhuUwsLEyik+rEGUNSDIpPV8LSEExH6tbbAuaP05J3PwxPT1cNjsheE0MM534N1Xox8FmZ1Aha9cYq7EOiDigwImsJCer5sGQGtC1vpNK0K+GzmRxp5BTtEOcCfZAMTxislgg2mg+sVmtV3by5/7q5j/WswEoF0Joc1hBOVKTGtKoJ8L0fY6BTUzlN9Dd9p2Yxzx7WbeV5WudNOK3NvlPOhlgXIwPioK+FoooPw3a89nPOd7+Tx1YSNgy6G4VNf2mWFDdZWppObgzdYKAtZkJbI8kpMf2T1ixQGV+KsaKHouVyNFhHVIfRUvBlZKO9vb98CFu5ed7d5f3o4mWcNfRT5YGswqngcc8kMosfUyyTy90AQMNFJYuRqYgy7sHrS1ZbVvLvcsacL4hj34RLy5lWvzvnu+P5cdPGxzsLSGQryDTZSaDduTN2Wzlbhtl61eC13cYNoFWQS9BTQsmxcvHBk4I0NSSfH/Wiwv93tIGSNXnfYsf6zMOVdaeK4q9k9xg0W+mtqFmxU5UQhGxpWRiotT8zbSty3bP/neENN7XkR93Q63yU8Oupy+7LnJP/FKmvgJWl4OMOnH0VzRDcezHmPWyzlgIW7e3jKG0G79ojNORHl8Kk8sOiXZbPGNlpgzHF44ikfjIRCsyE9dVhYv/0711sgEwZcz2Q+MuJ0Cm5ideET4HCYsvFKQcnNOhcTOBCRJFiDKhThUCy4FOZFa4xpnpneym1oWHc/9HDO91dZ59cCcAmu03TLjtQt64Ah95KozQhD88xXjWBdEXZxURYyJ5MEYlDseDsnEiImZJJkqOmd03B/vdrt3nxczV53dlEPhbUci6YxRz8oDeqamLSUwOPlpi0ohzExvjt5yOurVEFBSem1QgyOqeVZWOVRiCGXuQyHOVmsDmm8oWE96znJfzW+2yF9NteT3sD3k0cuXnbwsraw3m1+Dp7DhhGJAiyHPMKzDjKcx1UWHqC0rv+zdwavbaVXFKeLNKGUTjuLyVDSdGKKKWOYdNfSBMMsZAkpEo/3JEt6kd4Dy9FCyfMmGDlGkcVbyMYIrbzIxjtnnYXSWcQQyvwBXc0f1O+cc58zq4ld3qo8L4YJw8B49Ol+97v3nN+pdpkqAIdhyb0LEX6yf1AOHuaoeX982l25T93DEyShWV7NO6jtsjPr7YETR+fz0GwSohphrcPMPI4YCFv1xQG0XCrqYynf4FZ9q7YHAPTB10XB+qWvu2vf6UTo+NDO1JVRRBY1MeRkZKlHwT+V0A+SgAplWcRbczYtZSWqliK32p1Pyx2Kk2t8Gw44em976/k9qH73+LhOLwVn5eQRWXHibZgq25TuZqSF4iqX0J3SZY5Eod2KEm8YJQZ80AjFJyIaBatjiW9UxA5oCfnrH4qC9Yvt+255la2i60JCifBOqh8xKyPUsSwlix8BFmpMSEvqrsH1yJANwGYMxD1TrK9A3VD7EeIAIGljsOcK1mAYrOfnK/xyc3HknqHYh8PGxdSlXj/loiAlQgBLdLbvXOvIlUoZrKtJ0JMmit3wh4nZ2rhRgJgBAi8/aPvZNqcquQzoz3nyef8f78Jf1bAwJEdZtnLp+yggjZX+FV6FsPe0vTWkdUotQOT+9/uea0o8KJUzT4VhjdrM9DWoETAOO7u7rVa7EnyT3z3yp83FoseKhalmhScLd6A7WWItkEkYKoa5RzsFo3QihuXxRcjBFZeM6N99G/piyW4MXwkZJZdB575ftO6fbd+/3eOqDSCHqGJTK9yE5K4JFinqfcgBY8XEJzhcxJFGWqYl3EMzMjsQIaSdWQwpf99i0QLtvTUIkzwP1hebi/kbPGxhksTBSnviW6UieYhokho3BvxnNOzmrICAX9NQX0hlKcxwB/oyT7BzZJ+FFmuLiQiuYP252D9/pmTdb9Qg+EMmsT6VmFEyVJIq/0trQhywHp9VrpGBL50aTNBuGW7nBRo3aEhqrbsydtDybhHR7a7CnZ39Tugn93PEGLmDNeu7koXhGkV9tEKytQqVx54dKpLFKwwFEuY2oVYruloN1klXZv5GBzB7qM1ActMSFGoZdFg4WF8XU/fP9b7fDajAdN/4Ia/CkPyZkEgHxQgQF6l88wxezZEi5w2RPhM4wQLu/wXN4m4HC2lKslZNhq6WaoOn27VR5A/zO1i3v9pYLOZvMetI3EFP9Tv0Va1ifCN6FhyPvCkLzqFkJgvDHGoFbdGnWkBH4kxiY2U2QsmwyjB0b7cO9oup++c+F9e+I3oe0cBsnHDxjYydP6I+C6HrPcU1hKmxWCBsGkZRRtyAY4d3hvyrLFvKZCZHmTGGMETX9gY76dh9ejnaPN3Bmi8uFl1chcaFkTJRiv2U9x/5HhZYr32PNFjs4SMwSHWwSKnxzJFDEZanGsxXCEG9uyhYfynokNdp3+H4bHcD6LKYAhmKmaWxQ6jmnbWMDQwhU0b1jHzsaLPPQNIsjUc1erClDqDvK9KM9ponrquJcjxYtzaQ1/g87rpbmeQP10/pXKW2Q7dEIO46s3zxVOgcihvgvq1b/DG6eN/CN/DidU9CEk9E/CojwcW9a1uFdPQaze/vByUbvw/dwYpt+E5bxVhzeJ6rHmcO+Nxgwkv5isIOhZPqgJHUQCn73pU2S8xbKC6rNswq1Xbf9JGkluNNcmvt9Xy+mJ4RLUOxDJ+wIZGE/Lt+z6Q/ZntOUo7cIwM0RPAPepIy+ATY+3gZyoWk3hG/BvZSpcYetp0HhWDmWtP3p8K1tNuBAqfp/hLJdWwpaJloJu3ZzAHWqXSo3sRX6DIrVqLALXZatIIxEcwIDuXadniMf+dRfskUt2+vISx28eJ5h1sB7gkyZVlopACFemVhsdjrYMqr9bNM+LDRJ7LikllTwSnDL6Q9oftNtrjwhMCv1SpcX9eaMH7XcE0Wp++MXKdZB/mi8UiTrJA9MAQosN4RPSPZSUJbC1zn+AQYEMiMduTZ0B3dpOJS/Tvw3LvJlIfxUZ5ZOv/AwZovziYBvYR9K1Qqupjv6mVLHh+EpBWBsjSPg0wjyrorshrwtwGZgD7n7obvBePE9Yi728Ws4frT9xLpB9A4EMGpfCI8Ckdj/oGRo5L7WcnKtDP88ZlhSjune5p1PK5ApPfLfIbYhqy2GtVpzHfkwzxj5e4tebCO/7Nowz3RU4KjInC4oGLwYt+UM/JYVLT0rMtgWNfr9hMQ19PjEEHSV9scFqwnYAQ8K2YN1/tkfvPHWrlcZSQYrQccNcRxeKQse+IbyMoKmV/k/kTvi7Tv3INEgfJFKDDJ3GBXOTtQ+zVXpVV5cPg6IR13Pc8gzLtLpKYvF/OflgGuQjKOqf0hUzzbo4tVXzfZPmVZHL2TcKLNJxSkFPIn9hzxA6qBuh2spcqmlzkobKrXfbB/s1sz76qP+aKwM/0x94XkRtpGh3lNcoG6Y9WryEEVkQ9CLRxsUpAGBJZELt9wU5mrtdLhsdIhkvU8o3u/fIyDNV8uZpdzXxg5Pmt5sGLDfI2I0aZMKzVTKim1EGNxHpfxlX1Fb/BhmHgd6hdJLdoqN2p7T7e3W88K6ui1Jw4sWV3mY1Z6yFpHqTqiJmusm5CsLEFCNBXiyCGKJItLrnxgaHz5V02zuu1udrJWq4uJHAxRcj/Pu+S3m3PULHcbLj/MfAuhR7wSFwc8V/R1M9STIGS6V7GZYuVKhldSLE9UGWoX+RzhL9HuaEtYa3CG1SrMOTeYONRclwWOQxKlkL27k6VIIoM3qP/lFtc9D5nfoDHQp30Ibg/XxXPBA0FAm9kCXdoqVs3uVunldKhrqFJ/kGeK/a0NViz3s1z8+1WS1t0jNhaUMFY6Hq24rLl1opgoAazXLUZHvF7tdEzZwK8KKJi+JTJCBVvjDKv1rAiRu8HEoQTBX7MLtz0ETDHPFZ1g5JG6g5WGMcdZ/ZS6LekvMbNOImXbuxtQ6ne8Dr2OyCxBtjBsdM8WFYtGqkS5kobvbCztZzZffnwfDmkwGkGpOGI+Xl9DX+0O9PYAkbsiSANEDVwkCKuq/OhAQxTI3cmCdm9Ckupdwdq/XxSsa3/pFRuCkoUYrFDd+8gIylk6NHtid9EIoZwagzg1SCc2IcOhVoa8CJFyakLxbrURn5+Q1c9UwEe5btpur+kqXM5n89nxq8tF4g7WmGzCUNkInMUZpVDwdoXX81mLqUn953UXmwSE8XCd44kwDk5vjTOsZ9/eLQrWtT+aOw/KNTGtPWzbaFONqXsfj/t92+yEjP1g6gdV5BUiyyjOUqQA2ywIAvCY8lGugoAjoFVjeT6S04erlIf5Dq7vPeZV6CqW+5lPP5y7iooxHDLzAJKTQwQTUmWZQf4TCR1SEVJ5KLtXJcoSw2Al9HCuaDpqcsDb2IMncqdIOLnRk/3hoLQlVwUeThy9/wx3G9O4kxp2JpVcQGG+lDfQ8ekzx8bjKIswh7YYIc3G8N0ZJveGq6lH6/k+q+5uZnehO1yT5fLjD4dhihTnEQjQIzq6jVtvM9I6ay6QWNnS08QNAcBFWA75tCn6bY1MMN6FEKt1cPCoGI7eaEi61qmBi+dOFu5CPtTxshprwMgKxqkD1iMoWmSwAVBGDfwQ9FcK3+nuTEgm5aFqN1fdtx+XlbjXV44YUOo5E2G/+Ps8a7KWs+lsunzx4afjEIHXoItrnS4hTT80CysmqamU1mlFwdF6HCovxQYoCAoQwK+KRE/oZaobxXD0ZiXrcbkk2C0SffvKbketGqlu8b3ev5INsAMW6ZNToGwMxGgIj/lu1Jp0q92jd6/GGlhQGoV/8UG+t4mehTxYs9lkNpnOZmc/vn/dixnDyK1UzN9Cb9u+lA5hmmFCKuZ79v1KhsTytP5Es9ixsTuGowel7+8VBetGP79e65c4cfASWA/6lCczC8W9q8LYZMqW5MvCZYhPk/aKLWxvdVezOuhTutXS+PzsTdofQzQR9rJUzZwn13fWsqtwspxN3LmaTmeT8x8vl32mIoxVtGL7YkCmETKWUFAjIEGSKwc03oS81n2o+PXl6DSbq/Lgyc72wZOjomDduGT9s0IyXuAxEQy1ajymBQyUv3FsOhT1wTSKcT2iCHicKBQvchW52UE8VrNz/P580RudQoEz+pSqmXebcvve1UWIn+nkwv1M3p7/cHl4Sr0ihIuhHS3te0Jz3pM7M7Q3odIziaOgqT6hyg9+wioLVuvpaFYUrBvvddamSRnJIQGsqylehThY2dka2QaRd2Ecqn3nwQIMVjSgOp3RzELBc7CyfPd+goDNo/4oqxYsFet5M6zvbs5mdhVOl9PJ5MIdrem/ptPzyw8vT90Xwv1H9HvZ90L/8T2dq3oqRQPNRsxEyM4W20Q7VyukUOzub/dmGwVq7cZf+789n3TKTVey3K2WZl2W4iqA9+Nqx1RzUM6EqUJvU6HVI0WM4HNxx8xrd8PDj2fLI2SXxyecUzK4nB/p/a/y/lJsLGfqsFiwphfTw4uLQ5StFx8v30/docLPmE1Wz2TLmpPWGTlOAJvhZeTB5UKdYyzEEiKF4sn203Dy/b1iOPo/tMAv3wblKjj8w9RUJ2P7i2gOPQtejTXBxgSenGt8LuiAUbrQu7ebw+XZuxcnJ0enxyenJwgFRqOW9Whx7gl/d9bmOFL/Ze+KdeNWrmjlSM2DgQSwGieFijRq3EkQbMOdHxwoCBIDUTaWBDiACnGUhoVAguQSKkhiQbBiwYbdTL1FxCYCBH+BKn1Q7jl3uIpbaVcVab6VnrA2lpoz95x77p0ZcGGCtNBm1rpY/gi6XHB3F6UXuiP0ybczvx7sRI+qkBSYhtyl7u53ear7eZ9ihc45m0e5eE0C1j//NU+qvan8/JSQtR8G1//5enwsv+WZOlhnPGqVpegZW/9wjjtfYMQf6axXUGl2CGl12YV9WKdpJXe3WFRCRChos+YIZF2sXadsvyWuGuSEkFiZdVkc29g53JlZPtzYTjcc18OB0Gjtl4Uc8eSpU7/gaDxM+ly7Yo/9KRSf//z9S5GliylgPS0xdFHfgQt/PT+CZJcAdaUp1dUFe7NobHHb228nSiYouGFF9NE1F7ycH1/O42U/lGXHe56mi2qBM1svzlaO2B/XvsJl67f7TZ6PZoMAK7MDIGWdieWOrWDrpndXWFaBLU+0Ceibrsb/duTPmLt+XAJG4+QviiwErO/fZ8Z2i49vJpQ8LWS54D48h8o6mulORleL+cWCR2SOp2OqVSrMhhYaNjSd6sGRf/37304XYd+bui7LuuuKtKorocNO/oUzcOGZP1BsAzWRV3uqr8CESTYkzlpjBVnGDcbI1zjOsjhaLsN8fnJ9rWbp0Uw7HXi4yZE/FmHcJhJti9yI4h9fv37+959OTZtU1eRhPRFYr3Zlit/8sL8eXx6xCCKBakGFxAaas9XpmLTmdaMN7hsryur4fJG1d/1Ql0VdFJ3ctYSsSkXWYq5+A62wTQzP1kFCWCUCLAlXmROJZRmtBFQmxKto+cwGUd+aYj47xf45Z6xHY6sQrrbXUrpuJQfl7msHXz5/OXHLUGZKtTcFrKd6Wfsyu6MfD8PF5TkaBM6ueNwqDiKnjNdtQrz9fqKHrn4TyTub58Fy2UqsytHJWctdp2W5KMsKwELY44EXtMc+rv/ArC3hwlXEElyNwIpxO4FXaPAT42BxhTd3yygrJWRhkwA9N/aa+8gdYRO582vdJxIL6yGvLou2N00luHo/BawnM8ruEMvsjh5u+2J2Lanh1QJFkTm7HObKhRJ4eDr5jKeEnJ6f1XHQLluXFSlkTlEmTVGUZQM6TDuJWMKFgs45ulJpYfxhE96150IJWRKxMjcgXIWQWIImY+SpjImRKcrTZXk+BMuH25toSMr57Ej3Tubx5NwSEHYJioRfv3z9dZH0y7BIy1SubgpYz7HfZV7LGJj24fYubErEmAucbQ/TQY+2Jwmis2F2VeRhdHMTGVsXeZNlWNCA3Kwum6IUoSXAqtMuFZklMY8uPsykzVhB22+zUbonNnEuY7gyxgoPGpIhOFHi1uDkyuB1WSO82PatfP687uZX3K9Ji4dH17N5acMgikxT1ngWud5PfVjPMYRi/P6NCU3Y39/eC2kYGbG67iS3W1RVJ3dZ54mT33nbtlEwJBkHU15Rp5PErGbLXVo0qfytsuvSRVfNKwKLWebHzVhB5MIEyBLISFwKhzh047PwC7AlL9YOeIMVyZU1eLu8MWqXy2V/cyMPFIZB2y57kWKxzeUx6qJWXJW7Ux/WM0LW68NxNMIwxpRd3v24/e/D7e2Ph4e7+/v7m+WNSJRlJKLF2QRWpEx/m+cZewrygg44RFaBoFXVIrLSrltUV4os4dMNjc/2LnGl2j0G6UG1C8D0Yfh/ghUGLsasDAVF1H0srdWioLvK76ERqRXlpwCWoKouP06d7s8an4PYeWAFYRAEURAYfIMAFUWBYZpl43iIjZXbysAkuRVmSUCCErVEYCVNLQSSl6WIk7JKJWSNEUtSgU0RiiQeiFcJtbsIdzOADAVMLmTEkhdqecGWBCxoebwR/+FLkvERMqSVdPBZ0sbyDAQsXMXB5I0+63qzpyFLuDDgJXCSW68QcDMhecWIXMlk6lsno5LrneQFGLGQqV6KgC+ENitJDrvFYoGQJbiq9jZFKK92k4zKHb67BZYgrQw/LsOWZ0NgK0bNB59fJgZnBS+weSJiETfBlRe8CKypmPPckLWzrzNdgRUBWbiArnAElqbxA6iF090lHBylwxo6S4AFgSLqPS1FmS1gh0lyuMGUfWsHoYcXYhK1e2gCDyyGLfCiRNyBySFFlgeifQxbGZ+BHTjIRRpyofDkZDU8f+bHKrECUmAQtQqrSOMWGJLYit0Qs4vAybAAWLnN0WhHbIlOgcgqAay6Sjv4rMBVtcE+uVd7iYcJuc4QR5gLxgRK7kYzE4lbdhiQHjJ0jQGXhcZklIuMWFi3D1w19aTcn3+9PhxFlidCH7MArAghi+Ml76CvTS4Z5EZbQUOpJSKrgD4p6yKF/d6JepeccrGouvcbrOJuvdv3wHIoPzNghWO4CldsSC8e9UPQOAU88w/5XoUWEtwGL9riBfneNPvT2c9rGaBVzFIiJLYCr7UihCwyi4ud5OoZGp/AIaLhqVISya8gsqB701LurpK0EH+6bqNK5ZfdFRX+H7BC8qEPXYotZiDoqnHQ8KqyMtomiFyYIYhdDaMWBHyTTF0N6wCWkqHmhSquWuaEKyoMSC6hZllZNiQcnjwZPYec2CpqCHiUdmB/Ca6qtNjoAEliuAKWVSYMPKLGOAuRpcYDeh+YIMrrgMClYStjCoL0kDpL+weTiQjXM0BvQIahzwujny/qeVgQMYAFq3GIRbIkifV0mGdc6t7UTSNcWMIEgpFVVV1a7212gLYPSG6S7QFYRvGkNyWjcri8OvIhExCKeIsaIp7AwrdHHtKohNe+1L2JCNc19Q91poc+ZMnV8h7DFgR8AJFlNXl3sBop4DOsGE2YqrMUDQHfpQhZaflxw0URmRG0EdCMFT4Ci59Xg62nQw1corIEX4OlteXllnezELFUZElCsr8zEeHapn5I3lhFrJbAah81POgQZEOvVJTKkHHKQ6GARIQOC/rXrBmigtt1ZbFxRtl+uy+wIl7kw6m+UoOX0PKBy/js0DB0Ca7QvmUTtU4UXSxT+dZBO1mj65v6v+xqxFJgtVoYbH8OWbxkhAb4DcIoQyI6K1MB780sekBlmXapKK36BRgFHWXOA4suFoAUacAKFFvG54nG6RWz0EOtRYGGcKV0yHaJzE0Ca62k8mkEVgDt3nsuJLZajy068L7lScdl8EYpi241dFbtZVZZFMm7zc/8rdeHXEWhHm8YUCZGYRSEq8pBsKJDmvMCrEGmxkA6xxTxXqma8fJInyaBtc4BkhHyJZ1AAcULwFqFLTqoIdszrTVORoU8kuU24YrkoiG22B0gpJi/yMxHe3X8WJQK/cfUlIPYMoF3HhR+mBbeiEdyOAiUrPq9cB+sO5xwtd4B2t451BEhF7Z91Le4V9Di9I9xs+0pdmrCC7ZolOYrAQ82rOWbF0qttg/AgiOwzFiVCoLHiieDrb/p8hpnDeaGizNnfX1HfYvhcGrCWv/cP9SA9Riyeg1a7HMYh0mGhy2akrmjIJ2N1Wg0B7CFhi0Ceb7/UiP0m13vg0K4gwR9uZNPMtKhYkslvNpxsTpbcfZYQxRSPXw3Cff1z/13OhyRB1bf9v2KEsdB8kVeUSrWGTZnqVfqu/4KOFpY7rf/ct71609safBJbTCWpMY2jWj84MFYoDaYGuzfEhHvrQfgK44Pp4RwM6zSPhqjwoW4loouX5nGqJkAtgOdB5sZlA69pZU1vpSL1Org5VIryEO12VE5CKKf7siXpbw+1AqP79YgKYqQJ7RkqoTBFK82FbO8w0AGBKx6xK3RKw2UajwdYlVMRq80cXZsFwC2ksTGL5qyb//+g5aeIpoN/LT9mHUotryzxagWhr7FTPNbAMsNgNXEg5sbot8tVVb1SoT9cgl0eUocvVKMDtctwC7NKFMSbSqFqZVYF+6+7PqWrZ0P/rNFY+PP6MK17WNtilZ8oI0PWCCm6PJJZRh8mHC1SWR9AAG2vV5LXPoDbz2QYDA8cYhFMKweUsM7+vCQwEZw9cKp1faOfGziKeAdad7Re2yN8dbniP9r34x13ASCMHxNAhTWFUbueAAkXGBhKS4s7n3szpXfwy1dXNNsKEBCK0rQIbB4oMzMYl+S3oZI/3c2hyWKkebff2Z3WfEs2VU/jhNKGinnPTZynjr4/X1ixCSiUnxP//jcVPIQ1mHcOpR3aX7el0uvvLR1PZ7OL9cVhe3FpUovxqh44sHF8MG492k6+tP5y7lO9xfRLsmHh3WGJ6foQyllRMVHdNRdXsbIxBS41ToezkezsCVvAP5i9yJVHS7pj28TpMhexbmmOEejkmnHxcw8HnX8URJlwe5ojIv33S/JPlpBV89O0Xs8tCWjSj76RRdSFndbY7NlRr5plc264/VkXoY6cYqW02y1Wd+jTOuSgyQ9pXJWcOTyzz6Ccd37cjA9qfbLBXT1fJyoKLRu27IdWF2kLANrS44SSzNzGF/VMm9AHXmL8aLaeLJOxbL9OCt0S4HKKLh/vvSV/LFFNa5GkKrSUkce2qsXLTvEeV5o+mtbObYq/qWUmJZYgqk4B5l+8TU5JyptdR5NudNme1GTkbY0WW0qPitF/DEDMe6V3L2L28ZUtTpeOrCrlzVaUUbkBaGLYdClEVeqTLuVygpXSq0MfWjQJ2RsRZHHU1eUhb+uKw6bz3BTGVcyHNTf8pJ1FBEVqSqPo3fY1QuVRSmqqoq0RdbF3qX1MLRMySfuS/ECKjkqodyR6uixqplBRbGc5bpuqqrIH8NBidumYzlPhpI6XgAAAZJJREFUxrlIWpZaU9Cogi9P0Wq5bpqGxUXqykRf1HgNmsVF8qKPpuQMOtdFltGTM0kRDYmNW0vcOcmrpa6L5yIsMVYZy6zlsIs8y2KKGVXw1QmybB79dcPqyoy8cqmN7GCUsIIGPGenqpq6Xkf+XFJkWQtvu+5rHhRUFo3niuka56UfOYfdrJce5oITScvbbty+F3VVUhml8xIH4zvWVFP3/Xo7qxSRtJyAAq/HwLN73AaKumn6yF+hCE7Zs/i7sOu6fpSXCKzh1HB2ahJV7+5mmCLrzabINy4HLgKj4PlCtzwQdj7XQNjVtGsPjr/dhJ+3zuiLE0Vfuu26W7jZ+o49ywyR39qOF1Dorut2BroLN7ut59gwq1nkSDK024Rh+Encbp+UIM5Q4C3m3fxyo+h4fhBsmSAIPMdZ0ECAV83IuBaO5wUMJ2jM0P9QTSz5WswbJDVjDxh7E2QIAAAAAAAAAAAAAAAAAAAAAAAAAAAAAAAAAAAAAAAAAAAAAAAAAAAAAAAAAAAAAAAAAAAAAMAM+A1G29cpG/MxigAAAABJRU5ErkJggg==;" parent="1" vertex="1">
          <mxGeometry x="110" y="190" width="600" height="395" as="geometry" />
        </mxCell>
        <mxCell id="mOEJxtWCVfkG1JKIOJeS-6" value="Travel" style="edgeStyle=elbowEdgeStyle;elbow=horizontal;endArrow=classic;html=1;curved=0;rounded=0;endSize=8;startSize=8;movable=1;resizable=1;rotatable=1;deletable=1;editable=1;locked=0;connectable=1;fontSize=16;fillColor=#008a00;strokeColor=#005700;fontColor=light-dark(#000000,#00FFFF);" parent="1" edge="1">
          <mxGeometry x="0.0145" width="50" height="50" relative="1" as="geometry">
            <mxPoint x="100" y="160" as="sourcePoint" />
            <mxPoint x="250" y="286" as="targetPoint" />
            <Array as="points">
              <mxPoint x="170" y="230" />
            </Array>
            <mxPoint as="offset" />
          </mxGeometry>
        </mxCell>
        <mxCell id="mOEJxtWCVfkG1JKIOJeS-8" value="&lt;div&gt;Algae Net&lt;/div&gt;" style="edgeStyle=elbowEdgeStyle;elbow=horizontal;endArrow=classic;html=1;curved=0;rounded=0;endSize=8;startSize=8;movable=1;resizable=1;rotatable=1;deletable=1;editable=1;locked=0;connectable=1;fontSize=16;fillColor=#008a00;strokeColor=#005700;" parent="1" edge="1">
          <mxGeometry x="0.1818" y="15" width="50" height="50" relative="1" as="geometry">
            <mxPoint x="20" y="240" as="sourcePoint" />
            <mxPoint x="275" y="315" as="targetPoint" />
            <Array as="points">
              <mxPoint x="100" y="280" />
            </Array>
            <mxPoint as="offset" />
          </mxGeometry>
        </mxCell>
        <mxCell id="mOEJxtWCVfkG1JKIOJeS-9" value="&lt;font style=&quot;font-size: 16px;&quot;&gt;Algae Processor&lt;/font&gt;" style="edgeStyle=elbowEdgeStyle;elbow=vertical;endArrow=classic;html=1;curved=0;rounded=0;endSize=8;startSize=8;fillColor=#e51400;strokeColor=#B20000;" parent="1" edge="1">
          <mxGeometry x="-0.4815" y="10" width="50" height="50" relative="1" as="geometry">
            <mxPoint x="60" y="430" as="sourcePoint" />
            <mxPoint x="215" y="315" as="targetPoint" />
            <Array as="points">
              <mxPoint x="80" y="380" />
            </Array>
            <mxPoint as="offset" />
          </mxGeometry>
        </mxCell>
        <mxCell id="mOEJxtWCVfkG1JKIOJeS-11" value="&lt;font style=&quot;font-size: 16px;&quot;&gt;Level 0&lt;/font&gt;" style="edgeStyle=elbowEdgeStyle;elbow=vertical;endArrow=classic;html=1;curved=0;rounded=0;endSize=8;startSize=8;fillColor=#e51400;strokeColor=#B20000;" parent="1" edge="1">
          <mxGeometry x="-0.3727" y="-15" width="50" height="50" relative="1" as="geometry">
            <mxPoint x="90" y="460" as="sourcePoint" />
            <mxPoint x="247" y="340" as="targetPoint" />
            <Array as="points">
              <mxPoint x="110" y="405" />
            </Array>
            <mxPoint as="offset" />
          </mxGeometry>
        </mxCell>
        <mxCell id="mOEJxtWCVfkG1JKIOJeS-12" value="&lt;font style=&quot;font-size: 16px;&quot;&gt;Drive to middle&lt;/font&gt;" style="edgeStyle=elbowEdgeStyle;elbow=vertical;endArrow=classic;html=1;curved=0;rounded=0;endSize=8;startSize=8;fillColor=#fa6800;strokeColor=#C73500;" parent="1" edge="1">
          <mxGeometry x="0.2016" y="-12" width="50" height="50" relative="1" as="geometry">
            <mxPoint x="430" y="570" as="sourcePoint" />
            <mxPoint x="498" y="385" as="targetPoint" />
            <mxPoint as="offset" />
          </mxGeometry>
        </mxCell>
        <mxCell id="mOEJxtWCVfkG1JKIOJeS-13" value="&lt;font style=&quot;font-size: 16px;&quot;&gt;Reset gyro&lt;/font&gt;" style="edgeStyle=elbowEdgeStyle;elbow=vertical;endArrow=classic;html=1;curved=0;rounded=0;endSize=8;startSize=8;fillColor=#fa6800;strokeColor=#C73500;movable=1;resizable=1;rotatable=1;deletable=1;editable=1;locked=0;connectable=1;" parent="1" edge="1">
          <mxGeometry x="-0.2647" y="-20" width="50" height="50" relative="1" as="geometry">
            <mxPoint x="330" y="580" as="sourcePoint" />
            <mxPoint x="412" y="390" as="targetPoint" />
            <mxPoint as="offset" />
            <Array as="points">
              <mxPoint x="370" y="530" />
            </Array>
          </mxGeometry>
        </mxCell>
        <mxCell id="mOEJxtWCVfkG1JKIOJeS-15" value="&lt;font style=&quot;font-size: 12px;&quot;&gt;L1: Drive to left reef&lt;br&gt;L2: &lt;span style=&quot;color: light-dark(rgb(0, 0, 0), rgb(51, 255, 255));&quot;&gt;Deplete&lt;/span&gt;&lt;/font&gt;" style="edgeStyle=elbowEdgeStyle;elbow=vertical;endArrow=classic;html=1;curved=0;rounded=0;endSize=8;startSize=8;" parent="1" edge="1">
          <mxGeometry x="-0.0333" y="25" width="50" height="50" relative="1" as="geometry">
            <mxPoint x="120" y="40" as="sourcePoint" />
            <mxPoint x="250" y="210" as="targetPoint" />
            <mxPoint as="offset" />
          </mxGeometry>
        </mxCell>
        <mxCell id="mOEJxtWCVfkG1JKIOJeS-16" value="&lt;font style=&quot;font-size: 12px;&quot;&gt;R1: Drive to right reef&lt;br&gt;R2: Drive to feeder&lt;i&gt;&lt;br&gt;&lt;span style=&quot;color: light-dark(rgb(0, 0, 0), rgb(153, 153, 153));&quot;&gt;If algae is in:&lt;br&gt;R2: Drive to net&lt;/span&gt;&lt;/i&gt;&lt;/font&gt;" style="edgeStyle=elbowEdgeStyle;elbow=vertical;endArrow=classic;html=1;curved=0;rounded=0;endSize=8;startSize=8;" parent="1" edge="1">
          <mxGeometry x="-0.0333" y="35" width="50" height="50" relative="1" as="geometry">
            <mxPoint x="710" y="40" as="sourcePoint" />
            <mxPoint x="580" y="210" as="targetPoint" />
            <mxPoint as="offset" />
          </mxGeometry>
        </mxCell>
        <mxCell id="mOEJxtWCVfkG1JKIOJeS-17" value="&lt;font style=&quot;font-size: 16px;&quot;&gt;Ascend&lt;/font&gt;" style="edgeStyle=elbowEdgeStyle;elbow=vertical;endArrow=classic;html=1;curved=0;rounded=0;endSize=8;startSize=8;fillColor=#76608a;strokeColor=#432D57;" parent="1" edge="1">
          <mxGeometry x="0.0172" y="-18" width="50" height="50" relative="1" as="geometry">
            <mxPoint x="380" y="40" as="sourcePoint" />
            <mxPoint x="304" y="255" as="targetPoint" />
            <mxPoint as="offset" />
          </mxGeometry>
        </mxCell>
        <mxCell id="mOEJxtWCVfkG1JKIOJeS-18" value="&lt;font style=&quot;font-size: 16px;&quot;&gt;Climb&lt;/font&gt;" style="edgeStyle=elbowEdgeStyle;elbow=vertical;endArrow=classic;html=1;curved=0;rounded=0;endSize=8;startSize=8;fillColor=#76608a;strokeColor=#432D57;fontColor=light-dark(#000000,#00FFFF);" parent="1" edge="1">
          <mxGeometry width="50" height="50" relative="1" as="geometry">
            <mxPoint x="520" y="40" as="sourcePoint" />
            <mxPoint x="520" y="255" as="targetPoint" />
          </mxGeometry>
        </mxCell>
        <mxCell id="mOEJxtWCVfkG1JKIOJeS-19" value="&lt;font style=&quot;font-size: 16px;&quot;&gt;Descend&lt;/font&gt;" style="edgeStyle=elbowEdgeStyle;elbow=vertical;endArrow=classic;html=1;curved=0;rounded=0;endSize=8;startSize=8;fillColor=#76608a;strokeColor=#432D57;" parent="1" edge="1">
          <mxGeometry x="-0.0922" y="17" width="50" height="50" relative="1" as="geometry">
            <mxPoint x="460" y="40" as="sourcePoint" />
            <mxPoint x="412" y="285" as="targetPoint" />
            <mxPoint as="offset" />
          </mxGeometry>
        </mxCell>
        <mxCell id="mOEJxtWCVfkG1JKIOJeS-20" value="&lt;font style=&quot;font-size: 16px;&quot;&gt;L3&lt;/font&gt;" style="edgeStyle=elbowEdgeStyle;elbow=horizontal;endArrow=classic;html=1;curved=0;rounded=0;endSize=8;startSize=8;fillColor=#e3c800;strokeColor=light-dark(#B09500,#FFFF33);" parent="1" edge="1">
          <mxGeometry width="50" height="50" relative="1" as="geometry">
            <mxPoint x="780" y="240" as="sourcePoint" />
            <mxPoint x="577" y="275" as="targetPoint" />
          </mxGeometry>
        </mxCell>
        <mxCell id="mOEJxtWCVfkG1JKIOJeS-21" value="&lt;div&gt;&lt;font style=&quot;font-size: 16px;&quot;&gt;L2&lt;/font&gt;&lt;/div&gt;" style="edgeStyle=elbowEdgeStyle;elbow=horizontal;endArrow=classic;html=1;curved=0;rounded=0;endSize=8;startSize=8;fillColor=#e3c800;strokeColor=light-dark(#B09500,#FFFF33);" parent="1" edge="1">
          <mxGeometry width="50" height="50" relative="1" as="geometry">
            <mxPoint x="780" y="315" as="sourcePoint" />
            <mxPoint x="615" y="315" as="targetPoint" />
            <Array as="points">
              <mxPoint x="700" y="360" />
            </Array>
          </mxGeometry>
        </mxCell>
        <mxCell id="mOEJxtWCVfkG1JKIOJeS-22" value="&lt;font style=&quot;font-size: 16px;&quot;&gt;L1&lt;br&gt;&lt;span style=&quot;color: light-dark(rgb(0, 0, 0), rgb(179, 179, 179));&quot;&gt;Climb Stop&lt;/span&gt;&lt;/font&gt;" style="edgeStyle=elbowEdgeStyle;elbow=vertical;endArrow=classic;html=1;curved=0;rounded=0;endSize=8;startSize=8;strokeColor=light-dark(#000000,#FFFF00);" parent="1" edge="1">
          <mxGeometry x="-0.3936" y="-26" width="50" height="50" relative="1" as="geometry">
            <mxPoint x="740" y="520" as="sourcePoint" />
            <mxPoint x="539" y="312" as="targetPoint" />
            <mxPoint as="offset" />
          </mxGeometry>
        </mxCell>
        <mxCell id="mOEJxtWCVfkG1JKIOJeS-24" value="&lt;font style=&quot;font-size: 16px; color: light-dark(rgb(0, 0, 0), rgb(255, 255, 255));&quot;&gt;Base&lt;/font&gt;&lt;font style=&quot;font-size: 16px; color: light-dark(rgb(0, 0, 0), rgb(0, 255, 255));&quot;&gt;&lt;br&gt;Intake&lt;/font&gt;" style="edgeStyle=elbowEdgeStyle;elbow=horizontal;endArrow=classic;html=1;curved=0;rounded=0;endSize=8;startSize=8;fillColor=#e3c800;strokeColor=light-dark(#B09500,#FFFF33);" parent="1" edge="1">
          <mxGeometry x="-0.4209" width="50" height="50" relative="1" as="geometry">
            <mxPoint x="820" y="560" as="sourcePoint" />
            <mxPoint x="578" y="353" as="targetPoint" />
            <Array as="points">
              <mxPoint x="780" y="460" />
            </Array>
            <mxPoint as="offset" />
          </mxGeometry>
        </mxCell>
        <mxCell id="YdF9UfJdEq6q8uKswSMC-1" value="&lt;font style=&quot;font-size: 16px;&quot;&gt;Drive test&lt;/font&gt;" style="edgeStyle=elbowEdgeStyle;elbow=vertical;endArrow=classic;html=1;curved=0;rounded=0;endSize=8;startSize=8;fillColor=#fa6800;strokeColor=#C73500;" edge="1" parent="1">
          <mxGeometry x="0.1905" y="-20" width="50" height="50" relative="1" as="geometry">
            <mxPoint x="280" y="590" as="sourcePoint" />
            <mxPoint x="327" y="385" as="targetPoint" />
            <mxPoint as="offset" />
            <Array as="points">
              <mxPoint x="310" y="480" />
            </Array>
          </mxGeometry>
        </mxCell>
      </root>
    </mxGraphModel>
  </diagram>
</mxfile>
